<svg width="72" height="72" viewBox="0 0 72 72" fill="none" xmlns="http://www.w3.org/2000/svg">
<rect x="0.5" y="0.5" width="71" height="71" rx="35.5" fill="#3F612D" stroke="#00100B"/>
<path d="M14.1844 20.1599L14.6884 19.7279L17.1364 18.8639L20.8804 18.0719L23.4724 13.5359L26.4964 11.5199L30.5284 11.2319L33.3364 11.7359L36.2164 13.1759L39.0964 14.3279L39.6004 15.5519H42.7684L45.5764 16.3439L46.5124 17.7119L44.8564 20.3759L41.4724 22.4639L42.4804 26.9999L42.0484 31.3199L39.6004 34.3439L38.4484 36.5039L38.5924 36.8639L43.4884 37.2959L50.7604 40.8239L55.3684 41.3279L59.6884 40.8239L62.2084 39.0239L63.3604 37.9439L64.8004 38.5199L65.3764 40.6079C65.3764 40.6079 64.5124 39.9599 65.0884 41.3999C65.6644 42.8399 65.0884 43.9199 65.0884 43.9199L62.5684 48.6719L59.0404 52.1999L53.4244 55.3679L46.9444 57.3839L42.7684 58.2479H36.2884L31.3204 57.0959C31.3204 57.0959 29.1604 56.8799 27.0004 56.3039C24.8404 55.7279 24.8404 55.3679 24.8404 55.3679L22.1764 53.3519L19.2244 48.5999L18.5044 45.2159L20.0164 42.1919L24.0484 39.2399L27.5764 37.5119L28.1524 34.8479L25.6324 35.2079L22.3204 35.4959H20.5924L15.4804 37.6559H11.4484L7.27237 36.1439L6.62437 34.8479L7.99237 33.3359L15.9844 29.7359L17.9284 28.5119L19.5124 26.9999L20.1604 23.5439L20.8804 22.1039L20.3044 22.9679L18.9364 22.7519L17.7124 22.4639L15.2644 21.8159L14.0404 20.8799L14.1844 20.1599Z" fill="#EBEBEB"/>
<path d="M6.64031 34.4376L8.6584 33.0054L15.1032 30.2061L17.6421 28.7088L19.53 27.0162H21.483L22.6548 27.537L24.4776 26.5605L26.2352 27.0162L27.7325 28.9041L29.36 29.3598L30.8573 29.8155L31.1177 31.5732L30.2063 33.0054L27.2768 34.698L22.6548 35.4792H21.0273L14.7126 37.6926H12.2389L9.96038 37.2369L6.96581 35.6745L6.64031 34.4376Z" fill="#FF6700"/>
<path d="M30.1175 18.0056C29.9153 18.0323 29.7131 18.059 29.4506 18.0661C28.7964 18.1114 28.2003 18.1612 27.61 18.2497C27.4092 18.2798 27.223 18.4074 27.0301 18.4904C26.1581 18.5842 25.2861 18.6779 24.3533 18.7473C24.1152 18.7591 23.938 18.7952 23.7607 18.8313C23.7226 18.8386 23.6845 18.846 23.5938 18.8287C23.3177 18.7529 23.0941 18.7017 22.907 18.6588C22.9854 18.5929 23.0795 18.5137 23.197 18.421C23.2548 18.4018 23.2892 18.3961 23.3345 18.4031C23.3684 18.4055 23.3915 18.3951 23.4461 18.3738C24.7415 18.215 26.0054 18.0671 27.2932 17.9228C27.3615 17.9117 27.4059 17.8971 27.4865 17.8801C28.4416 17.7014 29.3606 17.525 30.3051 17.3247C30.5783 17.2827 30.8324 17.2945 31.0724 17.2418C32.4928 16.9296 33.9118 16.6104 35.3274 16.277C36.0541 16.1058 36.7728 15.9001 37.5302 15.7067C38.1729 15.6062 38.7805 15.5089 39.4196 15.4106C39.5522 15.3833 39.6535 15.3572 39.7866 15.3206C40.2109 15.2644 40.6033 15.2186 40.9957 15.1728C41.1393 15.1721 41.2828 15.1714 41.498 15.1709C41.8542 15.1909 42.1387 15.2108 42.4584 15.239C43.667 15.3871 44.8454 15.5099 45.8722 16.2512C46.1263 16.5731 46.3534 16.8811 46.5805 17.1892C46.7859 17.8909 46.5602 18.5165 46.1703 19.0716C45.3152 20.289 44.2515 21.2856 42.9119 21.9655C42.6652 22.0907 42.4264 22.2314 42.1205 22.3667C41.8649 22.3359 41.6725 22.3033 41.4824 22.272C41.4845 22.2734 41.4798 22.2722 41.4991 22.2639C41.5373 22.2352 41.5561 22.2149 41.5872 22.1705C41.7138 22.0617 41.8281 21.977 41.9387 21.891C41.935 21.8896 41.9361 21.8974 41.9556 21.8939C42.002 21.8841 42.0237 21.8698 42.0466 21.8481C42.053 21.8487 42.0616 21.839 42.0851 21.8307C42.1629 21.7866 42.2171 21.7508 42.2655 21.7134C42.2597 21.7119 42.2583 21.7238 42.284 21.7179C42.3525 21.6844 42.3953 21.6569 42.4348 21.6285C42.4315 21.6275 42.4318 21.6345 42.4601 21.6276C42.6918 21.4814 42.8952 21.3422 43.0939 21.202C43.0891 21.201 43.0876 21.2105 43.1184 21.2044C43.2026 21.1724 43.2561 21.1465 43.3362 21.118C44.4604 20.401 45.4349 19.5751 45.9887 18.3406C46.3078 17.6292 46.2093 17.1693 45.5791 16.716C45.4781 16.6433 45.3663 16.5839 45.2545 16.5281C44.2928 16.0478 43.2502 15.9108 42.1722 15.7838C41.5493 15.7394 40.9527 15.7072 40.3569 15.7173C40.1593 15.7207 39.9636 15.8331 39.7557 15.8898C39.7444 15.8839 39.7551 15.8609 39.7187 15.8558C39.4793 15.8991 39.2762 15.9475 39.039 16.0044C38.2449 16.1745 37.4848 16.336 36.7055 16.4813C36.6194 16.4898 36.5525 16.5145 36.4748 16.5547C36.4404 16.5841 36.4158 16.5864 36.3648 16.5596C35.8843 16.6738 35.4292 16.8057 34.9747 16.9347C34.9753 16.9318 34.9808 16.9343 34.9495 16.9343C34.8245 16.9615 34.7307 16.9888 34.6302 17.0239C34.6235 17.0319 34.6062 17.0202 34.5686 17.0188C34.3337 17.0832 34.1365 17.149 33.9177 17.234C33.2703 17.3872 32.6446 17.5212 32.0183 17.6536C32.0176 17.6521 32.0158 17.6493 32.0158 17.6493C31.4364 17.7492 30.8569 17.8491 30.2267 17.9581C30.1503 17.9707 30.1308 17.9834 30.1175 18.0056Z" fill="#00100B"/>
<path d="M24.3464 35.7435C24.308 35.7472 24.2696 35.751 24.1746 35.7298C23.6904 35.7275 23.2628 35.7501 22.8353 35.7726C22.7986 35.7776 22.7619 35.7826 22.6737 35.7534C22.3089 35.6779 21.9965 35.6168 21.682 35.6026C21.4859 35.5937 21.2865 35.6557 21.0886 35.6859C20.4969 35.955 19.9046 36.2228 19.3141 36.4943C19.1797 36.5561 19.0513 36.6309 18.8787 36.7323C18.5233 36.8737 18.2093 36.9826 17.8953 37.0915C17.8953 37.0915 17.8994 37.0949 17.8734 37.0927C17.8007 37.1115 17.754 37.1325 17.7073 37.1536C17.7073 37.1536 17.7197 37.1562 17.6957 37.156C17.6267 37.175 17.5818 37.1943 17.5369 37.2136C17.5369 37.2136 17.5309 37.2136 17.5 37.2283C17.1662 37.3606 16.8631 37.4782 16.5601 37.5958C16.5601 37.5958 16.5622 37.5978 16.5359 37.5961C16.4628 37.6149 16.416 37.6353 16.3692 37.6557C16.3692 37.6557 16.3812 37.6579 16.3491 37.6613C14.8831 38.192 11.8049 37.9758 11.8049 37.9758H11.7099L11.5844 37.9736L11.3752 37.9317L10.6429 37.7573C10.2001 37.6654 9.77297 37.4981 9.32399 37.3257C9.33157 37.2047 9.35393 37.123 9.40291 36.9439C9.18557 37.0557 9.05636 37.1221 8.92716 37.1886C8.84078 37.1584 8.75441 37.1282 8.6557 37.0628C8.93773 36.2213 8.14142 36.8502 8.03172 36.5323C8.11264 36.4719 8.20693 36.4015 8.33045 36.3365C9.08552 36.6057 9.81136 36.8696 10.5429 37.1526C10.6 37.1778 10.6514 37.1839 10.7318 37.1881C10.7977 37.197 10.8346 37.2078 10.8842 37.2444C11.2648 37.3508 11.6296 37.4535 12.0015 37.5051C12.2899 37.5451 12.5871 37.5214 12.9087 37.5217C12.9746 37.5135 13.0124 37.5095 13.0837 37.5141C14.1685 37.6555 15.1847 37.5351 16.1542 37.1022C16.1505 37.101 16.149 37.1088 16.1814 37.1063C16.6308 36.9402 17.0479 36.7767 17.484 36.6171C17.5298 36.6161 17.5516 36.603 17.5953 36.5792C17.716 36.5288 17.8099 36.4807 17.9289 36.4326C17.9939 36.4076 18.034 36.3827 18.1051 36.3544C18.3759 36.2537 18.6157 36.1563 18.858 36.0593C18.8604 36.0596 18.8651 36.0583 18.8935 36.0488C19.151 35.9372 19.3802 35.8352 19.6165 35.7347C19.6237 35.7363 19.6335 35.7254 19.6522 35.72C19.705 35.6956 19.7389 35.6766 19.7858 35.659C19.7986 35.6603 19.8131 35.639 19.8388 35.6281C20.0536 35.5288 20.2426 35.4404 20.427 35.3504C20.4223 35.3489 20.4207 35.3586 20.4488 35.3561C20.5774 35.3062 20.6779 35.2589 20.7786 35.2068C20.7788 35.2022 20.7842 35.2098 20.8131 35.2019C21.0241 35.1259 21.2063 35.0579 21.4229 34.9975C21.7521 35.0351 22.047 35.0649 22.3544 35.1255C22.7173 35.1831 23.0677 35.2099 23.4452 35.2416C23.543 35.2321 23.6136 35.2178 23.7214 35.203C24.4798 35.0942 25.2009 34.9858 25.9396 34.9026C26.0784 34.979 26.2058 35.0197 26.3167 35.0876C26.352 35.1092 26.3431 35.2029 26.3336 35.2802C26.1897 35.2842 26.0667 35.2716 25.9181 35.2608C25.8512 35.2895 25.8098 35.3165 25.7611 35.3688C25.425 35.4577 25.0946 35.514 24.7683 35.5883C24.6234 35.6213 24.4868 35.6906 24.3464 35.7435ZM10.5238 37.4101C10.5165 37.3935 10.5113 37.3753 10.5005 37.3613C10.4976 37.3575 10.478 37.3665 10.4661 37.3696C10.4762 37.3852 10.4863 37.4008 10.5238 37.4101ZM21.4297 35.2326C21.4524 35.2282 21.4751 35.2238 21.4978 35.2194C21.4928 35.2096 21.4864 35.1909 21.4829 35.1914C21.4603 35.1949 21.4383 35.2025 21.4297 35.2326Z" fill="#00100B"/>
<path d="M48.2837 39.92C48.2505 39.8963 48.2172 39.8725 48.1453 39.8254C48.0547 39.783 48.0027 39.764 47.9508 39.7451C47.9508 39.7451 47.9522 39.7569 47.9429 39.7343C47.8855 39.6933 47.8374 39.675 47.7892 39.6567C47.7892 39.6567 47.7892 39.6672 47.7777 39.6456C47.716 39.6092 47.6659 39.5943 47.6158 39.5795C47.6158 39.5795 47.6164 39.5947 47.612 39.5749C47.5802 39.5482 47.5527 39.5412 47.5252 39.5342C47.1472 39.3657 46.7614 39.2125 46.3925 39.026C45.0854 38.365 43.7534 37.7753 42.3194 37.4356C41.221 37.1755 40.1153 37.0271 38.9261 37.0812C38.8233 37.1503 38.7818 37.2321 38.7362 37.3115C38.6806 37.4083 38.6215 37.5031 38.5493 37.5919C38.5346 37.585 38.5029 37.5784 38.499 37.5509C38.4669 37.4361 38.4388 37.3489 38.4287 37.238C38.4865 37.0061 38.5262 36.7978 38.5481 36.6826C39.4121 36.7704 40.2625 36.7263 41.1156 36.6186C41.1176 36.6173 41.1209 36.6207 41.1257 36.6473C41.2805 36.6806 41.4305 36.6873 41.6135 36.6919C42.2561 36.8385 42.8657 36.9871 43.4754 37.1357C43.4754 37.1357 43.475 37.1321 43.5006 37.1501C43.9939 37.336 44.4616 37.5039 44.9293 37.6718C47.064 38.6059 49.1698 39.6152 51.3427 40.4497C53.0031 41.0874 54.78 41.2476 56.5622 41.0467C57.3884 40.9535 58.2069 40.7927 59.0967 40.6776C59.528 40.731 59.8914 40.7694 60.2548 40.8078C60.018 40.9044 59.7811 41.0009 59.4919 41.0796C59.2872 41.1105 59.1349 41.1592 58.9736 41.2135C58.9647 41.2191 58.9517 41.2025 58.9182 41.2017C58.8055 41.2309 58.7265 41.2609 58.6327 41.3163C58.4878 41.3701 58.3577 41.3985 58.2013 41.4089C57.9151 41.408 57.6553 41.4266 57.3953 41.4421C56.3334 41.5053 55.2715 41.5676 54.2109 41.6513C54.1984 41.6744 54.1844 41.6764 54.1626 41.6454C53.7581 41.5783 53.3616 41.5443 52.9321 41.5136C52.3107 41.3729 51.7223 41.2289 51.1339 41.0849C51.1339 41.0849 51.1332 41.0945 51.1157 41.0724C50.6576 40.9097 50.2171 40.7691 49.7766 40.6285C49.7766 40.6285 49.7646 40.6088 49.7566 40.5884C49.6835 40.5402 49.6185 40.5123 49.5535 40.4845C49.5535 40.4845 49.5506 40.4984 49.5435 40.4804C49.5072 40.4568 49.4781 40.4511 49.4489 40.4455C49.4489 40.4455 49.4314 40.4278 49.3995 40.4087C49.3133 40.3701 49.2591 40.3505 49.2048 40.3309C49.2048 40.3309 49.2065 40.3431 49.1938 40.3205C49.1096 40.2764 49.0381 40.2548 48.9666 40.2333C48.9666 40.2333 48.9656 40.2432 48.9501 40.2227C48.83 40.1642 48.7253 40.1262 48.6207 40.0882C48.6207 40.0882 48.6211 40.0955 48.6087 40.0745C48.5484 40.0359 48.5005 40.0183 48.4526 40.0007C48.4526 40.0007 48.4533 40.0105 48.4425 39.9885C48.3823 39.951 48.333 39.9355 48.2837 39.92Z" fill="#00100B"/>
<path d="M8.3013 36.331C8.20701 36.4014 8.11272 36.4718 8.0318 36.5322C8.1415 36.8502 8.93781 36.2212 8.63075 37.0506C7.90182 36.816 7.25648 36.4435 6.7564 35.8603C6.19907 35.2105 6.18235 34.6371 6.78945 34.0696C7.23031 33.6575 7.72665 33.2565 8.27079 33.0119C10.1699 32.1583 12.1005 31.3748 14.0688 30.5368C14.2188 30.4578 14.319 30.4067 14.4191 30.3556C14.4191 30.3556 14.4019 30.3601 14.4387 30.3493C14.7612 30.1991 15.0468 30.0597 15.3324 29.9203C15.3324 29.9203 15.3251 29.9196 15.3539 29.9165C15.4618 29.8654 15.5409 29.8173 15.62 29.7693C15.62 29.7693 15.6359 29.7669 15.6668 29.7528C15.8751 29.657 16.0523 29.5755 16.2357 29.5165C16.2926 29.4942 16.3434 29.4494 16.4193 29.3958C16.4794 29.3803 16.5143 29.3737 16.5512 29.4046C16.5556 29.5173 16.5581 29.5924 16.56 29.681C16.5526 29.7149 16.5385 29.7241 16.4882 29.7246C16.3845 29.7849 16.3098 29.8427 16.2185 29.924C15.9229 30.118 15.644 30.2885 15.3707 30.4601C15.3763 30.4613 15.3759 30.4498 15.3511 30.4578C15.2835 30.4929 15.2407 30.5199 15.2019 30.5471C15.2058 30.5473 15.2035 30.5398 15.1754 30.5486C14.978 30.6449 14.8086 30.7324 14.6389 30.8196C14.6386 30.8193 14.6389 30.82 14.6144 30.8224C14.5501 30.8507 14.5103 30.8767 14.4709 30.9029C14.4712 30.9031 14.471 30.9024 14.4456 30.9048C14.379 30.9325 14.3378 30.9578 14.2991 30.9846C14.3016 30.9861 14.3008 30.9803 14.2733 30.9843C14.1489 31.035 14.052 31.0817 13.928 31.1333C13.8036 31.1848 13.7062 31.2313 13.6233 31.2953C13.628 31.3013 13.6182 31.29 13.5814 31.2873C13.4899 31.3297 13.4253 31.3632 13.3442 31.3967C13.3277 31.3966 13.3005 31.4153 13.27 31.4168C12.9441 31.539 12.6487 31.6597 12.35 31.7791C12.3467 31.7777 12.3404 31.7813 12.3124 31.7921C11.5331 32.139 10.7817 32.4751 9.99972 32.8167C9.03935 33.2518 8.008 33.4861 7.24211 34.2384C8.10774 34.0104 8.95972 33.7497 9.8093 33.4813C9.89422 33.4545 9.96464 33.3818 10.0616 33.328C10.0814 33.3256 10.1205 33.3179 10.1412 33.3251C10.1751 33.3261 10.1884 33.3199 10.2314 33.3102C10.7473 33.0939 11.2336 32.8813 11.7168 32.6678C11.7138 32.667 11.713 32.6733 11.7446 32.6703C11.852 32.6406 11.9279 32.6139 12.0154 32.59C12.0271 32.5927 12.0441 32.5758 12.0674 32.5747C12.1079 32.5487 12.1253 32.5239 12.1372 32.4977C12.1319 32.4964 12.1297 32.5072 12.1591 32.5032C12.2553 32.471 12.3222 32.4429 12.3859 32.4141C12.3826 32.4134 12.3817 32.42 12.4129 32.4175C12.628 32.34 12.8119 32.265 12.9896 32.1893C12.9834 32.1887 12.9855 32.2011 13.0089 32.195C13.076 32.169 13.1195 32.1491 13.1651 32.1293C13.1671 32.1295 13.1711 32.1303 13.1982 32.1228C13.2791 32.1017 13.333 32.088 13.4113 32.0903C13.4841 32.1887 13.5325 32.2713 13.576 32.3526C13.571 32.3514 13.5799 32.3525 13.5587 32.3558C13.5153 32.3763 13.4931 32.3934 13.4487 32.4291C13.3529 32.4863 13.2825 32.5334 13.2053 32.5622C11.2374 33.2979 9.26941 34.0332 7.29994 34.7646C6.82852 34.9397 6.76592 35.1093 7.1457 35.4607C7.49784 35.7865 7.91357 36.0437 8.3013 36.331Z" fill="#00100B"/>
<path d="M23.6963 13.0024C23.7224 13.0003 23.7419 12.9878 23.7822 12.9398C23.828 12.8892 23.8465 12.864 23.865 12.8388C23.865 12.8388 23.8525 12.8383 23.8745 12.8351C23.913 12.8057 23.9295 12.7796 23.946 12.7535C23.946 12.7535 23.9341 12.753 23.9565 12.7505C23.9978 12.7239 24.0167 12.6999 24.0357 12.6759C24.0357 12.6759 24.0278 12.676 24.0493 12.668C24.1172 12.6206 24.1637 12.5811 24.2083 12.5361C24.2065 12.5306 24.2151 12.5383 24.2339 12.5339C24.2775 12.519 24.2956 12.5014 24.3188 12.4739C24.3306 12.4708 24.3337 12.4467 24.3431 12.4443C24.3524 12.4419 24.3746 12.4113 24.3946 12.4064C24.4145 12.4015 24.4373 12.3673 24.454 12.3602C24.4966 12.3294 24.5226 12.3057 24.576 12.2733C24.9787 12.0582 25.354 11.8519 25.7637 11.6477C25.8975 11.5895 25.9969 11.5291 26.1107 11.4492C26.1719 11.4189 26.2188 11.4083 26.284 11.4159C26.3862 11.3795 26.47 11.3249 26.5584 11.2663C26.563 11.2624 26.5747 11.2661 26.6009 11.2751C26.6675 11.2554 26.7078 11.2268 26.7495 11.2029C26.7509 11.2075 26.7412 11.2067 26.7798 11.215C27.2284 11.1787 27.6382 11.134 28.0481 11.0894C28.051 11.1234 28.0538 11.1575 28.0566 11.1916C27.9354 11.2879 27.8142 11.3842 27.6757 11.4858C27.6584 11.4912 27.6224 11.4957 27.5985 11.4933C27.5585 11.4899 27.5425 11.489 27.5223 11.4803C27.5182 11.4727 27.4963 11.4723 27.4963 11.4723C27.4963 11.4723 27.5229 11.4918 27.5236 11.5076C27.5243 11.5234 27.5254 11.555 27.4925 11.5603C27.0009 11.7325 26.5421 11.8996 26.0575 12.0693C25.9713 12.1039 25.9109 12.1357 25.8279 12.1674C25.7879 12.1908 25.7705 12.2143 25.7355 12.2402C25.718 12.2427 25.6839 12.2527 25.6555 12.2534C25.3633 12.4702 25.0993 12.6862 24.8383 12.9035C24.8413 12.9048 24.8419 12.8983 24.8156 12.9057C24.7631 12.9366 24.7368 12.9602 24.6879 12.9926C24.5847 13.0798 24.5042 13.1581 24.3975 13.2472C24.0647 13.5647 23.758 13.8714 23.4219 14.1807C23.3199 14.2911 23.2474 14.3988 23.1575 14.5156C23.1186 14.5412 23.103 14.5619 23.0741 14.6037C23.0409 14.6679 23.0265 14.7153 23.0109 14.76C23.0096 14.7572 23.0157 14.7565 22.9975 14.7696C22.9647 14.8087 22.9501 14.8346 22.9352 14.8549C22.9349 14.8494 22.946 14.8504 22.9186 14.8588C22.8195 14.9705 22.7477 15.074 22.6565 15.1923C22.621 15.2523 22.605 15.2977 22.5719 15.3529C22.5337 15.3795 22.5181 15.4003 22.4893 15.4414C22.4549 15.5036 22.4392 15.5495 22.4059 15.6047C22.3667 15.6301 22.3499 15.6504 22.3199 15.6909C22.286 15.7521 22.2702 15.7972 22.2362 15.8584C22.2025 15.9199 22.1871 15.9652 22.1454 16.025C22.0524 16.2245 21.9856 16.4095 21.8905 16.6015C21.798 16.7437 21.7338 16.879 21.6419 17.0204C21.4925 17.1007 21.3707 17.1749 21.1853 17.288C21.2669 16.8547 21.3318 16.5102 21.3996 16.1676C21.4024 16.1695 21.3957 16.1685 21.4173 16.1533C21.4546 16.0893 21.4704 16.0406 21.4876 15.9959C21.4889 15.9999 21.4805 16.0013 21.5025 15.9849C21.5411 15.9177 21.5578 15.8669 21.5756 15.7987C21.5767 15.7813 21.6002 15.7557 21.6134 15.7422C21.6421 15.7084 21.6538 15.6862 21.6625 15.6654C21.6631 15.6687 21.6564 15.6692 21.6824 15.6595C21.8001 15.5155 21.8918 15.3813 21.9903 15.2182C22.0693 15.0336 22.1417 14.878 22.214 14.7225C22.214 14.7225 22.2242 14.718 22.2468 14.6963C22.745 14.1173 23.2206 13.5598 23.6963 13.0024Z" fill="#00100B"/>
<path d="M60.2522 40.8066C59.891 40.7697 59.5275 40.7313 59.1287 40.6739C60.3152 40.3614 61.2974 39.7112 62.0452 38.698C62.1917 38.4995 62.3918 38.3405 62.6048 38.1291C62.796 38.0055 62.9497 37.9161 63.1035 37.8267C63.1035 37.8267 63.1269 37.8309 63.1646 37.811C63.5503 37.7738 63.8982 37.7566 64.2461 37.7393C64.2857 37.7514 64.3252 37.7635 64.404 37.7924C64.4932 37.8253 64.5432 37.8414 64.5932 37.8575C64.8658 38.1981 65.1383 38.5387 65.3929 38.9313C65.3402 39.1142 65.2558 39.2547 65.279 39.3744C65.4028 40.0136 65.3891 40.6371 65.1559 41.203C65.0624 41.1487 64.9585 41.0883 64.8545 41.0279C64.8823 40.6887 64.9304 40.3495 64.9316 40.0101C64.9325 39.7318 64.8776 39.4533 64.8488 39.108C64.7787 38.66 64.5348 38.4531 64.1746 38.3465C63.4376 38.1284 62.8929 38.3657 62.3001 39.1773C62.2757 39.18 62.2587 39.1928 62.2244 39.2417C62.1838 39.2953 62.1681 39.3227 62.1524 39.3501C62.0468 39.4596 61.9411 39.5691 61.7883 39.6991C61.7194 39.7464 61.6977 39.7731 61.676 39.7997C61.676 39.7997 61.6779 39.7906 61.6538 39.788C61.3517 39.8381 61.1034 39.9179 61.1712 40.2869C61.1712 40.2869 61.1656 40.2784 61.1397 40.28C61.0493 40.3395 60.9847 40.3972 60.9201 40.455C60.9201 40.455 60.915 40.4471 60.8875 40.4477C60.7207 40.5435 60.5813 40.6388 60.442 40.734C60.442 40.734 60.4427 40.7096 60.4136 40.7155C60.3414 40.7492 60.2983 40.777 60.2552 40.8047C60.2552 40.8047 60.2499 40.8051 60.2522 40.8066Z" fill="#00100B"/>
<path d="M40.6784 33.7553C40.6484 33.785 40.6184 33.8147 40.5605 33.8758C40.4358 33.9931 40.339 34.0789 40.2221 34.1482C40.1361 34.2139 40.0704 34.2961 40.003 34.3909C39.9922 34.4208 39.9781 34.4286 39.9335 34.4378C39.8839 34.4754 39.8595 34.5019 39.8297 34.546C39.8074 34.5837 39.7858 34.5935 39.7316 34.5961C39.6626 34.6539 39.6213 34.7084 39.579 34.7606C39.5779 34.7583 39.5823 34.7608 39.5509 34.7563C39.0983 34.5811 39.4893 34.3778 39.5003 34.1834C39.5036 34.177 39.5294 34.1677 39.56 34.1632C39.638 34.1012 39.6853 34.0437 39.7333 33.9901C39.734 33.9939 39.7263 33.9943 39.7457 33.9809C39.7818 33.9414 39.7986 33.9152 39.8273 33.8649C39.9784 33.6747 40.1174 33.5085 40.2789 33.3322C40.338 33.2691 40.3748 33.2163 40.4324 33.1521C40.474 33.0992 40.4948 33.0578 40.5363 33.0056C40.5796 32.9543 40.6022 32.9137 40.6462 32.855C40.9329 32.3824 41.1981 31.9279 41.4735 31.4669C41.4836 31.4605 41.4797 31.4367 41.4912 31.4207C41.513 31.3801 41.5181 31.3545 41.5129 31.3288C41.508 31.3298 41.5112 31.3392 41.5339 31.3188C41.7379 30.6084 41.9193 29.9185 42.1053 29.2201C42.11 29.2115 42.0939 29.2004 42.1185 29.1744C42.183 28.8961 42.223 28.6438 42.2804 28.3681C42.2899 28.1943 42.2819 28.0441 42.2674 27.8582C42.2647 27.6784 42.2685 27.5342 42.2876 27.3641C42.3693 27.0201 42.4357 26.702 42.5239 26.3943C42.5896 26.4243 42.6336 26.4439 42.6776 26.4635C42.701 26.4802 42.7243 26.4969 42.7242 26.5635C42.6891 26.8067 42.6821 27.0004 42.665 27.1932C42.5818 28.1299 42.5097 29.068 42.4042 30.0022C42.3604 30.3904 42.2433 30.7703 42.1595 31.154C42.1587 31.1843 42.1579 31.2146 42.134 31.2897C41.815 32.249 41.2553 33.0072 40.6784 33.7553Z" fill="#00100B"/>
<path d="M42.5019 26.3838C42.4354 26.7019 42.369 27.0201 42.2796 27.3265C42.1856 25.174 41.5644 23.2104 40.3536 21.4055C39.9511 20.7961 39.558 20.2148 39.1342 19.5881C39.2572 19.6187 39.333 19.6375 39.4239 19.6712C39.4739 19.7085 39.5088 19.7311 39.558 19.7758C40.0057 20.2953 40.4391 20.7928 40.8832 21.3187C41.0893 21.655 41.2847 21.9629 41.4802 22.2709C41.6725 22.3035 41.8648 22.3362 42.0883 22.3691C41.9851 22.46 41.8508 22.5505 41.7287 22.6329C41.9822 23.3931 42.2337 24.1471 42.4701 24.9503C42.4416 25.0431 42.4281 25.0868 42.3957 25.1052C42.297 24.8152 42.2172 24.5504 42.1375 24.2857C42.0857 24.3003 42.0338 24.3149 41.982 24.3295C42.0667 24.8243 42.1363 25.3223 42.2441 25.812C42.2823 25.9856 42.4132 26.1388 42.5019 26.322C42.5019 26.3426 42.5019 26.3838 42.5019 26.3838Z" fill="#00100B"/>
<path d="M39.4971 34.1897C39.4894 34.3777 39.0984 34.581 39.5469 34.774C39.5743 34.7962 39.5722 34.8326 39.5722 34.8326C39.5287 34.8534 39.4852 34.8742 39.3957 34.9207C39.1319 35.469 38.914 35.9916 38.6519 36.6203C39.5592 36.6203 40.3361 36.6203 41.113 36.6203C40.2618 36.7267 39.4114 36.7708 38.5474 36.6829C38.5255 36.7981 38.4859 37.0064 38.4063 37.2109C38.3513 36.9463 38.3362 36.6855 38.3275 36.4111C38.3339 36.3974 38.328 36.3679 38.3549 36.3478C38.4165 35.997 38.4512 35.6664 38.4857 35.3023C38.486 35.1576 38.4864 35.0462 38.5029 34.9168C38.5548 34.8664 38.5906 34.8341 38.6454 34.7908C38.6959 34.7517 38.7277 34.7235 38.7829 34.6893C38.8428 34.6542 38.8793 34.6251 38.9367 34.5919C38.9776 34.5688 38.9975 34.5497 39.0398 34.5238C39.0959 34.4864 39.1295 34.4557 39.1859 34.4196C39.2281 34.3907 39.2475 34.3672 39.2831 34.3405C39.3208 34.3265 39.3327 34.3091 39.363 34.2707C39.4263 34.2341 39.4617 34.2119 39.4971 34.1897Z" fill="#00100B"/>
<path d="M42.1717 31.1261C42.2432 30.7701 42.3603 30.3902 42.4041 30.002C42.5096 29.0677 42.5817 28.1297 42.665 27.1929C42.6821 27.0002 42.689 26.8065 42.7204 26.5854C42.9023 28.1138 42.7479 29.6312 42.1717 31.1261Z" fill="#00100B"/>
<path d="M42.5235 26.394C42.5017 26.3836 42.5018 26.3424 42.5216 26.2976C42.4991 25.8787 42.4568 25.5045 42.4145 25.1303C42.428 25.0866 42.4415 25.0429 42.4708 24.9824C42.5476 25.4443 42.6085 25.923 42.6733 26.4325C42.6333 26.4437 42.5893 26.4241 42.5235 26.394Z" fill="#00100B"/>
<path d="M8.94812 37.208C9.05707 37.1221 9.18627 37.0556 9.40361 36.9438C9.35463 37.1229 9.33227 37.2047 9.29831 37.3091C9.1806 37.297 9.07449 37.2622 8.94812 37.208Z" fill="#00100B"/>
<path d="M30.1688 60.9967C30.175 60.9936 30.1606 60.9734 30.1545 60.9767C30.1483 60.9799 30.1627 60.9998 30.1688 60.9967Z" fill="#00100B"/>
<path d="M63.3472 47.9137C63.3117 47.9839 63.2763 48.0541 63.2005 48.1505C63.1483 48.2061 63.1363 48.2355 63.1243 48.2648C63.1243 48.2648 63.1261 48.2534 63.1028 48.2633C63.0573 48.3175 63.0351 48.3618 63.013 48.4061C63.013 48.4061 63.0108 48.3992 62.9953 48.4108C62.9653 48.4481 62.9508 48.4739 62.9362 48.4997C62.9362 48.4997 62.935 48.4902 62.9192 48.5013C62.8903 48.5395 62.8772 48.5666 62.864 48.5936C62.864 48.5936 62.8571 48.5733 62.8499 48.5809C62.8427 48.5886 62.8195 48.61 62.8195 48.61L62.8366 48.6411C61.8577 50.057 60.6683 51.2599 59.2929 52.3009C57.0277 54.0152 54.5278 55.2725 51.8138 56.2615C51.5412 56.2777 51.279 56.1636 51.2064 56.4931C51.2064 56.4931 51.1709 56.5123 51.1208 56.5132C51.0051 56.5498 50.9396 56.5854 50.8741 56.621C50.8741 56.621 50.8758 56.6057 50.8522 56.6028C50.7629 56.6387 50.6972 56.6775 50.6316 56.7163C50.6316 56.7163 50.6314 56.7007 50.6114 56.6978C50.5458 56.7205 50.5003 56.746 50.4548 56.7716C50.4548 56.7716 50.4559 56.7647 50.4224 56.7641C49.7177 56.8026 49.1116 57.0312 48.5518 57.3945C48.5518 57.3945 48.5472 57.3852 48.5247 57.3775C48.4558 57.3945 48.4094 57.4193 48.3629 57.4441C48.3629 57.4441 48.3643 57.4349 48.3314 57.4347C47.8717 57.4331 47.4448 57.4316 47.0491 57.4245C47.5617 57.2292 48.0432 57.0396 48.5247 56.8499C48.5652 56.824 48.6056 56.7981 48.6938 56.7886C49.0039 56.7063 49.2663 56.6076 49.5288 56.5089C50.843 56.0037 52.1648 55.517 53.4686 54.9862C54.1979 54.6892 54.8974 54.319 55.6474 53.9577C55.7092 53.9286 55.7304 53.9172 55.7483 53.8994C55.7483 53.8994 55.7787 53.8977 55.8131 53.875C56.1492 53.6811 56.4509 53.51 56.7527 53.3389C56.7527 53.3389 56.7898 53.3337 56.8304 53.3124C56.915 53.258 56.959 53.2249 57.003 53.1918C57.003 53.1918 56.9889 53.1723 57.0247 53.1729C58.2526 52.4367 59.3998 51.6422 60.3554 50.6023C60.3554 50.6023 60.3566 50.6004 60.3576 50.5998C61.4009 49.6962 62.2743 48.6478 63.0709 47.4692C63.127 47.4154 63.141 47.3893 63.1549 47.3631C63.1549 47.3631 63.1545 47.3714 63.1746 47.3708C63.2112 47.3186 63.2277 47.2669 63.2443 47.2152C63.2643 47.1715 63.2844 47.1277 63.3464 47.0546C63.4435 46.9171 63.4987 46.809 63.5539 46.7009C63.6894 46.467 63.825 46.2332 64.0137 45.9836C64.4454 46.1027 64.057 46.3838 64.181 46.5672C64.1481 46.6378 64.1151 46.7083 64.0406 46.8084C63.9792 46.8879 63.9593 46.9379 63.9394 46.9878C63.9394 46.9878 63.9281 46.975 63.9013 46.978C63.6174 47.0154 63.6715 47.1702 63.7392 47.3304C63.7392 47.3304 63.7395 47.3564 63.701 47.3615C63.6148 47.4632 63.5671 47.5599 63.5194 47.6566C63.5194 47.6566 63.5128 47.648 63.4874 47.654C63.4238 47.7446 63.3855 47.8292 63.3472 47.9137Z" fill="#00100B"/>
<path d="M64.8372 41.0555C64.9579 41.0884 65.0618 41.1488 65.1553 41.2031C65.3885 40.6372 65.4022 40.0137 65.2784 39.3744C65.2552 39.2548 65.3397 39.1143 65.3948 38.9609C65.4312 39.0101 65.4473 39.0818 65.4577 39.2065C65.4673 39.2906 65.4825 39.3218 65.4978 39.3529C65.505 39.4691 65.5123 39.5852 65.5198 39.769C65.5149 39.9258 65.5097 40.0149 65.5045 40.1041C65.4059 40.5802 65.3479 41.0695 65.1984 41.5291C65.0084 42.1134 64.7843 42.6942 64.5034 43.2397C63.968 44.2794 63.1522 45.0913 62.2337 45.8434C60.2117 47.2391 58.0617 48.2735 55.6434 48.6824C55.4397 48.7168 55.2376 48.7608 54.9763 48.7798C54.7698 48.7865 54.6218 48.8137 54.4738 48.841C54.4738 48.841 54.4738 48.8227 54.4629 48.8281C54.4242 48.8403 54.4024 48.8557 54.3867 48.8797C54.3716 48.8829 54.3565 48.8862 54.2911 48.8652C53.8704 48.8556 53.4999 48.8702 53.1209 48.8591C53.0057 48.8487 52.8991 48.8639 52.7571 48.8814C52.4956 48.9094 52.2696 48.9354 52.0322 48.9337C51.86 48.7951 51.6992 48.684 51.5664 48.5672C51.6323 48.5564 51.67 48.5512 51.7422 48.5509C51.8926 48.5568 52.0086 48.5578 52.1336 48.569C52.1426 48.5792 52.1798 48.5829 52.1798 48.5829C52.1798 48.5829 52.2084 48.5552 52.2397 48.5453C52.358 48.5346 52.445 48.5337 52.5487 48.554C52.6687 48.5471 52.7721 48.5192 52.9037 48.4846C52.9699 48.4806 53.0082 48.4832 53.0685 48.5031C53.1888 48.4971 53.2869 48.4739 53.4012 48.438C53.4173 48.4253 53.4583 48.4238 53.4583 48.4238C53.4583 48.4238 53.485 48.4549 53.5244 48.4596C53.6163 48.4668 53.6689 48.4693 53.7534 48.4725C54.0693 48.4199 54.3551 48.3743 54.6367 48.3102C54.7868 48.2761 54.9297 48.2101 55.0758 48.1585C55.0758 48.1585 55.0607 48.1556 55.0949 48.1615C55.2817 48.134 55.4344 48.1006 55.587 48.0672C55.6438 48.064 55.7006 48.0607 55.8159 48.0481C56.2223 47.9449 56.5701 47.8511 56.918 47.7573C56.918 47.7573 56.9159 47.7677 56.9532 47.7615C58.5309 47.3143 60.0131 46.7393 61.3616 45.8565C61.3616 45.8565 61.3752 45.8555 61.4013 45.8339C61.7012 45.613 61.975 45.4137 62.2488 45.2144C63.6751 44.1915 64.4117 42.7392 64.8372 41.0555Z" fill="#00100B"/>
<path d="M51.5385 48.5727C51.6994 48.6838 51.8602 48.7949 51.9943 48.9376C51.5248 48.9986 51.0822 49.0495 50.6393 49.0534C49.3443 49.0648 48.0493 49.0549 46.7543 49.0607C46.5926 49.0614 46.4311 49.1059 46.2695 49.1301C44.6948 48.9888 43.2415 48.4683 41.8154 47.6889C41.485 47.4824 41.201 47.3054 40.9169 47.1283C40.9169 47.1283 40.9141 47.1349 40.9023 47.1079C40.3957 46.6865 39.9009 46.292 39.4061 45.8976C39.1548 45.59 38.9035 45.2824 38.6842 44.93C38.8166 44.8513 38.9169 44.8175 39.0172 44.7837C39.2081 44.9313 39.399 45.0788 39.6303 45.2538C39.8268 45.4537 39.9697 45.6407 40.1412 45.7961C41.1746 46.7321 42.3514 47.4489 43.6558 47.9242C44.2176 48.1289 44.8372 48.1751 45.4305 48.2934C45.579 48.3473 45.7275 48.4012 45.9416 48.4656C46.4498 48.5065 46.892 48.5593 47.3347 48.5633C48.7359 48.5762 50.1372 48.5709 51.5385 48.5727Z" fill="#00100B"/>
<path d="M18.9487 44.4687C18.6226 45.8818 19.0399 47.1876 19.5616 48.4648C20.1623 49.9352 21.0019 51.2695 22.0309 52.5412C22.096 52.6054 22.1286 52.6335 22.1613 52.6615C22.8466 53.6046 23.7093 54.368 24.6434 55.0972C24.6728 55.1374 24.6877 55.1566 24.7446 55.1943C24.882 55.3159 24.989 55.4101 25.0947 55.5323C25.0661 55.586 25.0388 55.6117 24.9787 55.6328C24.4979 55.3862 24.0498 55.1441 23.6007 54.9053C23.5996 54.9086 23.6065 54.9075 23.5933 54.8821C23.1387 54.4568 22.6974 54.0569 22.256 53.657C22.256 53.657 22.2529 53.6613 22.25 53.6388C22.2214 53.6029 22.1958 53.5895 22.1702 53.5762C22.1702 53.5762 22.1698 53.5793 22.156 53.5546C21.8031 53.1442 21.4641 52.7585 21.125 52.3727C21.125 52.3727 21.1226 52.3692 21.1082 52.3428C20.8189 51.9198 20.5441 51.5234 20.2693 51.1269C20.2693 51.1269 20.2564 51.1487 20.2571 51.1144C20.2126 51.0099 20.1675 50.9398 20.1224 50.8696C20.1224 50.8696 20.1105 50.8748 20.1085 50.8541C20.0947 50.8138 20.0796 50.7972 20.0612 50.7836C20.0612 50.7836 20.0617 50.7588 20.0392 50.7276C19.8502 50.3935 19.6838 50.0906 19.5098 49.7589C18.7809 48.3083 18.2298 46.8381 18.2261 45.1793C18.2425 45.0027 18.2522 44.861 18.2853 44.6977C18.4002 44.3942 18.4916 44.1123 18.6051 43.815C18.6484 43.7506 18.6696 43.7015 18.6908 43.6525C18.6797 43.6423 18.6685 43.6321 18.6918 43.6241C18.754 43.5933 18.7817 43.5604 18.8122 43.5616C18.7336 43.8702 18.6378 44.1415 18.5755 44.4203C18.5273 44.6361 18.5209 44.8613 18.496 45.0823C18.5339 45.085 18.5719 45.0877 18.6098 45.0904C18.7228 44.8831 18.8358 44.6759 18.9487 44.4687Z" fill="#00100B"/>
<path d="M28.6992 40.9363C28.6992 40.9363 28.6718 40.9554 28.6203 40.9529C28.0856 41.0898 27.5435 41.0939 27.1976 41.5482C27.1976 41.5482 27.1982 41.5406 27.1693 41.5382C26.9888 41.4551 26.8373 41.3745 26.7091 41.2765C26.9447 41.143 27.1571 41.027 27.4 40.9018C27.7759 40.7482 28.1211 40.6038 28.4596 40.4579C28.4527 40.4564 28.4514 40.4703 28.4799 40.4664C28.576 40.4316 28.6435 40.4007 28.7078 40.3685C28.7044 40.3672 28.7056 40.3743 28.7371 40.3716C29.0022 40.2871 29.2358 40.2053 29.4641 40.1227C29.4587 40.1218 29.4587 40.1326 29.4921 40.1282C30.5978 39.8865 31.6701 39.6491 32.7832 39.4176C32.8794 39.4277 32.9358 39.441 32.99 39.435C33.6053 39.367 34.2219 39.3075 34.8347 39.2219C35.2496 39.1639 35.6573 39.0563 36.0715 38.9927C36.456 38.9336 36.845 38.9035 37.2321 38.8606C37.233 38.8922 37.2339 38.9238 37.2348 38.9555C36.9279 39.0657 36.6209 39.1759 36.314 39.2862C36.314 39.2862 36.3139 39.2786 36.2809 39.2764C35.992 39.3353 35.736 39.3964 35.4799 39.4574C34.997 39.5606 34.5141 39.6638 33.9719 39.7446C33.8725 39.7131 33.8292 39.6894 33.7924 39.6969C32.2747 40.0085 30.7564 40.3178 29.2419 40.6447C29.0853 40.6785 28.952 40.8198 28.8078 40.9112C28.8078 40.9112 28.8022 40.8987 28.7871 40.8967C28.7477 40.9086 28.7234 40.9224 28.6992 40.9363Z" fill="#00100B"/>
<path d="M36.3502 39.2821C36.6215 39.1756 36.9284 39.0654 37.2353 38.9552C37.2344 38.9236 37.2335 38.8919 37.2326 38.8603C36.8456 38.9032 36.4566 38.9334 36.072 38.9924C35.6578 39.056 35.2501 39.1637 34.8353 39.2216C34.2224 39.3072 33.6058 39.3667 32.9906 39.4348C32.9363 39.4408 32.8799 39.4274 32.8131 39.3978C33.6389 39.2314 34.4761 39.0902 35.3405 38.945C35.4032 38.9343 35.4388 38.9277 35.5071 38.9212C35.7684 38.868 35.997 38.8148 36.248 38.7654C36.2842 38.7631 36.298 38.757 36.3402 38.7511C36.4598 38.7259 36.5509 38.7004 36.6669 38.6785C36.7367 38.6654 36.7817 38.6487 36.8604 38.6285C37.3997 38.4319 37.9051 38.2388 38.4376 38.0286C38.4974 37.874 38.5303 37.7365 38.5632 37.599C38.6208 37.5034 38.6799 37.4085 38.7355 37.3117C38.7811 37.2323 38.8226 37.1505 38.8865 37.0854C38.9083 37.2679 38.9051 37.4348 38.9118 37.6013C38.9417 38.3464 38.765 38.6759 38.0726 38.8994C37.5265 39.0758 36.9493 39.1557 36.3502 39.2821Z" fill="#00100B"/>
<path d="M48.7667 41.2219C47.243 40.5343 45.7193 39.8468 44.1936 39.1246C44.1916 39.0899 44.209 39.0754 44.209 39.0754C44.862 39.3204 45.5241 39.544 46.1659 39.8156C47.0562 40.1925 47.9313 40.6054 48.8237 41.0437C48.8119 41.1303 48.7893 41.1761 48.7667 41.2219Z" fill="#00100B"/>
<path d="M48.7872 41.2434C48.7901 41.176 48.8127 41.1302 48.8472 41.0618C49.9527 41.3996 51.0414 41.7752 52.1416 42.114C52.7022 42.2867 53.2832 42.3932 53.8442 42.5699C52.1055 42.3608 50.4268 41.9245 48.7872 41.2434Z" fill="#00100B"/>
<path d="M37.8527 51.7251C38.0912 51.7969 38.3387 51.9068 38.5949 51.9902C39.6378 52.3299 40.6833 52.6613 41.7278 52.996C41.7881 53.0153 41.8479 53.0361 41.9461 53.069C41.2839 53.2649 38.6457 52.3934 37.8527 51.7251Z" fill="#00100B"/>
<path d="M46.3061 49.1357C46.4315 49.106 46.593 49.0615 46.7547 49.0608C48.0497 49.0551 49.3448 49.0649 50.6397 49.0535C51.0827 49.0496 51.5252 48.9987 52.0061 48.9653C52.2702 48.9353 52.4962 48.9093 52.7912 48.885C52.9502 48.886 53.0401 48.8854 53.1301 48.8848C53.5006 48.8701 53.871 48.8555 54.2691 48.8603C53.5886 48.9417 52.8806 49.0036 52.1069 49.0697C50.7831 49.125 49.5253 49.187 48.2667 49.2213C47.7963 49.2341 47.3242 49.1825 46.8528 49.1603C46.6826 49.1539 46.5124 49.1476 46.3061 49.1357Z" fill="#00100B"/>
<path d="M60.605 45.2498C59.6269 45.8388 58.6003 46.2897 57.4553 46.3993C58.4728 46.0026 59.4904 45.606 60.5481 45.2185C60.5884 45.2277 60.605 45.2498 60.605 45.2498Z" fill="#00100B"/>
<path d="M28.8395 40.8995C28.9526 40.8194 29.086 40.6781 29.2426 40.6443C30.757 40.3173 32.2753 40.0081 33.7931 39.6965C33.8299 39.6889 33.8731 39.7126 33.9376 39.7408C33.0322 39.9388 32.1025 40.1178 31.1137 40.3181C30.9495 40.3697 30.8445 40.3999 30.729 40.4249C30.7185 40.4196 30.7038 40.4381 30.7038 40.4381C30.0927 40.5881 29.4816 40.7381 28.8395 40.8995Z" fill="#00100B"/>
<path d="M48.493 56.8433C48.0445 57.0395 47.563 57.2291 47.0345 57.4351C46.9675 57.468 46.9516 57.4878 46.9055 57.5171C46.1721 57.5915 45.473 57.6598 44.7962 57.7107C44.8892 57.6735 44.9599 57.6538 45.0305 57.634C46.1737 57.3682 47.3168 57.1025 48.493 56.8433Z" fill="#00100B"/>
<path d="M38.3195 58.1946C39.801 58.1344 41.2825 58.0743 42.8001 58.0077C42.8834 58.0001 42.9307 57.9989 43.0335 57.9799C43.3218 57.9422 43.5545 57.9222 43.7595 57.9257C43.3099 58.0158 42.8897 58.1243 42.4658 58.1414C41.1216 58.196 39.776 58.2168 38.4308 58.2476C38.3941 58.2484 38.3566 58.2131 38.3195 58.1946Z" fill="#00100B"/>
<path d="M37.3573 49.0159C37.2149 48.8637 37.0936 48.7322 36.9723 48.6007C36.9844 48.5867 36.9965 48.5726 37.0086 48.5586C37.7614 49.1328 38.5142 49.707 39.2669 50.2812C39.2452 50.3126 39.2235 50.344 39.2017 50.3754C38.594 49.9291 37.9863 49.4828 37.3573 49.0159Z" fill="#00100B"/>
<path d="M39.0035 44.7583C38.9166 44.8177 38.8163 44.8515 38.6787 44.8992C38.3777 44.4848 38.114 44.0565 37.8503 43.6281C37.8839 43.6045 37.9174 43.5808 37.951 43.5571C38.2974 43.949 38.6438 44.3409 39.0035 44.7583Z" fill="#00100B"/>
<path d="M61.1962 40.2761C61.1028 39.9179 61.351 39.8381 61.6574 39.79C61.5311 39.9515 61.3765 40.1084 61.1962 40.2761Z" fill="#00100B"/>
<path d="M53.1566 41.611C53.0974 41.5812 53.0571 41.5525 52.9905 41.5171C53.3608 41.5444 53.7574 41.5784 54.1619 41.6454C53.8747 41.649 53.5797 41.6194 53.2485 41.6036C53.2125 41.6172 53.1753 41.6122 53.1566 41.611Z" fill="#00100B"/>
<path d="M49.4978 56.5093C49.2674 56.6076 49.005 56.7063 48.7197 56.788C48.9531 56.6839 49.2094 56.5968 49.4978 56.5093Z" fill="#00100B"/>
<path d="M35.515 39.4557C35.7362 39.396 35.9922 39.3349 36.2849 39.2764C36.0643 39.3374 35.8071 39.3959 35.515 39.4557Z" fill="#00100B"/>
<path d="M60.468 40.7245C60.5804 40.6388 60.7198 40.5436 60.8907 40.45C60.7799 40.5394 60.6374 40.6272 60.468 40.7245Z" fill="#00100B"/>
<path d="M59.3267 41.1486C59.2231 41.1819 59.1358 41.1976 59.0153 41.2107C59.1345 41.1594 59.2868 41.1108 59.4606 41.0791C59.4356 41.1077 59.3893 41.1194 59.3267 41.1486Z" fill="#00100B"/>
<path d="M54.5092 48.8355C54.622 48.8137 54.77 48.7864 54.9423 48.7778C54.8259 48.8077 54.6851 48.8189 54.5092 48.8355Z" fill="#00100B"/>
<path d="M60.9452 40.4486C60.9839 40.3974 61.0485 40.3396 61.1432 40.283C61.1059 40.3367 61.0385 40.3893 60.9452 40.4486Z" fill="#00100B"/>
<path d="M56.404 48.8591C56.3984 48.8653 56.3786 48.8435 56.3786 48.8435C56.3786 48.8435 56.4096 48.8529 56.404 48.8591Z" fill="#00100B"/>
<path d="M60.2791 40.7987C60.2979 40.7769 60.3409 40.7492 60.4112 40.7275C60.3934 40.7534 60.3484 40.7731 60.2791 40.7987Z" fill="#00100B"/>
<path d="M60.5795 45.2166C60.6175 45.1902 60.6638 45.1748 60.7102 45.1594C60.6899 45.1832 60.6695 45.207 60.6269 45.2402C60.6046 45.2496 60.588 45.2275 60.5795 45.2166Z" fill="#00100B"/>
<path d="M44.182 39.0973C44.1524 39.0862 44.1314 39.0677 44.1105 39.0492C44.1329 39.0459 44.1553 39.0426 44.1928 39.0574C44.2079 39.0755 44.1906 39.09 44.182 39.0973Z" fill="#00100B"/>
<path d="M61.7005 39.7898C61.6978 39.7729 61.7195 39.7462 61.7649 39.7083C61.7674 39.7247 61.7462 39.7524 61.7005 39.7898Z" fill="#00100B"/>
<path d="M41.4133 45.964C41.4127 45.9632 41.4307 45.9373 41.4307 45.9373C41.4307 45.9373 41.4301 45.9578 41.4228 45.9618C41.4155 45.9659 41.4139 45.9647 41.4133 45.964Z" fill="#00100B"/>
<path d="M54.4091 48.8816C54.4027 48.8554 54.4242 48.8402 54.4714 48.8289C54.4711 48.8442 54.451 48.8642 54.4091 48.8816Z" fill="#00100B"/>
<path d="M44.7709 57.7303C44.7709 57.7303 44.7723 57.7289 44.773 57.7285C45.4729 57.6598 46.172 57.5915 46.8998 57.5471C46.5665 57.7124 46.2114 57.8764 45.8409 57.9897C45.3502 58.1397 44.8474 58.2501 44.3498 58.3775C44.3498 58.3775 44.3502 58.3646 44.3252 58.3569C44.2333 58.332 44.1641 58.294 44.0996 58.3008C43.1796 58.3981 42.2599 58.499 41.3413 58.6091C41.2781 58.6166 41.2245 58.7039 41.1664 58.7541C41.1511 58.7575 41.1358 58.7609 41.0693 58.7393C40.8673 58.7029 40.7165 58.6895 40.5654 58.6806C39.173 58.5986 37.7782 58.5445 36.3891 58.4248C35.6758 58.3634 34.9781 58.1372 34.2498 58.1872C32.2766 57.7583 30.424 57.0515 28.7831 55.766C28.6787 55.6507 28.5897 55.5905 28.5007 55.5302C28.5007 55.5302 28.5085 55.5272 28.5007 55.5091C28.4687 55.4723 28.4445 55.4535 28.4203 55.4346C28.4203 55.4346 28.4318 55.4335 28.4219 55.4182C28.3877 55.3852 28.3634 55.3674 28.339 55.3497C28.339 55.3497 28.3495 55.3486 28.3393 55.3332C28.3049 55.3002 28.2806 55.2827 28.2563 55.2651C28.2563 55.2651 28.2675 55.2642 28.2574 55.2491C28.2243 55.215 28.2013 55.1959 28.1783 55.1768C28.1322 55.1318 28.0861 55.0868 28.0408 54.9919C28.15 54.9522 28.2649 54.9434 28.3653 54.9772C28.5075 55.0251 28.6391 55.1044 28.7752 55.1703C28.7752 55.1703 28.7795 55.1684 28.7859 55.1964C28.8488 55.2578 28.9051 55.2914 28.9615 55.3249C28.9615 55.3249 28.953 55.3272 28.9669 55.3431C29.0093 55.3754 29.0377 55.3917 29.0661 55.4081C29.0661 55.4081 29.0955 55.4098 29.1177 55.4346C29.1582 55.4769 29.179 55.4904 29.2024 55.4999C31.2234 56.777 33.4285 57.546 35.7892 57.885C35.9399 57.9066 36.0913 57.9235 36.2906 57.9799C36.8433 58.1266 37.3458 58.2481 37.8543 58.3339C37.9438 58.349 38.0586 58.215 38.1617 58.1499C38.1969 58.1597 38.2321 58.1695 38.2938 58.1869C38.3574 58.213 38.3949 58.2483 38.4315 58.2475C39.7767 58.2168 41.1223 58.1959 42.4665 58.1414C42.8904 58.1242 43.3107 58.0157 43.7603 57.9256C43.7879 57.9021 43.7873 57.9078 43.8229 57.9145C44.0199 57.8819 44.1813 57.8426 44.3426 57.8032C44.3561 57.7933 44.3695 57.7833 44.4057 57.7628C44.4422 57.7567 44.456 57.7612 44.5113 57.7849C44.6255 57.7796 44.6982 57.755 44.7709 57.7303Z" fill="#00100B"/>
<path d="M64.2055 46.5511C64.0575 46.3839 64.4459 46.1028 64.0366 45.9654C64.2279 45.4866 64.4381 45.0043 64.6759 44.5361C64.841 44.211 65.0441 43.9051 65.283 43.6172C65.0357 44.6324 64.7548 45.6279 64.2055 46.5511Z" fill="#00100B"/>
<path d="M34.2747 58.2116C34.9771 58.1373 35.6748 58.3635 36.3881 58.425C37.7772 58.5447 39.172 58.5988 40.5644 58.6808C40.7155 58.6897 40.8663 58.7031 41.0455 58.7336C39.4769 58.8489 37.8881 58.763 36.3061 58.5349C35.6372 58.4384 34.9691 58.3357 34.2747 58.2116Z" fill="#00100B"/>
<path d="M28.7611 55.1461C28.639 55.1043 28.5074 55.0249 28.3652 54.9771C28.2647 54.9433 28.1499 54.9521 28.0335 54.9681C27.7692 54.563 27.5105 54.133 27.2622 53.6971C27.2454 53.6675 27.3069 53.5934 27.3575 53.5491C27.8377 54.0795 28.2924 54.6007 28.7611 55.1461Z" fill="#00100B"/>
<path d="M44.3856 58.3741C44.8468 58.2503 45.3496 58.1399 45.8403 57.9899C46.2108 57.8766 46.5659 57.7126 46.9335 57.5412C46.9509 57.488 46.9668 57.4682 47.0026 57.4409C47.4454 57.4317 47.8723 57.4332 48.3365 57.436C47.0566 57.7483 45.7393 58.0594 44.3856 58.3741Z" fill="#00100B"/>
<path d="M41.2014 58.7592C41.2239 58.704 41.2775 58.6167 41.3407 58.6091C42.2593 58.4991 43.179 58.3982 44.0991 58.3009C44.1635 58.294 44.2327 58.332 44.331 58.358C43.6208 58.4716 42.8799 58.5805 42.1376 58.6792C41.8389 58.719 41.5373 58.7366 41.2014 58.7592Z" fill="#00100B"/>
<path d="M48.5842 57.3842C49.1121 57.0308 49.7182 56.8022 50.4262 56.7646C49.8474 56.9689 49.2318 57.1716 48.5842 57.3842Z" fill="#00100B"/>
<path d="M51.2369 56.4907C51.2796 56.1635 51.5418 56.2777 51.7841 56.2637C51.6355 56.3401 51.4511 56.4143 51.2369 56.4907Z" fill="#00100B"/>
<path d="M63.5274 46.7063C63.4993 46.8089 63.4441 46.9171 63.3658 47.039C63.3952 46.9392 63.4477 46.8255 63.5274 46.7063Z" fill="#00100B"/>
<path d="M63.7548 47.3105C63.6722 47.1704 63.6181 47.0155 63.9089 46.9832C63.885 47.087 63.8273 47.1888 63.7548 47.3105Z" fill="#00100B"/>
<path d="M28.5128 55.5535C28.5894 55.5903 28.6784 55.6506 28.7702 55.7412C28.6905 55.7067 28.6078 55.6418 28.5128 55.5535Z" fill="#00100B"/>
<path d="M63.3709 47.8994C63.3863 47.829 63.4246 47.7445 63.4932 47.656C63.4803 47.7298 63.4371 47.8075 63.3709 47.8994Z" fill="#00100B"/>
<path d="M63.5406 47.642C63.5676 47.5599 63.6153 47.4632 63.6908 47.3689C63.6662 47.4566 63.6138 47.542 63.5406 47.642Z" fill="#00100B"/>
<path d="M63.2229 47.2258C63.228 47.2669 63.2115 47.3186 63.1709 47.3696C63.165 47.3248 63.1831 47.2806 63.2229 47.2258Z" fill="#00100B"/>
<path d="M36.6991 58.9576C36.71 58.9333 36.7315 58.9202 36.7529 58.907C36.7384 58.9276 36.724 58.9481 36.6991 58.9576Z" fill="#00100B"/>
<path d="M35.9723 59.0559C35.9624 59.0309 35.9681 59.0061 35.9738 58.9814C35.9785 59.0064 35.9832 59.0313 35.9723 59.0559Z" fill="#00100B"/>
<path d="M50.6603 56.7075C50.6981 56.6775 50.7638 56.6388 50.8606 56.6045C50.8239 56.6389 50.756 56.6688 50.6603 56.7075Z" fill="#00100B"/>
<path d="M50.9022 56.6136C50.9398 56.5853 51.0054 56.5496 51.1008 56.5129C51.0638 56.5433 50.997 56.5748 50.9022 56.6136Z" fill="#00100B"/>
<path d="M63.9617 46.9722C63.96 46.9376 63.9799 46.8877 64.025 46.8254C64.0279 46.861 64.0056 46.9089 63.9617 46.9722Z" fill="#00100B"/>
<path d="M63.0334 48.3941C63.0352 48.3619 63.0574 48.3176 63.1054 48.2686C63.1054 48.3032 63.0796 48.3426 63.0334 48.3941Z" fill="#00100B"/>
<path d="M48.3902 57.4423C48.4106 57.4194 48.457 57.3947 48.5311 57.3772C48.5112 57.4031 48.4637 57.4217 48.3902 57.4423Z" fill="#00100B"/>
<path d="M50.4803 56.7679C50.4999 56.7459 50.5454 56.7203 50.6186 56.699C50.5997 56.7236 50.553 56.744 50.4803 56.7679Z" fill="#00100B"/>
<path d="M65.4995 39.3257C65.4824 39.3219 65.4672 39.2907 65.4498 39.2332C65.4656 39.2373 65.4834 39.2679 65.4995 39.3257Z" fill="#00100B"/>
<path d="M62.5409 47.765C62.5389 47.7604 62.5428 47.7696 62.5409 47.765V47.765Z" fill="#00100B"/>
<path d="M63.1433 48.2499C63.1371 48.2354 63.1491 48.2061 63.1818 48.1643C63.1888 48.1796 63.1751 48.2073 63.1433 48.2499Z" fill="#00100B"/>
<path d="M62.919 47.303C62.9194 47.3026 62.9457 47.3199 62.9457 47.3199C62.9457 47.3199 62.9256 47.319 62.9217 47.3116C62.9178 47.3043 62.9185 47.3033 62.919 47.303Z" fill="#00100B"/>
<path d="M63.1356 47.374C63.1419 47.389 63.1279 47.4152 63.0961 47.4547C63.0906 47.4405 63.103 47.4128 63.1356 47.374Z" fill="#00100B"/>
<path d="M62.9186 45.7973C62.9184 45.7974 62.8919 45.7808 62.8919 45.7808C62.8919 45.7808 62.9116 45.7819 62.9153 45.7894C62.919 45.7968 62.9188 45.7972 62.9186 45.7973Z" fill="#00100B"/>
<path d="M62.6256 45.754C62.6209 45.7559 62.6302 45.752 62.6256 45.754V45.754Z" fill="#00100B"/>
<path d="M62.849 48.6307C62.837 48.6403 62.8202 48.6096 62.8202 48.6096C62.8202 48.6096 62.843 48.5884 62.8557 48.5899C62.8683 48.5914 62.8609 48.6211 62.849 48.6307Z" fill="#00100B"/>
<path d="M28.4284 55.4563C28.4436 55.4537 28.4675 55.4723 28.4991 55.5128C28.4836 55.5157 28.4604 55.4966 28.4284 55.4563Z" fill="#00100B"/>
<path d="M28.3483 55.3708C28.3634 55.3674 28.3878 55.3852 28.4217 55.424C28.4066 55.4273 28.382 55.4096 28.3483 55.3708Z" fill="#00100B"/>
<path d="M28.2648 55.2864C28.2802 55.2827 28.3045 55.3002 28.3386 55.3385C28.3235 55.342 28.2986 55.3248 28.2648 55.2864Z" fill="#00100B"/>
<path d="M28.1866 55.1984C28.2008 55.1961 28.2236 55.215 28.256 55.2542C28.2421 55.2562 28.2186 55.2379 28.1866 55.1984Z" fill="#00100B"/>
<path d="M62.9576 48.4899C62.9511 48.4738 62.9656 48.448 62.9992 48.4102C63.0051 48.4254 62.9919 48.4528 62.9576 48.4899Z" fill="#00100B"/>
<path d="M62.8856 48.5821C62.8789 48.5662 62.8921 48.5392 62.9258 48.5015C62.9327 48.5176 62.9191 48.5443 62.8856 48.5821Z" fill="#00100B"/>
<path d="M21.3968 16.1658C21.3319 16.5103 21.267 16.8549 21.1854 17.2881C21.3708 17.175 21.4925 17.1008 21.6482 17.0264C21.6822 17.0263 21.6948 17.038 21.687 17.0638C21.6395 17.1697 21.5999 17.2499 21.5639 17.3316C21.5676 17.3331 21.5659 17.3253 21.5413 17.3438C21.4477 17.4906 21.3789 17.6189 21.2688 17.8242C22.2124 17.6825 23.0679 17.5542 23.9526 17.4303C24.0205 17.4304 24.0593 17.426 24.1167 17.4255C24.1352 17.4295 24.1722 17.4213 24.1948 17.4361C24.0719 17.5314 23.9352 17.648 23.7792 17.6863C22.9639 17.8865 22.1437 18.0668 21.2913 18.2563C20.9443 18.3189 20.6315 18.3802 20.3183 18.4393C19.3002 18.6315 18.2819 18.8229 17.2636 19.0146C17.2636 19.0146 17.2476 19.0028 17.2091 19.01C17.0716 19.0431 16.9726 19.069 16.8736 19.0948C16.1519 19.3269 15.4302 19.5589 14.6766 19.76C14.6344 19.5849 14.6241 19.4408 14.6139 19.2966C15.5113 18.985 16.3927 18.6096 17.3105 18.3797C18.2198 18.152 19.1659 18.0715 20.0956 17.9252C20.4479 17.8697 20.7688 17.7721 20.8529 17.2982C20.8975 17.2023 20.9137 17.1517 20.9299 17.1011C20.9299 17.1011 20.9213 17.1034 20.9432 17.0888C20.9948 16.9872 21.0245 16.9004 21.0541 16.8136C21.0541 16.8136 21.0623 16.8057 21.0745 16.7839C21.1026 16.7247 21.1185 16.6871 21.1344 16.6496C21.1344 16.6496 21.1472 16.6394 21.1584 16.6085C21.2453 16.4403 21.321 16.303 21.3968 16.1658Z" fill="#00100B"/>
<path d="M19.5077 24.713C19.5106 24.6826 19.5134 24.6523 19.5197 24.5992C19.5232 24.5763 19.5232 24.5736 19.5422 24.5497C19.608 24.3724 19.6548 24.219 19.7016 24.0656C19.7016 24.0656 19.6943 24.0616 19.713 24.0433C19.7597 23.8918 19.7878 23.7587 19.8159 23.6255C20.0618 23.1439 20.3076 22.6622 20.5805 22.1363C20.681 22.0182 20.7545 21.9443 20.828 21.8703C21.0825 21.8183 21.3371 21.7664 21.7174 21.6887C20.8708 22.4884 20.4036 23.3988 20.0833 24.4584C20.0339 24.7532 19.9986 24.9885 19.9339 25.2412C19.8793 25.4412 19.854 25.6237 19.8257 25.8264C19.8226 25.8465 19.8108 25.8855 19.7942 25.9081C19.7286 26.1489 19.6796 26.3672 19.6306 26.5854C19.5205 26.2922 19.4963 26.0043 19.4925 25.716C19.4882 25.3818 19.5019 25.0473 19.5077 24.713Z" fill="#00100B"/>
<path d="M14.1179 20.7815C14.4214 21.2637 14.9199 21.5125 15.4106 21.6844C16.5857 22.0963 17.7893 22.4268 19.0885 22.8228C18.4213 22.717 17.8509 22.6443 17.2881 22.5334C16.2493 22.3287 15.2381 22.031 14.334 21.46C14.1224 21.3264 13.9638 21.109 13.7997 20.8993C13.9184 20.8395 14.0181 20.8105 14.1179 20.7815Z" fill="#00100B"/>
<path d="M20.7936 21.8635C20.7545 21.9444 20.6811 22.0183 20.5864 22.1078C18.8874 22.0811 17.2646 21.7919 15.738 21.062C17.3542 21.6956 19.0695 21.6963 20.7936 21.8635Z" fill="#00100B"/>
<path d="M22.4347 20.157C22.4347 20.157 22.4265 20.1367 22.4181 20.1288C22.2379 20.074 22.066 20.027 21.9456 19.9626C22.7607 19.8839 23.5276 19.8489 24.287 19.7541C25.0812 19.655 25.8683 19.4984 26.6585 19.367C26.6585 19.367 26.6478 19.3867 26.6949 19.3931C26.8624 19.3792 26.9828 19.3589 27.1032 19.3386C27.252 19.355 27.4008 19.3714 27.5264 19.363C27.4731 19.3652 27.4466 19.4098 27.4124 19.4169C25.8885 19.7326 24.3654 20.0532 22.7977 20.0577C22.6766 20.058 22.5557 20.1224 22.4347 20.157Z" fill="#00100B"/>
<path d="M19.1955 19.0183C19.4406 18.9455 19.7216 18.8499 20.0104 18.8023C20.5557 18.7126 21.1056 18.6506 21.714 18.5621C21.8509 18.5434 21.9274 18.5396 22.0227 18.5547C22.2444 18.7845 22.0661 18.8107 21.9088 18.8491C21.7462 18.8888 21.5842 18.9308 21.422 18.9718C20.6929 18.9869 19.9639 19.0021 19.1955 19.0183Z" fill="#00100B"/>
<path d="M14.1123 20.7471C14.0184 20.8105 13.9187 20.8395 13.7875 20.8717C13.4957 20.4592 13.6621 20.107 13.9489 19.8012C14.1246 19.6138 14.3515 19.4743 14.5843 19.3049C14.6235 19.4407 14.6337 19.5848 14.6475 19.7721C14.6437 19.8393 14.6277 19.8537 14.5674 19.8707C14.512 19.9032 14.4923 19.9236 14.4726 19.944C14.3505 20.2002 14.2284 20.4564 14.1123 20.7471Z" fill="#00100B"/>
<path d="M21.4553 18.9784C21.584 18.931 21.746 18.889 21.9086 18.8493C22.0659 18.8109 22.2442 18.7847 22.0437 18.5483C22.06 18.5173 22.0737 18.5118 22.1225 18.51C22.4962 18.4874 22.835 18.4611 23.1738 18.4348C23.0797 18.514 22.9855 18.5932 22.9072 18.6592C23.0943 18.702 23.3178 18.7532 23.565 18.8238C22.8888 18.8904 22.1888 18.9376 21.4553 18.9784Z" fill="#00100B"/>
<path d="M27.0676 18.487C27.2231 18.4075 27.4093 18.2799 27.6101 18.2498C28.2004 18.1613 28.7965 18.1115 29.4171 18.0649C28.6643 18.2167 27.8847 18.3501 27.0676 18.487Z" fill="#00100B"/>
<path d="M21.6817 15.6597C21.6849 15.6044 21.714 15.5394 21.7482 15.4479C21.7532 15.4213 21.7731 15.4118 21.7716 15.4009C21.8223 15.3413 21.8744 15.2926 21.9547 15.2456C21.8912 15.3815 21.7994 15.5157 21.6817 15.6597Z" fill="#00100B"/>
<path d="M23.7939 18.835C23.9384 18.7951 24.1157 18.759 24.317 18.7419C24.1696 18.7869 23.9981 18.8129 23.7939 18.835Z" fill="#00100B"/>
<path d="M13.5745 21.477C13.5503 21.4661 13.5372 21.4447 13.5241 21.4233C13.5446 21.4378 13.5651 21.4522 13.5745 21.477Z" fill="#00100B"/>
<path d="M14.4945 19.938C14.4924 19.923 14.5118 19.9029 14.5501 19.873C14.5513 19.8865 14.5337 19.9097 14.4945 19.938Z" fill="#00100B"/>
<path d="M38.7552 13.7765C39.3765 14.0827 39.7774 14.5289 39.7477 15.2968C39.6539 15.3573 39.5527 15.3834 39.4291 15.3801C39.3307 14.7345 38.9817 14.3224 38.396 14.176C37.4016 13.9274 36.4533 13.5904 35.594 12.9706C35.5426 12.9326 35.5077 12.9181 35.4741 12.9071C35.4755 12.9108 35.4827 12.9078 35.4688 12.884C35.3561 12.813 35.2573 12.7658 35.1574 12.7223C35.1563 12.726 35.1638 12.7243 35.1479 12.7037C35.0837 12.6624 35.0355 12.6417 34.9876 12.6281C34.988 12.6352 35.0016 12.6314 34.9814 12.6106C34.7431 12.499 34.525 12.4081 34.3057 12.3206C34.3046 12.3238 34.3108 12.3209 34.2994 12.298C34.2418 12.254 34.1956 12.2329 34.1491 12.2168C34.1488 12.2218 34.1587 12.2198 34.1385 12.1982C34.0407 12.1652 33.9631 12.1538 33.8861 12.1476C33.8868 12.1529 33.8972 12.1508 33.8838 12.1262C33.819 12.0947 33.7676 12.0876 33.698 12.0788C33.6798 12.077 33.6434 12.0733 33.6332 12.0479C33.5114 11.9686 33.3997 11.9146 33.2712 11.8349C33.1773 11.8009 33.1002 11.7926 33.0207 11.7878C33.0184 11.7913 33.01 11.7898 33.0017 11.7606C32.4553 11.4748 31.9021 11.2945 31.2591 11.3942C30.9678 11.3659 30.7107 11.335 30.4525 11.2755C30.4416 11.1462 30.4317 11.0456 30.4295 11.0231C30.6938 10.9205 30.908 10.8373 31.1562 10.751C31.6673 10.8374 32.1446 10.9271 32.6407 11.035C32.7274 11.0691 32.7954 11.0848 32.8633 11.1006C32.8633 11.1006 32.8665 11.0928 32.8837 11.1128C32.9744 11.1499 33.0479 11.1671 33.1214 11.1842C33.1214 11.1842 33.1209 11.1734 33.1382 11.1957C34.2078 11.5151 35.1611 12.0243 36.1055 12.611C36.1564 12.6475 36.1905 12.6617 36.2238 12.6717C36.2228 12.6677 36.215 12.6702 36.2267 12.6925C36.2831 12.7378 36.3277 12.7608 36.3732 12.7771C36.3742 12.7703 36.3606 12.7716 36.373 12.7915C36.4136 12.8239 36.4418 12.8364 36.4696 12.8448C36.4692 12.8405 36.461 12.8427 36.477 12.867C37.1925 13.1647 37.892 13.4381 38.5916 13.7115C38.5916 13.7115 38.6027 13.7285 38.63 13.7383C38.6834 13.7597 38.7105 13.7639 38.7388 13.7605C38.7388 13.7605 38.7459 13.7781 38.7552 13.7765Z" fill="#00100B"/>
<path d="M31.122 10.754C30.9077 10.8371 30.6934 10.9203 30.4292 11.0228C30.4314 11.0454 30.4412 11.146 30.4193 11.2797C30.2998 11.3116 30.2119 11.3104 30.0944 11.2919C29.2741 11.3431 28.4833 11.4118 27.6926 11.4804C27.8138 11.3841 27.935 11.2878 28.0562 11.1915C28.0534 11.1574 28.0505 11.1233 28.0477 11.0893C27.6378 11.1339 27.2279 11.1786 26.7794 11.2149C26.9031 11.1475 27.0655 11.0884 27.2507 11.0113C27.3197 10.9899 27.3659 10.9866 27.4683 10.9685C28.7099 10.6406 29.909 10.5731 31.122 10.754Z" fill="#00100B"/>
<path d="M25.946 39.7758C25.9997 39.6303 26.0533 39.4848 26.128 39.2859C26.1951 39.0303 26.2412 38.8283 26.3025 38.5594C26.0623 38.6773 25.9033 38.7553 25.7443 38.8334C25.7443 38.8334 25.7521 38.8358 25.7211 38.8392C25.3534 38.9857 25.0166 39.1288 24.6834 39.2447C24.867 38.8994 24.5291 38.9325 24.4328 38.7957C24.5939 38.7046 24.7363 38.6325 24.8787 38.5605C24.8787 38.5605 24.8793 38.5649 24.9099 38.5553C25.6164 38.2209 26.2922 37.8959 26.968 37.5709C26.968 37.5709 26.988 37.5704 27.0117 37.5483C27.0998 37.4567 27.1643 37.3872 27.2288 37.3177C27.2288 37.3177 27.2391 37.3139 27.2562 37.2945C27.2896 37.252 27.3005 37.2266 27.3061 37.1989C27.3061 37.1989 27.2928 37.197 27.3135 37.192C27.3465 37.1588 27.3588 37.1306 27.3711 37.1024C27.4585 36.8879 27.546 36.6733 27.6916 36.439C27.8116 36.3575 27.9246 36.2977 27.9271 36.2336C27.9432 35.8149 27.9353 35.3953 27.9353 34.9584C27.8899 34.9973 27.841 35.0391 27.7922 35.0809C27.7138 35.0887 27.6354 35.0964 27.4927 35.0987C27.3219 35.1428 27.2152 35.1924 27.1086 35.242C27.0409 35.2717 26.9732 35.3015 26.853 35.3097C26.6516 35.2799 26.5027 35.2717 26.3538 35.2635C26.3425 35.2028 26.3514 35.1091 26.3161 35.0875C26.2052 35.0196 26.0777 34.9789 25.9648 34.8875C26.1819 34.7858 26.3909 34.7241 26.6256 34.6659C26.6942 34.6488 26.7372 34.6282 26.8121 34.6019C27.0798 34.5187 27.3155 34.4411 27.5451 34.3637C27.5391 34.3638 27.5423 34.3755 27.5697 34.368C27.6627 34.3288 27.7283 34.2971 27.79 34.2643C27.7861 34.2633 27.7857 34.2713 27.8148 34.2665C27.9661 34.2059 28.0884 34.1502 28.2057 34.0929C28.2007 34.0914 28.1987 34.1016 28.2213 34.0977C28.2671 34.0748 28.2903 34.0559 28.3115 34.0425C28.3095 34.048 28.3208 34.0513 28.3416 34.0431C28.4008 34.0121 28.4391 33.9893 28.4769 33.9576C28.4765 33.9487 28.4824 33.9655 28.506 33.9552C28.586 33.9088 28.6424 33.8727 28.7285 33.8347C29.0751 33.6194 29.3921 33.406 29.7295 33.184C29.7777 33.1656 29.8054 33.1557 29.8629 33.1436C29.9329 33.0834 29.9732 33.0254 30.0145 32.9736C30.0154 32.9797 30.0029 32.9793 30.0333 32.9737C30.1725 32.9544 30.2812 32.9407 30.4205 32.9231C30.3372 33.1383 30.2771 33.2937 30.1963 33.468C29.6339 33.8288 29.0994 34.1831 28.5467 34.5062C28.3586 34.6162 28.2679 34.7109 28.2686 34.946C28.2699 35.4156 28.2685 35.8952 28.178 36.3528C28.0486 37.0067 27.9719 37.7321 27.2246 38.0333C26.9804 38.1317 26.9184 38.2912 26.8549 38.5114C26.6831 39.1067 26.4842 39.6942 26.2701 40.299C26.0228 40.4929 26.1313 40.9692 25.6798 40.909C25.6924 40.7904 25.7044 40.7042 25.7164 40.618C25.7164 40.618 25.7021 40.6187 25.7244 40.6024C25.7923 40.4029 25.8379 40.2197 25.8836 40.0364C25.8836 40.0364 25.8716 40.0361 25.893 40.021C25.9249 39.9291 25.9355 39.8524 25.946 39.7758Z" fill="#00100B"/>
<path d="M24.4153 38.8149C24.5304 38.9328 24.8682 38.8997 24.6843 39.2441C24.6804 39.2705 24.6819 39.2719 24.652 39.2731C24.5618 39.3168 24.5016 39.3594 24.4299 39.4152C24.3849 39.4367 24.3515 39.445 24.2871 39.4536C24.2065 39.4862 24.1569 39.5185 24.1079 39.5481C24.1085 39.5455 24.11 39.5509 24.0796 39.5453C23.8973 39.6176 23.7454 39.6955 23.5935 39.7734C22.3705 40.5909 21.1158 41.3686 20.1117 42.5421C20.0472 42.5943 20.0282 42.6213 20.0091 42.6483C20.0091 42.6483 20.0093 42.6326 19.9952 42.644C19.9657 42.6826 19.9503 42.71 19.9349 42.7374C19.9349 42.7374 19.9338 42.7218 19.9209 42.7317C19.9003 42.7686 19.8926 42.7956 19.8849 42.8226C19.8849 42.8226 19.8835 42.8329 19.8531 42.837C19.801 42.8845 19.7794 42.9279 19.7577 42.9712C19.7577 42.9712 19.7551 42.9617 19.7402 42.974C19.7127 43.0144 19.7002 43.0426 19.6876 43.0708C19.6876 43.0708 19.6869 43.0597 19.6626 43.0663C19.6011 43.1539 19.5638 43.2349 19.5265 43.3159C19.5265 43.3159 19.5225 43.3074 19.5017 43.3182C19.461 43.376 19.4411 43.423 19.4213 43.47C19.4213 43.47 19.4196 43.4629 19.4034 43.4748C19.372 43.5131 19.3568 43.5395 19.3416 43.566C19.3416 43.566 19.3417 43.5558 19.3336 43.5586C19.3255 43.5614 19.3031 43.5867 19.3031 43.5867L19.3194 43.6194C19.2953 43.6617 19.2712 43.704 19.2091 43.7778C19.1473 43.8945 19.1234 43.9798 19.0996 44.0651C19.0996 44.0651 19.0951 44.0529 19.0752 44.0703C19.0392 44.1478 19.023 44.2079 19.0068 44.2679C18.9977 44.3244 18.9885 44.3809 18.9643 44.4532C18.8364 44.6762 18.7234 44.8834 18.6104 45.0907C18.5725 45.088 18.5345 45.0853 18.4966 45.0826C18.5215 44.8616 18.5279 44.6364 18.5761 44.4206C18.6384 44.1418 18.7341 43.8705 18.8128 43.5618C18.81 43.5277 18.8129 43.5332 18.8302 43.5192C18.8666 43.4605 18.8855 43.4158 18.9045 43.371C18.9326 43.3069 18.9606 43.2427 18.9927 43.1522C19.0276 43.0914 19.0587 43.057 19.0959 42.9996C19.2344 42.8265 19.3667 42.6765 19.5109 42.5016C19.5514 42.4721 19.5738 42.4575 19.5968 42.4139C19.7954 42.1927 19.9867 41.9907 20.1926 41.765C20.2072 41.7413 20.2072 41.739 20.2321 41.7262C20.3981 41.573 20.5393 41.4326 20.6804 41.2922C20.6804 41.2922 20.6737 41.2905 20.6948 41.2843C20.7219 41.2509 20.7279 41.2237 20.734 41.1964C21.0002 40.9742 21.2665 40.7521 21.586 40.5104C21.8561 40.3316 22.0728 40.1723 22.2896 40.013C22.2896 40.013 22.316 40.0098 22.3443 39.9831C22.8641 39.6724 23.3556 39.3882 23.877 39.1039C23.9973 39.0506 24.0876 38.9974 24.1954 38.9228C24.2804 38.8726 24.3478 38.8438 24.4153 38.8149Z" fill="#00100B"/>
<path d="M26.3337 35.2802C26.5035 35.2718 26.6524 35.28 26.826 35.3076C26.2151 35.4426 25.5798 35.5595 24.9439 35.6734C24.769 35.7047 24.5926 35.7274 24.3817 35.7488C24.4869 35.6906 24.6235 35.6213 24.7684 35.5883C25.0947 35.514 25.4251 35.4577 25.7859 35.3647C25.8599 35.3098 25.9019 35.2844 25.9439 35.259C26.0669 35.2716 26.1898 35.2842 26.3337 35.2802Z" fill="#00100B"/>
<path d="M27.7987 35.1196C27.8419 35.0392 27.8908 34.9974 27.9362 34.9585C27.9362 35.3955 27.944 35.8151 27.9279 36.2337C27.9255 36.2978 27.8125 36.3576 27.7164 36.4214C27.7229 36.0016 27.7636 35.5799 27.7987 35.1196Z" fill="#00100B"/>
<path d="M21.1239 35.6835C21.2867 35.6558 21.4861 35.5938 21.6823 35.6027C21.9967 35.6169 22.3091 35.678 22.6478 35.7423C22.1685 35.7372 21.6638 35.7092 21.1239 35.6835Z" fill="#00100B"/>
<path d="M22.8737 35.7818C23.263 35.7501 23.6905 35.7275 24.1461 35.7246C23.7535 35.7598 23.3328 35.7754 22.8737 35.7818Z" fill="#00100B"/>
<path d="M27.1389 35.239C27.2154 35.1925 27.3221 35.1429 27.4633 35.0959C27.3882 35.1444 27.2786 35.1901 27.1389 35.239Z" fill="#00100B"/>
<path d="M42.1725 15.7839C41.4136 15.8388 40.6281 15.865 39.805 15.8934C39.9639 15.8332 40.1596 15.7208 40.3572 15.7175C40.953 15.7073 41.5496 15.7395 42.1725 15.7839Z" fill="#00100B"/>
<path d="M36.3645 16.5596C35.9405 16.6963 35.4911 16.8152 35.0078 16.9359C35.429 16.8057 35.8841 16.6737 36.3645 16.5596Z" fill="#00100B"/>
<path d="M39.7185 15.856C39.5491 15.9068 39.3433 15.9525 39.1051 15.9971C39.2759 15.9476 39.479 15.8993 39.7185 15.856Z" fill="#00100B"/>
<path d="M34.5688 17.0188C34.4085 17.0801 34.2106 17.14 33.9761 17.2074C34.1367 17.149 34.3339 17.0832 34.5688 17.0188Z" fill="#00100B"/>
<path d="M34.9505 16.9343C34.8875 16.9617 34.7932 16.989 34.6684 17.0162C34.7317 16.9888 34.8255 16.9616 34.9505 16.9343Z" fill="#00100B"/>
<path d="M36.7068 16.4814C36.6662 16.5078 36.6064 16.518 36.5167 16.5337C36.5537 16.5146 36.6206 16.49 36.7068 16.4814Z" fill="#00100B"/>
<path d="M41.4997 22.263C41.4976 22.2486 41.5146 22.226 41.5531 22.199C41.556 22.2146 41.5374 22.2347 41.4997 22.263Z" fill="#00100B"/>
<path d="M23.3341 18.4028C23.3381 18.3862 23.3529 18.3821 23.3903 18.3813C23.3903 18.395 23.3675 18.4052 23.3341 18.4028Z" fill="#00100B"/>
<path d="M28.6186 33.1649C27.9548 33.3855 27.295 33.6195 26.626 33.823C25.9118 34.0402 25.1889 34.2286 24.4124 34.4561C23.9821 34.5914 23.609 34.7 23.2359 34.8087C23.2359 34.8087 23.242 34.7913 23.2046 34.7934C23.0568 34.8311 22.9464 34.8668 22.8256 34.8947C22.7877 34.8804 22.7674 34.891 22.7322 34.9366C22.587 35.0011 22.4641 35.0479 22.3412 35.0948C22.0463 35.0649 21.7515 35.035 21.4436 34.9753C22.0377 34.7131 22.6449 34.4808 23.2521 34.2485C23.3019 34.2414 23.3517 34.2344 23.4456 34.2061C23.5528 34.1241 23.616 34.0632 23.6791 34.0024C24.027 33.9386 24.375 33.8749 24.7778 33.7841C24.9382 33.7275 25.0442 33.6997 25.1492 33.6681C25.8889 33.4456 26.6284 33.2223 27.368 32.9992C27.368 32.9992 27.4045 32.9968 27.4509 33.0046C27.5654 32.9814 27.6334 32.9504 27.7014 32.9195C27.7014 32.9195 27.6952 32.9182 27.7269 32.9196C27.8518 32.8931 27.9451 32.8652 28.0383 32.8372C28.0383 32.8372 28.0302 32.8328 28.0643 32.8347C28.3055 32.7571 28.5126 32.6777 28.7198 32.5983C28.7198 32.5983 28.7098 32.5968 28.735 32.5953C28.7928 32.5842 28.8254 32.5744 28.8645 32.5927C28.926 32.7198 28.9809 32.8189 29.0358 32.918C29.0358 32.918 29.031 32.9109 29.0086 32.917C28.9483 32.9537 28.9102 32.9843 28.8722 33.0149C28.8722 33.0149 28.8715 33.0081 28.8483 33.0094C28.7873 33.0436 28.7496 33.0766 28.7118 33.1096C28.7118 33.1096 28.7108 33.1013 28.6968 33.0982C28.6614 33.1184 28.64 33.1417 28.6186 33.1649Z" fill="#00100B"/>
<path d="M10.8845 37.2444C11.2971 37.2869 11.7224 37.3552 12.2123 37.427C12.4223 37.4485 12.5675 37.4664 12.7127 37.4844C12.7501 37.4931 12.7875 37.5019 12.8528 37.5183C12.5875 37.5214 12.2903 37.5452 12.0019 37.5051C11.63 37.4535 11.2651 37.3509 10.8845 37.2444Z" fill="#00100B"/>
<path d="M10.5428 37.1526C10.5801 37.1437 10.6231 37.154 10.6844 37.1771C10.6513 37.1839 10.5999 37.1778 10.5428 37.1526Z" fill="#00100B"/>
<path d="M10.5103 37.4124C10.4868 37.4001 10.4769 37.3847 10.4669 37.3693C10.4787 37.3662 10.498 37.3573 10.5009 37.361C10.5115 37.3748 10.5167 37.3928 10.5103 37.4124Z" fill="#00100B"/>
<path d="M21.4225 35.2207C21.4379 35.2025 21.4599 35.1949 21.4825 35.1914C21.486 35.1909 21.4924 35.2096 21.4974 35.2194C21.4747 35.2238 21.452 35.2282 21.4225 35.2207Z" fill="#00100B"/>
<path d="M25.9186 35.2607C25.9022 35.2844 25.8602 35.3097 25.7936 35.3392C25.8103 35.3164 25.8516 35.2895 25.9186 35.2607Z" fill="#00100B"/>
<path d="M58.2004 41.4095C56.9122 41.6829 55.5891 41.8069 54.2294 41.6594C55.2706 41.5682 56.3325 41.5059 57.3944 41.4427C57.6544 41.4272 57.9142 41.4085 58.2004 41.4095Z" fill="#00100B"/>
<path d="M41.125 36.6478C41.2516 36.6405 41.3829 36.66 41.547 36.6869C41.4298 36.6877 41.2798 36.6811 41.125 36.6478Z" fill="#00100B"/>
<path d="M58.9169 41.2021C58.8708 41.2286 58.791 41.2542 58.6787 41.2856C58.7253 41.2614 58.8043 41.2314 58.9169 41.2021Z" fill="#00100B"/>
<path d="M19.5774 28.0737C19.8329 27.9836 20.0883 27.8935 20.3574 27.8262C20.2987 27.8942 20.2264 27.9394 20.2361 27.9333C20.5315 28.0876 20.8394 28.2484 21.117 28.4021C20.4574 27.9932 19.8809 28.1988 19.356 28.5909C18.5774 29.1724 17.8246 29.7885 17.0398 30.3928C16.9739 30.4292 16.9289 30.4629 16.8671 30.4999C16.8502 30.5033 16.8337 30.5336 16.8129 30.5473C16.6857 30.6417 16.5793 30.7226 16.4459 30.8113C16.3921 30.8438 16.3653 30.8685 16.3296 30.8906C16.3206 30.8879 16.3127 30.9049 16.2902 30.9074C16.2488 30.9317 16.23 30.9536 16.2105 30.9768C16.2099 30.9781 16.2076 30.976 16.1853 30.9809C16.129 31.0148 16.095 31.0438 16.061 31.0728C15.254 31.4948 14.447 31.9169 13.6107 32.3464C13.5331 32.2713 13.4847 32.1888 13.4224 32.0714C13.4158 32.0241 13.4231 32.0116 13.4402 32.0054C13.4501 32.0117 13.466 31.9945 13.4958 31.9938C13.682 31.916 13.8384 31.8389 13.9909 31.7614C13.987 31.7611 13.989 31.7687 14.0071 31.7645C14.0251 31.7604 14.0539 31.7371 14.084 31.7344C14.7366 31.4035 15.3592 31.0753 16.0047 30.7449C16.0585 30.7123 16.0892 30.6819 16.1347 30.6328C16.1759 30.597 16.2022 30.5801 16.2573 30.5697C16.4154 30.4931 16.5446 30.4101 16.6896 30.3249C16.7269 30.3142 16.7405 30.2988 16.7743 30.2656C17.5967 29.6351 18.3912 29.0153 19.2157 28.3951C19.3563 28.2876 19.4669 28.1806 19.5774 28.0737Z" fill="#00100B"/>
<path d="M16.7626 29.1303C16.8778 29.0408 16.9743 28.9679 17.0881 28.8755C17.2118 28.7615 17.3181 28.6671 17.4426 28.553C17.5083 28.4898 17.5558 28.4464 17.6458 28.4177C17.7542 28.5403 17.8202 28.648 17.8713 28.7766C17.8172 28.8303 17.7782 28.8631 17.711 28.9029C17.3758 29.1296 17.0689 29.3493 16.7399 29.5751C16.6935 29.5996 16.6692 29.6179 16.623 29.642C16.5875 29.6544 16.5738 29.6609 16.5602 29.6674C16.5577 29.5923 16.5552 29.5172 16.5508 29.4046C16.6139 29.2937 16.6789 29.2203 16.7626 29.1303Z" fill="#00100B"/>
<path d="M16.2353 29.5166C16.2676 29.4643 16.306 29.4346 16.3691 29.4048C16.343 29.4495 16.2922 29.4943 16.2353 29.5166Z" fill="#00100B"/>
<path d="M16.4878 29.7246C16.4413 29.7774 16.3657 29.8326 16.2625 29.8942C16.3095 29.8427 16.3842 29.7849 16.4878 29.7246Z" fill="#00100B"/>
<path d="M13.558 32.356C13.5576 32.3716 13.5363 32.3905 13.4931 32.4096C13.4932 32.393 13.5151 32.3761 13.558 32.356Z" fill="#00100B"/>
<path d="M21.9184 16.5948C21.9852 16.4098 22.052 16.2248 22.1562 16.0344C22.1936 16.029 22.216 16.0473 22.208 16.0723C22.1742 16.1622 22.1484 16.2271 22.1226 16.2921C22.1226 16.2921 22.1143 16.2997 22.1002 16.3255C22.0349 16.4365 21.9837 16.5216 21.9291 16.6037C21.9256 16.6007 21.9184 16.5948 21.9184 16.5948Z" fill="#00100B"/>
<path d="M21.6756 17.0205C21.7336 16.8793 21.7978 16.7439 21.8903 16.6017C21.9186 16.5948 21.9257 16.6007 21.9258 16.6315C21.8896 16.7474 21.8532 16.8325 21.8169 16.9175C21.8169 16.9175 21.8243 16.9181 21.8039 16.928C21.7538 16.9713 21.7241 17.0047 21.6945 17.0381C21.6945 17.0381 21.6819 17.0264 21.6756 17.0205Z" fill="#00100B"/>
<path d="M25.7636 11.6478C25.7692 11.6181 25.809 11.5906 25.8662 11.5452C25.9364 11.5114 25.9893 11.4956 26.0692 11.4744C25.9968 11.5293 25.8974 11.5896 25.7636 11.6478Z" fill="#00100B"/>
<path d="M23.4212 14.181C23.4507 14.1784 23.4423 14.2164 23.4396 14.2357C23.4369 14.2549 23.4276 14.2559 23.4056 14.272C23.3188 14.3651 23.2542 14.4421 23.1858 14.5159C23.1821 14.5126 23.1742 14.5067 23.1742 14.5067C23.2467 14.3991 23.3192 14.2914 23.4212 14.181Z" fill="#00100B"/>
<path d="M26.2839 11.4159C26.3439 11.3575 26.4221 11.3173 26.527 11.2737C26.4698 11.3249 26.386 11.3795 26.2839 11.4159Z" fill="#00100B"/>
<path d="M22.9177 14.8589C22.9396 14.8773 22.9307 14.9028 22.8925 14.9614C22.8114 15.0629 22.7559 15.1301 22.6941 15.1923C22.6879 15.1872 22.675 15.1776 22.675 15.1776C22.7468 15.0741 22.8186 14.9707 22.9177 14.8589Z" fill="#00100B"/>
<path d="M21.4174 16.1536C21.4121 16.1202 21.4283 16.0716 21.4655 16.0076C21.4705 16.0409 21.4547 16.0897 21.4174 16.1536Z" fill="#00100B"/>
<path d="M22.1819 16.02C22.1861 15.9656 22.2016 15.9203 22.2492 15.8706C22.2815 15.8663 22.3096 15.8899 22.3027 15.9121C22.269 15.9721 22.2422 16.0097 22.2154 16.0474C22.2154 16.0474 22.193 16.0292 22.1819 16.02Z" fill="#00100B"/>
<path d="M22.2681 15.8541C22.2699 15.7972 22.2857 15.7522 22.3341 15.7047C22.3667 15.7024 22.3959 15.7299 22.389 15.7516C22.3582 15.8121 22.3342 15.8508 22.3103 15.8895C22.3103 15.8895 22.2822 15.8659 22.2681 15.8541Z" fill="#00100B"/>
<path d="M22.4228 15.5954C22.4385 15.5494 22.4542 15.5035 22.499 15.4503C22.5282 15.4432 22.5493 15.4609 22.5405 15.4833C22.5023 15.5416 22.4729 15.5775 22.4385 15.6087C22.4334 15.6041 22.4228 15.5954 22.4228 15.5954Z" fill="#00100B"/>
<path d="M26.6003 11.2754C26.6166 11.2469 26.659 11.2273 26.7245 11.2031C26.7072 11.2271 26.6669 11.2558 26.6003 11.2754Z" fill="#00100B"/>
<path d="M23.076 14.749C23.076 14.749 23.0432 14.7523 23.0276 14.7576C23.0264 14.7155 23.0407 14.6681 23.0796 14.6098C23.1041 14.599 23.1158 14.6104 23.1102 14.6338C23.0951 14.6878 23.0855 14.7184 23.076 14.749Z" fill="#00100B"/>
<path d="M22.5887 15.3429C22.6048 15.2976 22.6208 15.2523 22.6563 15.1922C22.6757 15.1774 22.6886 15.187 22.6887 15.2155C22.6592 15.2795 22.6296 15.3152 22.5973 15.3487C22.5946 15.3465 22.5887 15.3429 22.5887 15.3429Z" fill="#00100B"/>
<path d="M21.5017 15.9849C21.4965 15.9502 21.5133 15.8991 21.5519 15.832C21.5571 15.8669 21.5403 15.9177 21.5017 15.9849Z" fill="#00100B"/>
<path d="M27.5986 11.4933C27.6048 11.5196 27.5871 11.5435 27.5474 11.5612C27.5255 11.555 27.5244 11.5234 27.5247 11.5068C27.525 11.4901 27.5266 11.488 27.5266 11.488C27.5426 11.489 27.5586 11.4899 27.5986 11.4933Z" fill="#00100B"/>
<path d="M27.5244 11.4912C27.5234 11.4921 27.4966 11.4724 27.4966 11.4724C27.4966 11.4724 27.5187 11.4728 27.5229 11.4806C27.527 11.4883 27.5254 11.4904 27.5244 11.4912Z" fill="#00100B"/>
<path d="M22.5184 15.4347C22.5181 15.4007 22.5337 15.3799 22.5719 15.3533C22.5889 15.3434 22.5947 15.3471 22.5944 15.3698C22.5883 15.4212 22.5736 15.4442 22.55 15.4615C22.55 15.4615 22.5289 15.4437 22.5184 15.4347Z" fill="#00100B"/>
<path d="M21.6133 15.7414C21.5934 15.7251 21.6017 15.7005 21.6431 15.6716C21.6532 15.6861 21.6415 15.708 21.6133 15.7414Z" fill="#00100B"/>
<path d="M22.3518 15.6887C22.3492 15.6506 22.366 15.6303 22.4052 15.6049C22.4229 15.5957 22.4335 15.6044 22.4345 15.6299C22.4222 15.6803 22.4088 15.7052 22.3955 15.73C22.3955 15.73 22.3664 15.7025 22.3518 15.6887Z" fill="#00100B"/>
<path d="M22.997 14.7698C23.0023 14.7841 22.9893 14.8117 22.9557 14.8499C22.9496 14.8347 22.9642 14.8088 22.997 14.7698Z" fill="#00100B"/>
<path d="M23.0987 14.5928C23.1031 14.5619 23.1188 14.5412 23.1576 14.5156C23.175 14.5064 23.1829 14.5123 23.1816 14.5361C23.1589 14.5766 23.1375 14.5934 23.116 14.6101C23.116 14.6101 23.1044 14.5988 23.0987 14.5928Z" fill="#00100B"/>
<path d="M40.2222 34.1482C40.1794 34.2275 40.1163 34.2903 40.0291 34.3657C40.0706 34.296 40.1363 34.2138 40.2222 34.1482Z" fill="#00100B"/>
<path d="M42.2798 28.368C42.2579 28.3778 42.2534 28.3641 42.242 28.33C42.2427 28.1937 42.2503 28.0777 42.2656 27.9277C42.2813 28.0439 42.2892 28.1942 42.2798 28.368Z" fill="#00100B"/>
<path d="M39.7322 34.5962C39.716 34.6432 39.672 34.6934 39.6044 34.7533C39.6219 34.7084 39.6632 34.6539 39.7322 34.5962Z" fill="#00100B"/>
<path d="M39.5612 34.1629C39.5814 34.1143 39.6322 34.0612 39.7084 33.9971C39.6866 34.0435 39.6392 34.101 39.5612 34.1629Z" fill="#00100B"/>
<path d="M39.933 34.438C39.9335 34.4533 39.9089 34.4797 39.8594 34.5173C39.8589 34.5021 39.8834 34.4756 39.933 34.438Z" fill="#00100B"/>
<path d="M39.7462 33.9807C39.7269 33.9941 39.7352 33.9543 39.7375 33.9341C39.7399 33.914 39.7769 33.8983 39.7964 33.8936C39.7992 33.915 39.7824 33.9412 39.7462 33.9807Z" fill="#00100B"/>
<path d="M42.3955 25.1052C42.4568 25.5047 42.4991 25.8789 42.5216 26.2772C42.4131 26.1388 42.2821 25.9856 42.2439 25.8119C42.1362 25.3223 42.0665 24.8242 41.9819 24.3295C42.0337 24.3149 42.0855 24.3003 42.1373 24.2856C42.2171 24.5504 42.2968 24.8151 42.3955 25.1052Z" fill="#00100B"/>
<path d="M37.5678 35.9222C37.5319 35.9203 37.496 35.9184 37.4336 35.8814C37.4453 35.7232 37.4835 35.6001 37.5183 35.4691C37.5148 35.4611 37.5265 35.474 37.5514 35.4639C37.6663 35.3959 37.7563 35.338 37.8413 35.2803C37.8365 35.2804 37.8439 35.2868 37.87 35.2798C37.9858 35.2143 38.0755 35.1559 38.1651 35.0975C38.1651 35.0975 38.1575 35.0926 38.1854 35.0921C38.3045 35.0394 38.3957 34.9871 38.4869 34.9348C38.4865 35.0462 38.4862 35.1575 38.4703 35.3247C38.3226 35.4729 38.1903 35.5653 38.0593 35.6593C38.0605 35.6608 38.0568 35.6599 38.0382 35.6621C37.9945 35.6703 37.9738 35.6833 37.9574 35.7033C37.9574 35.7033 37.9539 35.7055 37.9272 35.7158C37.8421 35.7626 37.7837 35.7991 37.7253 35.8357C37.7253 35.8357 37.7301 35.8389 37.7061 35.8393C37.644 35.8672 37.6059 35.8947 37.5678 35.9222Z" fill="#00100B"/>
<path d="M38.9878 36.3421L38.9716 36.3686C38.9716 36.3686 38.9728 36.3493 38.9802 36.3456C38.9876 36.3419 38.9878 36.3421 38.9878 36.3421Z" fill="#00100B"/>
<path d="M17.8865 28.7558C17.8204 28.6481 17.7544 28.5403 17.6697 28.4128C17.9529 28.1064 18.2547 27.8198 18.5688 27.5081C19.0321 27.2137 19.191 26.8434 19.1843 26.2968C19.1781 25.7907 19.3761 25.2821 19.4959 24.7439C19.5019 25.0476 19.4883 25.382 19.4926 25.7163C19.4964 26.0045 19.5205 26.2925 19.6307 26.5856C19.6797 26.3674 19.7287 26.1492 19.7943 25.9083C19.8109 26.1294 19.8109 26.3732 19.8109 26.6452C20.6258 26.449 21.4163 26.509 22.1359 26.941C21.677 26.9315 21.2468 26.8908 20.8166 26.8502C20.8105 26.8707 20.8044 26.8912 20.7982 26.9117C20.9203 26.9892 21.0423 27.0666 21.1254 27.1449C20.5257 27.1018 19.9608 27.0359 19.457 27.4538C18.9141 27.8919 18.4003 28.3238 17.8865 28.7558ZM19.3431 26.5351C19.3159 26.5428 19.2887 26.5505 19.2616 26.5581C19.2756 26.5816 19.2896 26.6051 19.3036 26.6286C19.3168 26.6085 19.3299 26.5885 19.3431 26.5351Z" fill="#00100B"/>
<path d="M24.5967 44.4687C24.9218 43.7346 25.4614 43.1988 26.1531 42.8122C26.4516 42.6453 26.7664 42.5076 27.1261 42.3308C27.8494 42.1284 28.5203 41.9518 29.1913 41.7751C29.1009 41.8362 29.0173 41.9128 28.9191 41.9558C28.1394 42.2974 27.3047 42.548 26.5883 42.9907C25.661 43.5637 25.0726 44.4646 24.6961 45.5524C24.6061 45.7744 24.564 45.9599 24.5218 46.1455C24.5218 46.1455 24.5194 46.1389 24.4977 46.1554C24.293 46.8963 24.11 47.6208 23.9084 48.4188C23.8658 48.1799 23.8234 47.9917 23.8006 47.8013C23.774 47.5792 23.7644 47.355 23.7475 47.1317C23.7553 47.0418 23.7631 46.9519 23.8104 46.8197C23.9572 46.3087 24.0646 45.8399 24.172 45.371C24.172 45.371 24.1753 45.3759 24.1843 45.3699C24.2153 45.3425 24.215 45.32 24.1922 45.2965C24.2044 45.2515 24.2166 45.2066 24.2761 45.1399C24.4145 44.9017 24.5056 44.6852 24.5967 44.4687Z" fill="#00100B"/>
<path d="M23.7188 47.152C23.7648 47.3547 23.7744 47.5788 23.801 47.8009C23.8238 47.9914 23.8662 48.1795 23.9089 48.4184C24.1104 47.6205 24.2934 46.896 24.5015 46.1543C24.0068 48.2842 24.0484 50.4695 24.0493 52.6627C23.9593 52.2828 23.8456 51.9066 23.7856 51.522C23.7217 51.1119 23.7085 50.6938 23.6675 50.2088C23.6341 49.4728 23.6064 48.8073 23.5788 48.1417C23.6157 47.8187 23.6527 47.4956 23.7188 47.152Z" fill="#00100B"/>
<path d="M26.2708 40.2991C26.2069 40.6801 26.1171 41.0753 26.0065 41.5619C26.2839 41.4442 26.4552 41.3715 26.6564 41.2962C26.8379 41.3743 26.9894 41.4549 27.1735 41.5389C26.7701 41.7474 26.3445 41.9738 25.8509 42.1991C25.2756 42.6387 25.4325 42.5338 25.4325 42.0736C25.4392 42.0097 25.4926 41.9058 25.5078 41.776C25.5535 41.4583 25.5908 41.2066 25.6281 40.9548C25.6281 40.9548 25.6156 40.9579 25.6328 40.9565C25.6501 40.9552 25.6799 40.9415 25.6799 40.9415C26.1319 40.9693 26.0234 40.493 26.2708 40.2991Z" fill="#00100B"/>
<path d="M22.4996 42.7779C22.1405 42.9845 21.8089 43.1789 21.4772 43.3732C21.4535 43.3405 21.4298 43.3077 21.4061 43.275C21.9061 42.9218 22.4061 42.5686 22.9375 42.1931C23.0625 42.5653 22.6814 42.594 22.4996 42.7779Z" fill="#00100B"/>
<path d="M27.2303 41.5424C27.5438 41.0941 28.086 41.09 28.604 40.9526C28.1801 41.1486 27.7214 41.3425 27.2303 41.5424Z" fill="#00100B"/>
<path d="M24.1512 45.3923C24.0662 45.8397 23.9588 46.3085 23.8262 46.7888C23.9103 46.3381 24.0196 45.876 24.1512 45.3923Z" fill="#00100B"/>
<path d="M24.5724 44.4822C24.5068 44.6852 24.4157 44.9017 24.295 45.124C24.3592 44.9183 24.4531 44.707 24.5724 44.4822Z" fill="#00100B"/>
<path d="M23.6209 39.7809C23.7435 39.695 23.8954 39.6171 24.0752 39.5588C24.1031 39.5785 24.0907 39.6042 24.0907 39.6042C23.9439 39.6658 23.7971 39.7273 23.6209 39.7809Z" fill="#00100B"/>
<path d="M24.5453 46.1238C24.5653 45.9599 24.6074 45.7743 24.6762 45.5728C24.6577 45.7385 24.6126 45.9204 24.5453 46.1238Z" fill="#00100B"/>
<path d="M19.1172 44.0471C19.1224 43.9796 19.1462 43.8944 19.1974 43.8005C19.1951 43.8711 19.1654 43.9501 19.1172 44.0471Z" fill="#00100B"/>
<path d="M19.5452 43.2983C19.5632 43.2346 19.6005 43.1536 19.6674 43.0674C19.6528 43.1351 19.6086 43.2081 19.5452 43.2983Z" fill="#00100B"/>
<path d="M19.7762 42.9599C19.7783 42.9276 19.8 42.8842 19.8477 42.8396C19.8477 42.8752 19.8218 42.912 19.7762 42.9599Z" fill="#00100B"/>
<path d="M19.4426 43.4571C19.4408 43.4228 19.4607 43.3758 19.5058 43.3193C19.5088 43.3547 19.4865 43.3996 19.4426 43.4571Z" fill="#00100B"/>
<path d="M19.0278 44.2463C19.0222 44.2077 19.0384 44.1477 19.0808 44.0691C19.0879 44.1087 19.0687 44.1668 19.0278 44.2463Z" fill="#00100B"/>
<path d="M24.1832 45.3152C24.2151 45.3199 24.2155 45.3421 24.1819 45.3693C24.1713 45.3615 24.1725 45.3477 24.1832 45.3152Z" fill="#00100B"/>
<path d="M20.0308 42.6373C20.0271 42.6212 20.0461 42.5942 20.0873 42.5557C20.0908 42.5715 20.0721 42.599 20.0308 42.6373Z" fill="#00100B"/>
<path d="M19.9551 42.7264C19.9493 42.71 19.9647 42.6826 20.002 42.645C20.0079 42.6617 19.9921 42.6887 19.9551 42.7264Z" fill="#00100B"/>
<path d="M19.8982 42.8087C19.8912 42.7954 19.8989 42.7684 19.9272 42.7324C19.9427 42.7506 19.931 42.7744 19.8982 42.8087Z" fill="#00100B"/>
<path d="M19.33 43.6051C19.3189 43.6185 19.3028 43.5861 19.3028 43.5861C19.3028 43.5861 19.3249 43.5611 19.3378 43.5596C19.3507 43.5581 19.3412 43.5917 19.33 43.6051Z" fill="#00100B"/>
<path d="M19.3611 43.5547C19.3555 43.5391 19.3707 43.5126 19.4057 43.4741C19.411 43.4893 19.3965 43.5166 19.3611 43.5547Z" fill="#00100B"/>
<path d="M19.7082 43.0586C19.7003 43.0424 19.7129 43.0142 19.7452 42.9731C19.7529 42.9891 19.7408 43.0179 19.7082 43.0586Z" fill="#00100B"/>
<path d="M28.7209 40.9371C28.7234 40.9222 28.7477 40.9084 28.7939 40.8955C28.7914 40.9104 28.7671 40.9243 28.7209 40.9371Z" fill="#00100B"/>
<path d="M28.4879 41.3223C28.4833 41.3243 28.4925 41.3204 28.4879 41.3223V41.3223Z" fill="#00100B"/>
<path d="M53.1217 48.8591C53.0403 48.8855 52.9504 48.8861 52.8269 48.8829C52.8999 48.8639 53.0065 48.8486 53.1217 48.8591Z" fill="#00100B"/>
<path d="M52.5484 48.554C52.6269 48.5167 52.722 48.5005 52.8462 48.4878C52.7719 48.5192 52.6685 48.5471 52.5484 48.554Z" fill="#00100B"/>
<path d="M53.0678 48.503C53.0834 48.4783 53.1212 48.4707 53.1857 48.4522C53.2508 48.441 53.2892 48.4408 53.356 48.4457C53.2863 48.4739 53.1881 48.497 53.0678 48.503Z" fill="#00100B"/>
<path d="M53.5248 48.4597C53.5552 48.4441 53.625 48.4331 53.7084 48.4471C53.6694 48.4695 53.6168 48.4669 53.5248 48.4597Z" fill="#00100B"/>
<path d="M52.1341 48.5687C52.1388 48.5544 52.1524 48.5502 52.187 48.5506C52.2079 48.555 52.1797 48.5824 52.1797 48.5824C52.1797 48.5824 52.143 48.5788 52.1341 48.5687Z" fill="#00100B"/>
<path d="M38.1305 58.135C38.0582 58.215 37.9435 58.3489 37.8539 58.3338C37.3454 58.248 36.8429 58.1266 36.3245 57.991C36.4573 57.9805 36.6039 57.9962 36.7822 58.008C37.2425 58.0427 37.6711 58.0814 38.1305 58.135Z" fill="#00100B"/>
<path d="M28.9504 55.3027C28.9049 55.2912 28.8486 55.2577 28.7852 55.1985C28.8319 55.2088 28.8857 55.2448 28.9504 55.3027Z" fill="#00100B"/>
<path d="M29.1937 55.4804C29.1779 55.49 29.1574 55.4766 29.1278 55.4451C29.1468 55.4247 29.1702 55.4349 29.1937 55.4804Z" fill="#00100B"/>
<path d="M29.0519 55.3865C29.0361 55.392 29.0077 55.3757 28.9647 55.339C28.9798 55.3341 29.0095 55.3494 29.0519 55.3865Z" fill="#00100B"/>
<path d="M25.226 55.5445C25.2242 55.5408 25.2277 55.5483 25.226 55.5445V55.5445Z" fill="#00100B"/>
<path d="M44.319 57.8017C44.1807 57.8426 44.0193 57.882 43.8217 57.9173C43.9108 57.8837 44.036 57.854 44.1844 57.8007C44.2371 57.7847 44.2665 57.7925 44.319 57.8017Z" fill="#00100B"/>
<path d="M44.7367 57.7278C44.6977 57.7549 44.625 57.7796 44.5323 57.7875C44.5759 57.7556 44.6394 57.7404 44.7367 57.7278Z" fill="#00100B"/>
<path d="M18.8806 43.3818C18.8843 43.4155 18.8653 43.4602 18.8259 43.5193C18.823 43.4868 18.8405 43.4399 18.8806 43.3818Z" fill="#00100B"/>
<path d="M29.0621 32.9109C28.9819 32.8186 28.927 32.7195 28.88 32.5688C29.0051 32.4293 29.1224 32.3414 29.2396 32.2535C29.4153 32.0681 29.6119 31.8982 29.7617 31.6938C30.0012 31.3671 30.0501 31.0139 29.7942 30.6605C29.559 30.3359 29.3656 29.9676 29.0792 29.6977C28.8517 29.4834 28.5161 29.3781 28.2194 29.2448C28.0455 29.1667 27.8537 29.1283 27.6569 29.0418C27.6991 28.8698 27.7544 28.7281 27.8097 28.5864C28.1697 28.6868 28.5298 28.7871 28.9415 28.9132C29.027 28.9454 29.0608 28.9518 29.0946 28.9583C29.0946 28.9583 29.1017 28.9524 29.1271 28.978C29.3553 29.0755 29.5616 29.1387 29.7597 29.2217C29.9625 29.3066 29.9472 29.4264 29.7569 29.5581C29.7891 29.696 29.829 29.8403 29.9132 29.9508C30.4469 30.6502 30.4457 31.3638 29.995 32.0976C29.995 32.0976 29.9764 32.1033 29.9623 32.1257C29.9317 32.1669 29.9207 32.1885 29.9151 32.2127C29.9151 32.2127 29.9521 32.2301 29.9124 32.2377C29.6977 32.4092 29.5228 32.5732 29.3479 32.7372C29.2611 32.7929 29.1742 32.8485 29.0621 32.9109Z" fill="#00100B"/>
<path d="M21.1647 27.1441C21.0426 27.0667 20.9206 26.9892 20.7986 26.9118C20.8047 26.8913 20.8109 26.8708 20.817 26.8503C21.2472 26.8909 21.6774 26.9316 22.141 26.9718C22.3643 27.2005 22.5876 27.1906 22.8187 27.05C22.9928 26.9439 23.1577 26.8228 23.344 26.6861C23.3612 26.6637 23.3587 26.662 23.3898 26.6545C23.7836 26.5279 24.1464 26.4087 24.5092 26.2896C24.8 26.3062 25.0908 26.3229 25.4001 26.3855C25.6535 26.602 25.8884 26.7727 26.1806 26.985C26.0435 27.0478 25.935 27.0975 25.8265 27.1473C25.4671 27.0599 25.1077 26.9725 24.6779 26.8853C23.8702 26.8768 23.3444 27.2619 22.9016 27.8015C22.9016 27.8015 22.8677 27.8009 22.8238 27.806C22.7196 27.8043 22.6594 27.7974 22.5992 27.7905C22.5992 27.7905 22.5976 27.7986 22.5919 27.7774C22.5581 27.7464 22.53 27.7368 22.5019 27.7271C22.5019 27.7271 22.4859 27.7089 22.4607 27.6892C22.4027 27.6543 22.3699 27.6392 22.337 27.6241C22.337 27.6241 22.3405 27.6343 22.3316 27.6051C22.1288 27.5003 21.9348 27.4246 21.7239 27.3216C21.6263 27.2735 21.5458 27.2527 21.4512 27.2348C21.4372 27.2377 21.4153 27.2193 21.4079 27.2089C21.3777 27.1812 21.3559 27.1839 21.3117 27.2086C21.247 27.1885 21.2058 27.1663 21.1647 27.1441Z" fill="#00100B"/>
<path d="M29.7849 29.5492C29.947 29.4267 29.9623 29.307 29.7595 29.222C29.5614 29.139 29.3551 29.0758 29.1306 28.981C29.4994 29.0231 29.8899 29.0882 30.3125 29.1558C31.3578 29.8091 31.6676 31.061 31.1009 32.2721C30.9845 32.521 30.8174 32.7462 30.6721 33.0147C30.6706 33.047 30.664 33.0498 30.664 33.0498C30.5324 33.1761 30.4008 33.3023 30.2435 33.4389C30.2778 33.2938 30.338 33.1384 30.4213 32.9232C30.282 32.9407 30.1732 32.9545 30.0341 32.9738C30.0081 32.9517 30.0187 32.9265 30.0664 32.8748C30.14 32.7902 30.1825 32.7347 30.225 32.6793C30.225 32.6793 30.2106 32.6679 30.237 32.6639C30.2867 32.6197 30.3101 32.5795 30.3334 32.5392C30.3334 32.5392 30.3365 32.5359 30.3574 32.5201C30.4089 32.4487 30.4394 32.3932 30.4699 32.3378C30.4699 32.3378 30.4609 32.3338 30.4849 32.3247C30.5297 32.2704 30.5505 32.2252 30.5713 32.1799C30.5713 32.1799 30.5618 32.1765 30.5859 32.1611C31.229 31.1167 30.8819 29.8097 29.7849 29.5492Z" fill="#00100B"/>
<path d="M34.0016 23.3091C33.5774 23.3263 33.1865 23.3348 32.774 23.316C32.9626 23.2034 33.1729 23.1182 33.4163 23.0302C33.6322 23.0567 33.8149 23.0859 34.0837 23.1289C33.6476 22.6618 33.1576 22.5112 32.6399 22.4165C32.6399 22.4165 32.6369 22.4314 32.6226 22.4124C32.5313 22.3817 32.4543 22.37 32.3837 22.3338C32.4447 22.2451 32.4994 22.181 32.5953 22.0685C32.036 22.0011 31.54 21.9414 31.0441 21.8817C31.8905 21.6699 32.6606 21.8769 33.4186 22.319C33.494 22.3657 33.5406 22.4022 33.6203 22.4684C33.6991 22.5192 33.7449 22.5404 33.7907 22.5615C33.9232 22.6949 34.0623 22.8225 34.1852 22.9642C34.2416 23.0292 34.2661 23.1217 34.305 23.2017C34.215 23.2346 34.1249 23.2676 34.0016 23.3091Z" fill="#00100B"/>
<path d="M28.2055 23.8084C27.9664 24.0188 27.7273 24.2292 27.4673 24.4655C27.4463 24.4914 27.4429 24.4988 27.4395 24.501C27.1716 24.6957 26.9072 24.8884 26.6428 25.081C26.6039 25.0421 26.5651 25.0033 26.5262 24.9645C26.9773 24.4652 27.4284 23.9659 27.9083 23.4885C28.0266 23.6097 28.116 23.709 28.2055 23.8084Z" fill="#00100B"/>
<path d="M25.8413 27.1718C25.9345 27.0974 26.0429 27.0477 26.1801 26.9848C25.8878 26.7725 25.653 26.6018 25.4252 26.4087C26.183 26.519 26.5611 27.0993 26.9316 27.6761C26.7259 27.6997 26.5466 27.7039 26.3673 27.7081C26.197 27.5375 26.0268 27.367 25.8413 27.1718Z" fill="#00100B"/>
<path d="M26.3725 27.7319C26.5466 27.7039 26.726 27.6997 26.9428 27.7042C27.0038 27.7185 27.0188 27.733 27.0303 27.7997C27.0706 27.8814 27.1061 27.9196 27.1415 27.9578C27.1415 27.9578 27.1285 27.9582 27.1283 27.9799C27.1769 28.048 27.2257 28.0945 27.2746 28.141C27.2746 28.141 27.2729 28.1416 27.279 28.1658C27.3211 28.2224 27.3572 28.2547 27.3933 28.2871C27.3933 28.2871 27.3782 28.2892 27.386 28.3045C27.4179 28.3396 27.4421 28.3595 27.4662 28.3794C27.4662 28.3794 27.4518 28.3804 27.464 28.3939C27.5038 28.4218 27.5314 28.4362 27.559 28.4505C27.559 28.4505 27.5464 28.4515 27.5534 28.4748C27.6411 28.5276 27.7219 28.5571 27.8027 28.5866C27.8027 28.5866 27.8059 28.5867 27.8075 28.5867C27.7538 28.7283 27.6985 28.87 27.6278 29.0287C27.4762 28.9648 27.34 28.8838 27.1818 28.7576C27.1369 28.6914 27.1138 28.6705 27.0908 28.6495C27.0627 28.647 27.0414 28.6337 27.0124 28.5722C26.978 28.5154 26.958 28.496 26.938 28.4766C26.938 28.4766 26.9384 28.4764 26.9282 28.4603C26.9031 28.4231 26.8851 28.4052 26.8639 28.3904C26.8639 28.3904 26.8564 28.3884 26.8548 28.3546C26.7383 28.1787 26.6235 28.0367 26.5086 27.8946C26.465 27.8483 26.4213 27.802 26.3725 27.7319Z" fill="#00100B"/>
<path d="M27.7814 28.5747C27.7221 28.5573 27.6413 28.5278 27.5547 28.4688C27.6192 28.4804 27.6896 28.5215 27.7814 28.5747Z" fill="#00100B"/>
<path d="M27.2701 28.116C27.2258 28.0944 27.177 28.0479 27.1295 27.9734C27.1758 27.9939 27.2206 28.0425 27.2701 28.116Z" fill="#00100B"/>
<path d="M27.1346 27.9321C27.1064 27.9196 27.0709 27.8814 27.0325 27.8159C27.0621 27.8278 27.0947 27.8671 27.1346 27.9321Z" fill="#00100B"/>
<path d="M27.3843 28.2641C27.3572 28.2545 27.3211 28.2222 27.2795 28.1648C27.3078 28.1736 27.3415 28.2075 27.3843 28.2641Z" fill="#00100B"/>
<path d="M27.549 28.4295C27.5323 28.4364 27.5046 28.422 27.4651 28.3869C27.4816 28.3801 27.5099 28.3941 27.549 28.4295Z" fill="#00100B"/>
<path d="M27.458 28.357C27.4417 28.3598 27.4175 28.3399 27.3859 28.2971C27.4024 28.2943 27.4263 28.3143 27.458 28.357Z" fill="#00100B"/>
<path d="M29.0754 28.9398C29.061 28.9521 29.0272 28.9456 28.9717 28.9251C28.9853 28.9144 29.0207 28.9177 29.0754 28.9398Z" fill="#00100B"/>
<path d="M14.7621 19.483C14.7603 19.4792 14.7638 19.4868 14.7621 19.483V19.483Z" fill="#00100B"/>
<path d="M19.9343 25.2415C19.9385 25.4066 19.9134 25.5891 19.8587 25.7891C19.8544 25.624 19.8797 25.4414 19.9343 25.2415Z" fill="#00100B"/>
<path d="M33.0022 11.7607C32.4606 11.6627 31.9105 11.5356 31.3272 11.4001C31.9026 11.2945 32.4559 11.4749 33.0022 11.7607Z" fill="#00100B"/>
<path d="M33.2708 11.8352C33.2149 11.8457 33.1422 11.8305 33.0461 11.7999C33.0998 11.7929 33.1769 11.8012 33.2708 11.8352Z" fill="#00100B"/>
<path d="M29.8826 33.0007C29.9118 32.9933 29.9409 32.986 29.992 32.9731C29.9737 33.0257 29.9334 33.0837 29.8723 33.1199C29.8619 33.0657 29.8722 33.0332 29.8826 33.0007Z" fill="#00100B"/>
<path d="M23.8764 39.1038C23.9387 39.0518 24.031 38.9996 24.1503 38.9458C24.087 38.9973 23.9967 39.0505 23.8764 39.1038Z" fill="#00100B"/>
<path d="M29.1194 12.0222C29.7487 12.0245 30.3781 12.0267 31.0629 12.0417C31.538 12.1413 31.9578 12.2283 32.3775 12.3154C32.4114 12.3263 32.4452 12.3372 32.5286 12.3681C32.8448 12.4829 33.1114 12.5776 33.3781 12.6724C33.4179 12.697 33.4578 12.7217 33.5352 12.771C33.6189 12.8103 33.665 12.8247 33.711 12.8392C33.711 12.8392 33.7114 12.8326 33.7267 12.8565C33.9095 12.9617 34.077 13.0429 34.2445 13.1242C34.2445 13.1242 34.2532 13.131 34.2742 13.1447C34.3232 13.1654 34.3513 13.1724 34.3794 13.1794C34.6726 13.3647 34.9658 13.55 35.2801 13.7912C35.2946 13.9195 35.288 13.9918 35.2815 14.0641C33.8947 12.8884 32.2727 12.3086 30.4765 12.1866C30.1882 12.167 29.8951 12.2189 29.5529 12.2137C29.3742 12.1338 29.2468 12.078 29.1194 12.0222Z" fill="#00100B"/>
<path d="M29.0847 12.021C29.2459 12.0776 29.3734 12.1334 29.5173 12.2106C29.2964 12.2705 29.0591 12.309 28.796 12.3666C28.0498 12.5598 27.3295 12.7338 26.6092 12.9079C27.3451 12.3906 28.1701 12.1274 29.0847 12.021Z" fill="#00100B"/>
<path d="M36.0763 14.3911C36.0281 14.4666 35.9651 14.5165 35.8952 14.5978C35.6969 14.4541 35.5055 14.2789 35.2977 14.0838C35.288 13.9915 35.2946 13.9192 35.3014 13.8105C35.5549 13.9713 35.8082 14.1684 36.0763 14.3911Z" fill="#00100B"/>
<path d="M26.1839 15.3272C26.3287 15.3309 26.4734 15.3347 26.6735 15.3369C26.7288 15.3354 26.7677 15.3254 26.7677 15.3254C26.8718 15.3369 26.9759 15.3484 27.0801 15.3598C27.0793 15.3717 27.0785 15.3837 27.0777 15.3956C26.3321 15.3956 25.5864 15.3956 24.8416 15.3806C24.9547 15.3549 25.0672 15.3441 25.1796 15.3334C25.2177 15.3364 25.2559 15.3393 25.3598 15.3417C25.6784 15.3364 25.9311 15.3318 26.1839 15.3272Z" fill="#00100B"/>
<path d="M38.0042 17.1943C38.8665 17.0837 39.728 16.97 40.6301 16.8833C40.7228 16.97 40.7749 17.0298 40.8271 17.0896C39.9605 17.148 39.0939 17.2064 38.1896 17.2678C38.1212 17.2619 38.0904 17.253 38.0322 17.2348C38.0048 17.2255 38.0057 17.1969 38.0057 17.1969C38.0057 17.1969 38.0035 17.1913 38.0042 17.1943Z" fill="#00100B"/>
<path d="M42.5951 16.894C43.0277 16.9456 43.4603 16.9972 43.9261 17.0511C43.9592 17.0535 43.9613 17.053 43.9685 17.0657C43.9758 17.0783 43.9917 17.1006 43.9755 17.1198C43.9474 17.2044 43.9355 17.2699 43.8901 17.3369C43.433 17.2871 43.0092 17.2357 42.5855 17.1843C42.5271 17.1675 42.4686 17.1508 42.3801 17.1394C42.0361 17.1298 41.7223 17.1147 41.3983 17.0734C41.5531 17.0352 41.7192 17.0313 41.8829 17.0096C42.1212 16.9778 42.3578 16.9332 42.5951 16.894Z" fill="#00100B"/>
<path d="M44.4655 17.4963C44.2832 17.4483 44.1326 17.4009 43.9527 17.3445C43.9354 17.27 43.9473 17.2046 44.0085 17.1167C44.3201 17.1803 44.5824 17.2664 44.8447 17.3524C44.9119 17.4002 44.979 17.448 45.07 17.5339C45.0921 17.6077 45.0904 17.6433 45.0887 17.679C44.8916 17.6183 44.6944 17.5577 44.4655 17.4963Z" fill="#00100B"/>
<path d="M23.2936 29.7429C23.2936 29.7429 23.2704 29.7464 23.2568 29.7114C23.1094 29.6334 22.9757 29.5903 22.842 29.5473C22.4843 29.3241 22.1266 29.101 21.7435 28.8335C21.6911 28.7741 21.6641 28.759 21.637 28.7439C21.637 28.7439 21.6471 28.7443 21.6474 28.7173C21.5873 28.4059 21.383 28.3776 21.1456 28.4081C21.1456 28.4081 21.1476 28.4048 21.1469 28.4069C20.8383 28.2482 20.5305 28.0874 20.2351 27.9331C20.2254 27.9392 20.2977 27.8939 20.3892 27.8309C20.9584 27.735 21.3826 28.0118 21.8016 28.3053C21.925 28.3918 22.0521 28.473 22.2192 28.586C22.3693 28.6824 22.4777 28.7493 22.586 28.8163C22.6164 28.844 22.6467 28.8717 22.7147 28.9246C22.8346 28.9913 22.9169 29.0326 22.9992 29.074C22.9992 29.074 22.9998 29.0677 23.0121 29.0891C23.0727 29.1279 23.1212 29.1452 23.1696 29.1625C23.1696 29.1625 23.1676 29.1533 23.1816 29.178C23.6349 29.3821 24.0742 29.5616 24.5049 29.7681C24.2795 29.8539 24.0627 29.9127 23.846 29.9716L23.8067 29.9795C23.8067 29.9795 23.7692 29.9655 23.7431 29.9208C23.5759 29.8317 23.4348 29.7873 23.2936 29.7429Z" fill="#00100B"/>
<path d="M23.8773 29.9806C24.0634 29.9128 24.2802 29.8539 24.5379 29.7678C24.9747 29.8196 25.3705 29.8987 25.7662 29.9778C25.7662 29.9778 25.794 29.9928 25.8293 30.0192C25.9741 30.0597 26.0836 30.0739 26.1931 30.0881C26.1931 30.0881 26.2017 30.0918 26.2277 30.1119C26.3388 30.1568 26.4239 30.1816 26.5091 30.2064C26.736 30.2834 26.963 30.3604 27.19 30.4375C27.1879 30.4538 27.1858 30.47 27.1837 30.4863C27.0672 30.4863 26.9507 30.4863 26.8028 30.4892C25.8961 30.3492 25.0207 30.2073 24.1457 30.0621C24.0647 30.0486 23.9872 30.0142 23.8773 29.9806Z" fill="#00100B"/>
<path d="M19.2147 28.3951C19.2296 28.3286 19.2746 28.2616 19.3306 28.1728C19.4025 28.1261 19.4632 28.1014 19.5502 28.0752C19.4658 28.1807 19.3553 28.2876 19.2147 28.3951Z" fill="#00100B"/>
<path d="M26.5178 27.9214C26.6241 28.0367 26.739 28.1787 26.8565 28.3509C26.7483 28.2368 26.6374 28.0924 26.5178 27.9214Z" fill="#00100B"/>
<path d="M27.1869 30.8122C27.1906 30.82 27.1628 30.803 27.1628 30.803C27.1628 30.803 27.1831 30.8044 27.1869 30.8122Z" fill="#00100B"/>
<path d="M26.8684 28.4107C26.8854 28.4051 26.9033 28.4229 26.928 28.4599C26.9087 28.4717 26.8868 28.4566 26.8684 28.4107Z" fill="#00100B"/>
<path d="M26.9448 28.4977C26.9586 28.4959 26.9783 28.5151 27.0082 28.5524C26.9958 28.5533 26.9733 28.5359 26.9448 28.4977Z" fill="#00100B"/>
<path d="M27.0986 28.6725C27.1134 28.6707 27.1361 28.6914 27.1688 28.7331C27.1547 28.7344 27.1306 28.7147 27.0986 28.6725Z" fill="#00100B"/>
<path d="M28.7369 33.1024C28.7501 33.0766 28.7878 33.0436 28.8521 33.01C28.8396 33.038 28.8005 33.0666 28.7369 33.1024Z" fill="#00100B"/>
<path d="M28.8967 33.008C28.9106 32.9843 28.9486 32.9537 29.0119 32.9202C28.9984 32.9452 28.9596 32.9731 28.8967 33.008Z" fill="#00100B"/>
<path d="M28.6403 33.1617C28.6407 33.141 28.6619 33.118 28.7009 33.0989C28.6995 33.1217 28.6803 33.1405 28.6403 33.1617Z" fill="#00100B"/>
<path d="M22.8254 34.8947C22.8228 34.9081 22.81 34.9139 22.7762 34.9191C22.7679 34.8911 22.7879 34.8806 22.8254 34.8947Z" fill="#00100B"/>
<path d="M16.7392 29.5754C16.7391 29.5937 16.7172 29.6181 16.6703 29.6391C16.6693 29.6176 16.6934 29.5996 16.7392 29.5754Z" fill="#00100B"/>
<path d="M28.9708 38.8068C29.3414 38.7224 29.7224 38.6532 30.1063 38.6262C31.5627 38.5236 33.0201 38.4347 34.5142 38.3335C34.6049 38.3381 34.6585 38.3499 34.7122 38.3616C32.8236 38.7851 30.9105 38.9024 28.9708 38.8068Z" fill="#00100B"/>
<path d="M34.733 38.6509C34.7273 38.6571 34.7073 38.6353 34.7073 38.6353C34.7073 38.6353 34.7387 38.6447 34.733 38.6509Z" fill="#00100B"/>
<path d="M19.3431 26.5514C19.3299 26.5882 19.3168 26.6082 19.3036 26.6282C19.2896 26.6047 19.2756 26.5813 19.2616 26.5578C19.2887 26.5501 19.3159 26.5424 19.3431 26.5514Z" fill="#00100B"/>
<path d="M28.2039 23.8068C28.1161 23.7093 28.0267 23.61 27.9337 23.4775C27.9302 23.4443 27.933 23.4488 27.962 23.4491C28.3928 23.1434 28.7947 22.8373 29.1966 22.5313C29.7906 22.3136 30.3846 22.0959 31.0114 21.8801C31.5403 21.9418 32.0362 22.0015 32.5955 22.0689C32.4996 22.1814 32.4449 22.2454 32.3489 22.3382C32.1911 22.3564 32.0746 22.346 31.9502 22.3134C31.8652 22.3063 31.788 22.3213 31.6761 22.3467C31.4363 22.3842 31.2311 22.4113 31.026 22.4384C31.026 22.4384 31.042 22.4217 31.0001 22.4186C30.8308 22.4539 30.7035 22.4923 30.5762 22.5306C30.5762 22.5306 30.5555 22.5202 30.5164 22.5276C30.3583 22.5694 30.2393 22.6037 30.1203 22.6381L30.0825 22.6341C30.0825 22.6341 30.0476 22.6489 30.0089 22.67C29.9208 22.7212 29.8714 22.7511 29.822 22.7811C29.64 22.8662 29.4581 22.9513 29.2216 23.0445C29.1274 23.086 29.0878 23.1194 29.0483 23.1528C29.0483 23.1528 29.0474 23.1446 29.0211 23.141C28.9232 23.21 28.8516 23.2826 28.78 23.3552C28.7171 23.4124 28.6543 23.4695 28.5418 23.5407C28.458 23.5904 28.4238 23.6262 28.3897 23.6619C28.3897 23.6619 28.3871 23.6517 28.3707 23.6589C28.3395 23.6911 28.3247 23.7162 28.3098 23.7413C28.3098 23.7413 28.2886 23.7268 28.278 23.7365C28.2466 23.7669 28.2257 23.7876 28.2048 23.8082C28.2048 23.8082 28.2023 23.8049 28.2039 23.8068Z" fill="#00100B"/>
<path d="M29.1659 22.5359C28.7942 22.837 28.3924 23.1431 27.9592 23.4476C28.2188 23.1986 28.5051 22.9454 28.8033 22.707C28.8979 22.6314 29.024 22.5951 29.1659 22.5359Z" fill="#00100B"/>
<path d="M26.469 25.099C26.4664 25.0771 26.477 25.0627 26.4862 25.0635C26.4954 25.0644 26.5032 25.0805 26.5115 25.09C26.5015 25.0977 26.4916 25.1054 26.469 25.099Z" fill="#00100B"/>
<path d="M33.3831 23.033C33.1729 23.1182 32.9626 23.2035 32.7351 23.3183C32.0959 23.5346 31.4746 23.7235 30.8514 23.9062C30.7466 23.9369 30.6092 23.9885 30.53 23.9473C30.3477 23.8526 30.192 23.7068 30.0255 23.5818C30.138 23.456 30.2285 23.2894 30.3683 23.2143C30.5584 23.1121 30.7861 23.0798 31.0591 22.996C31.8747 22.994 32.6289 23.0135 33.3831 23.033Z" fill="#00100B"/>
<path d="M28.8044 23.3492C28.8514 23.2825 28.9229 23.2099 29.0249 23.1418C28.9798 23.212 28.9044 23.2776 28.8044 23.3492Z" fill="#00100B"/>
<path d="M29.0725 23.1446C29.0868 23.119 29.1263 23.0856 29.193 23.0498C29.1793 23.0773 29.1385 23.1071 29.0725 23.1446Z" fill="#00100B"/>
<path d="M28.4134 23.6543C28.4233 23.6262 28.4575 23.5904 28.5178 23.5508C28.5086 23.5802 28.4731 23.6134 28.4134 23.6543Z" fill="#00100B"/>
<path d="M28.2255 23.8008C28.2253 23.787 28.2459 23.7666 28.2884 23.7419C28.289 23.7566 28.2676 23.7754 28.2255 23.8008Z" fill="#00100B"/>
<path d="M28.328 23.7316C28.3234 23.7159 28.3382 23.6909 28.3747 23.6592C28.38 23.6758 28.3638 23.699 28.328 23.7316Z" fill="#00100B"/>
<path d="M21.7239 27.3213C21.664 27.3233 21.587 27.2981 21.4877 27.2522C21.5458 27.2524 21.6264 27.2732 21.7239 27.3213Z" fill="#00100B"/>
<path d="M21.4068 27.2086C21.4141 27.2189 21.373 27.2223 21.3541 27.2143C21.3555 27.1839 21.3769 27.1813 21.4068 27.2086Z" fill="#00100B"/>
<path d="M42.5627 16.8798C42.3573 16.9332 42.1207 16.9779 41.8824 17.0096C41.7187 17.0314 41.5526 17.0353 41.3603 17.0679C41.1881 17.0934 41.0432 17.0981 40.8627 17.0963C40.7748 17.03 40.7226 16.9702 40.6652 16.887C41.2835 16.8642 41.9072 16.8649 42.5627 16.8798Z" fill="#00100B"/>
<path d="M21.1623 28.4303C21.3828 28.3776 21.5872 28.4059 21.6458 28.7222C21.4892 28.6535 21.3342 28.5529 21.1623 28.4303Z" fill="#00100B"/>
<path d="M22.8667 29.5632C22.976 29.5908 23.1097 29.6338 23.2495 29.7029C23.1341 29.6788 23.0126 29.6288 22.8667 29.5632Z" fill="#00100B"/>
<path d="M23.3148 29.7666C23.4349 29.7874 23.576 29.8318 23.7319 29.9044C23.6097 29.8851 23.4728 29.8377 23.3148 29.7666Z" fill="#00100B"/>
<path d="M21.6484 28.7652C21.664 28.7593 21.6911 28.7744 21.7317 28.8086C21.7167 28.8139 21.6883 28.8 21.6484 28.7652Z" fill="#00100B"/>
<path d="M31.9499 22.3128C31.8957 22.3393 31.8337 22.3436 31.7411 22.3418C31.7877 22.3207 31.8649 22.3057 31.9499 22.3128Z" fill="#00100B"/>
<path d="M27.9928 46.546L29.5552 46.0252L30.4666 44.7883L31.4431 46.0903L32.4196 46.2856L32.9404 46.7413L32.029 47.7829L31.8988 49.4104L30.4666 48.9547L28.9042 49.4104V47.848L27.9928 46.546Z" fill="#FF6700"/>
<g clip-path="url(#clip0_434_11666)">
<path d="M30.8529 45.0652L31.2879 45.9072C31.3423 46.043 31.4783 46.1244 31.6142 46.1516L32.5387 46.2874C32.8921 46.3417 33.0281 46.7763 32.7834 47.0207L32.1036 47.6454C31.9949 47.754 31.9405 47.8898 31.9677 48.0256L32.1308 48.9218C32.1852 49.2749 31.8317 49.5465 31.5055 49.3835L30.6626 48.949C30.5266 48.8947 30.3907 48.8947 30.2547 48.949L29.4118 49.3835C29.0856 49.5465 28.7321 49.2749 28.7865 48.9218L28.9496 48.0256C28.9768 47.8898 28.9224 47.7268 28.8137 47.6454L28.1611 46.9935C27.8892 46.7491 28.0523 46.3146 28.4058 46.2602L29.3303 46.1244C29.4662 46.0973 29.6022 46.0158 29.6565 45.9072L30.0644 45.0652C30.2547 44.7393 30.6898 44.7393 30.8529 45.0652Z" stroke="#00100B" stroke-width="0.372152" stroke-linecap="round" stroke-linejoin="round"/>
</g>
<defs>
<clipPath id="clip0_434_11666">
<rect width="6.50995" height="6.50995" fill="white" transform="translate(27.2114 44.0071)"/>
</clipPath>
</defs>
</svg>
