<svg width="553" height="553" viewBox="0 0 553 553" fill="none" xmlns="http://www.w3.org/2000/svg">
<rect x="0.5" y="0.5" width="552" height="552" rx="276" fill="#3F612D" stroke="#00100B"/>
<path d="M109.279 156.996L113.15 153.678L131.952 147.042L160.708 140.959L180.616 106.12L203.842 90.6363L234.81 88.4243L256.377 92.2953L278.497 103.355L300.617 112.203L304.488 121.604H328.82L350.387 127.687L357.576 138.194L344.857 158.655L318.866 174.692L326.608 209.531L323.29 242.711L304.488 265.937L295.64 282.527L296.746 285.292L334.35 288.61L390.203 315.707L425.595 319.578L458.775 315.707L478.13 301.882L486.978 293.587L498.038 298.011L502.462 314.048C502.462 314.048 495.826 309.071 500.25 320.131C504.674 331.191 500.25 339.486 500.25 339.486L480.895 375.984L453.798 403.081L410.664 427.413L360.894 442.897L328.82 449.533H279.05L240.893 440.685C240.893 440.685 224.303 439.026 207.713 434.602C191.123 430.178 191.123 427.413 191.123 427.413L170.662 411.929L147.989 375.431L142.459 349.44L154.072 326.214L185.04 303.541L212.137 290.269L216.561 269.808L197.206 272.573L171.768 274.785H158.496L119.233 291.375H88.2652L56.1912 279.762L51.2142 269.808L61.7212 258.195L123.104 230.545L138.035 221.144L150.201 209.531L155.178 182.987L160.708 171.927L156.284 178.563L145.777 176.904L136.376 174.692L117.574 169.715L108.173 162.526L109.279 156.996Z" fill="#EBEBEB"/>
<path d="M51.3348 266.657L66.8348 255.657L116.335 234.157L135.835 222.657L150.335 209.657H165.335L174.335 213.657L188.335 206.157L201.835 209.657L213.335 224.157L225.835 227.657L237.335 231.157L239.335 244.657L232.335 255.657L209.835 268.657L174.335 274.657H161.835L113.335 291.657H94.3348L76.8348 288.157L53.8348 276.157L51.3348 266.657Z" fill="#FF6700"/>
<path d="M231.652 140.45C230.099 140.655 228.546 140.86 226.53 140.915C221.506 141.263 216.928 141.645 212.394 142.325C210.851 142.556 209.421 143.536 207.94 144.174C201.242 144.894 194.545 145.614 187.38 146.147C185.552 146.237 184.19 146.515 182.828 146.792C182.536 146.848 182.243 146.905 181.547 146.772C179.426 146.19 177.709 145.797 176.272 145.467C176.874 144.961 177.597 144.353 178.499 143.641C178.943 143.493 179.207 143.45 179.555 143.503C179.816 143.521 179.993 143.442 180.412 143.279C190.362 142.059 200.069 140.923 209.96 139.815C210.485 139.729 210.826 139.617 211.445 139.486C218.781 138.114 225.839 136.759 233.093 135.22C235.191 134.898 237.143 134.989 238.986 134.584C249.896 132.186 260.795 129.735 271.667 127.174C277.249 125.859 282.769 124.279 288.586 122.794C293.522 122.021 298.189 121.274 303.097 120.519C304.116 120.31 304.894 120.109 305.916 119.828C309.175 119.397 312.189 119.045 315.203 118.693C316.306 118.688 317.408 118.682 319.061 118.678C321.797 118.832 323.982 118.984 326.438 119.201C335.72 120.339 344.771 121.282 352.657 126.976C354.609 129.448 356.353 131.814 358.097 134.18C359.675 139.569 357.941 144.374 354.946 148.638C348.379 157.988 340.209 165.643 329.921 170.865C328.026 171.826 326.191 172.907 323.842 173.946C321.879 173.71 320.401 173.459 318.941 173.219C318.958 173.23 318.921 173.22 319.07 173.156C319.363 172.936 319.507 172.78 319.746 172.439C320.718 171.604 321.596 170.953 322.445 170.292C322.417 170.281 322.426 170.341 322.575 170.315C322.932 170.239 323.098 170.129 323.274 169.963C323.324 169.968 323.389 169.893 323.57 169.829C324.168 169.491 324.584 169.215 324.956 168.928C324.911 168.917 324.9 169.008 325.098 168.963C325.624 168.706 325.953 168.494 326.256 168.276C326.231 168.268 326.233 168.322 326.451 168.269C328.23 167.146 329.792 166.077 331.318 165C331.282 164.993 331.27 165.066 331.506 165.019C332.153 164.773 332.564 164.574 333.18 164.356C341.814 158.848 349.298 152.505 353.552 143.023C356.003 137.559 355.246 134.027 350.406 130.545C349.63 129.987 348.771 129.531 347.913 129.103C340.527 125.413 332.519 124.361 324.239 123.386C319.455 123.044 314.873 122.797 310.296 122.875C308.779 122.901 307.276 123.764 305.679 124.2C305.592 124.155 305.674 123.978 305.395 123.939C303.556 124.271 301.996 124.643 300.175 125.08C294.076 126.386 288.238 127.626 282.252 128.743C281.591 128.808 281.077 128.998 280.48 129.307C280.216 129.532 280.027 129.55 279.635 129.345C275.945 130.221 272.449 131.235 268.959 132.225C268.963 132.203 269.005 132.222 268.765 132.222C267.805 132.431 267.085 132.64 266.313 132.911C266.261 132.972 266.128 132.882 265.839 132.871C264.035 133.366 262.521 133.871 260.84 134.524C255.868 135.701 251.062 136.73 246.251 137.747C246.246 137.735 246.232 137.714 246.232 137.714C241.782 138.481 237.332 139.248 232.491 140.086C231.904 140.182 231.755 140.28 231.652 140.45Z" fill="#00100B"/>
<path d="M187.329 276.687C187.034 276.716 186.739 276.745 186.009 276.582C182.29 276.564 179.006 276.738 175.722 276.911C175.441 276.949 175.159 276.987 174.481 276.763C171.679 276.183 169.28 275.714 166.865 275.605C165.358 275.537 163.827 276.013 162.307 276.245C157.763 278.312 153.214 280.368 148.678 282.454C147.646 282.928 146.659 283.503 145.334 284.282C142.604 285.368 140.192 286.204 137.781 287.041C137.781 287.041 137.812 287.067 137.612 287.05C137.054 287.194 136.695 287.356 136.337 287.518C136.337 287.518 136.432 287.538 136.248 287.536C135.718 287.682 135.373 287.83 135.028 287.979C135.028 287.979 134.982 287.979 134.745 288.092C132.18 289.108 129.853 290.011 127.526 290.914C127.526 290.914 127.542 290.929 127.339 290.917C126.778 291.06 126.419 291.217 126.059 291.374C126.059 291.374 126.152 291.391 125.905 291.417C114.645 295.493 91.0033 293.832 91.0033 293.832H90.2732L89.3092 293.815L87.7026 293.494L82.0779 292.154C78.6772 291.448 75.3967 290.163 71.9482 288.84C72.0064 287.91 72.1782 287.282 72.5544 285.907C70.8851 286.765 69.8927 287.276 68.9003 287.786C68.2369 287.554 67.5735 287.322 66.8154 286.82C68.9815 280.357 62.8654 285.188 62.0229 282.745C62.6444 282.282 63.3686 281.741 64.3173 281.241C70.1167 283.309 75.6915 285.336 81.3103 287.51C81.7489 287.704 82.1437 287.75 82.7613 287.783C83.2673 287.851 83.5504 287.934 83.9311 288.215C86.8544 289.032 89.6566 289.821 92.5132 290.217C94.728 290.525 97.0109 290.342 99.4805 290.345C99.9872 290.281 100.277 290.251 100.825 290.286C109.157 291.372 116.962 290.447 124.408 287.122C124.379 287.114 124.368 287.173 124.617 287.154C128.069 285.879 131.272 284.623 134.621 283.397C134.973 283.389 135.141 283.288 135.476 283.106C136.403 282.718 137.125 282.35 138.039 281.98C138.538 281.788 138.846 281.597 139.392 281.379C141.472 280.605 143.314 279.858 145.175 279.113C145.193 279.115 145.229 279.105 145.447 279.032C147.425 278.175 149.185 277.391 151.001 276.62C151.056 276.632 151.131 276.548 151.275 276.507C151.68 276.319 151.941 276.174 152.3 276.038C152.399 276.048 152.511 275.885 152.708 275.801C154.358 275.038 155.81 274.359 157.226 273.668C157.19 273.656 157.177 273.731 157.393 273.712C158.381 273.329 159.153 272.965 159.926 272.565C159.928 272.529 159.969 272.588 160.191 272.527C161.812 271.944 163.211 271.421 164.874 270.958C167.403 271.246 169.668 271.475 172.029 271.941C174.817 272.383 177.507 272.589 180.407 272.832C181.158 272.76 181.7 272.65 182.529 272.536C188.353 271.7 193.892 270.868 199.566 270.229C200.631 270.815 201.61 271.128 202.462 271.65C202.733 271.816 202.665 272.535 202.591 273.129C201.486 273.159 200.542 273.063 199.4 272.98C198.886 273.2 198.569 273.407 198.194 273.809C195.613 274.492 193.075 274.925 190.569 275.495C189.456 275.749 188.407 276.281 187.329 276.687ZM81.1633 289.488C81.1073 289.36 81.0672 289.22 80.9847 289.113C80.9622 289.083 80.8117 289.153 80.72 289.177C80.7976 289.297 80.8752 289.416 81.1633 289.488ZM164.927 272.763C165.101 272.729 165.276 272.695 165.45 272.661C165.411 272.586 165.362 272.443 165.336 272.447C165.162 272.474 164.993 272.532 164.927 272.763Z" fill="#00100B"/>
<path d="M371.181 308.765C370.926 308.583 370.67 308.401 370.118 308.039C369.422 307.713 369.023 307.568 368.624 307.422C368.624 307.422 368.635 307.513 368.563 307.339C368.122 307.025 367.753 306.884 367.383 306.743C367.383 306.743 367.383 306.824 367.294 306.658C366.821 306.378 366.436 306.264 366.051 306.15C366.051 306.15 366.056 306.267 366.022 306.115C365.777 305.91 365.566 305.856 365.355 305.802C362.452 304.508 359.489 303.331 356.656 301.899C346.616 296.822 336.386 292.293 325.372 289.684C316.935 287.686 308.443 286.546 299.309 286.962C298.52 287.492 298.201 288.121 297.851 288.731C297.424 289.474 296.97 290.202 296.415 290.884C296.303 290.831 296.059 290.781 296.029 290.569C295.783 289.688 295.566 289.018 295.489 288.167C295.933 286.385 296.238 284.785 296.406 283.9C303.042 284.575 309.574 284.237 316.126 283.409C316.141 283.399 316.167 283.425 316.204 283.63C317.393 283.886 318.545 283.937 319.95 283.972C324.886 285.098 329.568 286.239 334.251 287.38C334.251 287.38 334.248 287.353 334.444 287.491C338.233 288.919 341.825 290.209 345.417 291.498C361.813 298.673 377.987 306.424 394.676 312.834C407.429 317.732 421.076 318.962 434.764 317.419C441.11 316.704 447.397 315.469 454.231 314.584C457.543 314.995 460.335 315.29 463.126 315.584C461.307 316.326 459.488 317.067 457.267 317.672C455.694 317.909 454.524 318.283 453.285 318.7C453.217 318.744 453.118 318.616 452.86 318.61C451.995 318.834 451.387 319.065 450.667 319.49C449.554 319.903 448.555 320.122 447.354 320.201C445.155 320.194 443.16 320.337 441.163 320.456C433.007 320.942 424.851 321.42 416.705 322.063C416.609 322.24 416.502 322.256 416.334 322.018C413.228 321.503 410.182 321.241 406.883 321.005C402.111 319.924 397.591 318.819 393.072 317.713C393.072 317.713 393.067 317.786 392.932 317.617C389.414 316.367 386.031 315.287 382.647 314.207C382.647 314.207 382.555 314.056 382.493 313.899C381.932 313.529 381.433 313.315 380.934 313.101C380.934 313.101 380.911 313.208 380.857 313.07C380.578 312.888 380.354 312.845 380.13 312.801C380.13 312.801 379.996 312.665 379.751 312.519C379.089 312.223 378.672 312.072 378.256 311.922C378.256 311.922 378.269 312.015 378.171 311.842C377.525 311.503 376.975 311.337 376.426 311.172C376.426 311.172 376.418 311.248 376.3 311.091C375.377 310.641 374.573 310.349 373.769 310.058C373.769 310.058 373.773 310.113 373.677 309.952C373.214 309.656 372.846 309.521 372.478 309.385C372.478 309.385 372.484 309.46 372.401 309.292C371.939 309.004 371.56 308.884 371.181 308.765Z" fill="#00100B"/>
<path d="M64.0929 281.2C63.3687 281.74 62.6445 282.281 62.023 282.745C62.8656 285.187 68.9817 280.356 66.6233 286.727C61.0247 284.925 56.0682 282.063 52.2272 277.585C47.9467 272.593 47.8182 268.19 52.4811 263.831C55.8671 260.666 59.6793 257.586 63.8586 255.707C78.4446 249.151 93.2727 243.133 108.391 236.697C109.542 236.09 110.312 235.698 111.081 235.305C111.081 235.305 110.949 235.339 111.232 235.256C113.708 234.103 115.902 233.032 118.096 231.962C118.096 231.962 118.04 231.956 118.261 231.933C119.089 231.54 119.697 231.171 120.304 230.802C120.304 230.802 120.427 230.784 120.664 230.675C122.264 229.94 123.625 229.313 125.034 228.86C125.471 228.689 125.861 228.345 126.444 227.933C126.905 227.814 127.174 227.764 127.457 228.001C127.491 228.866 127.51 229.443 127.524 230.124C127.467 230.384 127.359 230.454 126.973 230.458C126.176 230.922 125.603 231.366 124.902 231.99C122.631 233.48 120.489 234.79 118.39 236.108C118.433 236.117 118.43 236.028 118.239 236.09C117.72 236.359 117.392 236.567 117.093 236.776C117.123 236.777 117.106 236.72 116.89 236.788C115.374 237.527 114.073 238.199 112.769 238.869C112.767 238.867 112.769 238.872 112.581 238.89C112.087 239.108 111.782 239.307 111.479 239.508C111.481 239.51 111.48 239.505 111.284 239.523C110.773 239.736 110.456 239.93 110.159 240.136C110.178 240.148 110.172 240.103 109.961 240.134C109.005 240.523 108.261 240.882 107.309 241.279C106.353 241.674 105.605 242.031 104.969 242.522C105.005 242.569 104.929 242.481 104.647 242.461C103.944 242.786 103.448 243.044 102.825 243.301C102.698 243.301 102.49 243.444 102.255 243.456C99.7521 244.394 97.4833 245.321 95.189 246.238C95.1635 246.228 95.1156 246.255 94.9007 246.338C88.915 249.003 83.1441 251.584 77.1378 254.208C69.7616 257.55 61.8402 259.349 55.9578 265.127C62.6063 263.376 69.1499 261.373 75.6752 259.313C76.3275 259.107 76.8683 258.548 77.6128 258.135C77.7648 258.116 78.065 258.057 78.2241 258.112C78.4851 258.12 78.5869 258.073 78.9169 257.998C82.8799 256.337 86.6147 254.704 90.3261 253.064C90.3026 253.058 90.2965 253.106 90.539 253.083C91.3642 252.855 91.9468 252.65 92.6192 252.466C92.709 252.487 92.8399 252.358 93.0185 252.349C93.3301 252.149 93.463 251.959 93.555 251.758C93.5141 251.748 93.4975 251.83 93.7227 251.799C94.4619 251.553 94.9758 251.337 95.4648 251.115C95.4398 251.11 95.4329 251.161 95.6722 251.141C97.3243 250.546 98.7371 249.97 100.102 249.389C100.054 249.384 100.07 249.479 100.25 249.433C100.765 249.233 101.1 249.08 101.45 248.928C101.465 248.93 101.496 248.936 101.704 248.878C102.325 248.716 102.739 248.611 103.341 248.628C103.9 249.385 104.272 250.019 104.605 250.643C104.567 250.634 104.636 250.643 104.473 250.668C104.139 250.825 103.969 250.956 103.627 251.231C102.892 251.67 102.351 252.031 101.758 252.253C86.6438 257.903 71.5285 263.551 56.4019 269.169C52.7811 270.513 52.3003 271.816 55.2172 274.515C57.9219 277.018 61.1149 278.993 64.0929 281.2Z" fill="#00100B"/>
<path d="M182.335 102.024C182.535 102.008 182.685 101.912 182.995 101.543C183.346 101.155 183.488 100.961 183.63 100.768C183.63 100.768 183.534 100.764 183.703 100.739C183.999 100.513 184.125 100.313 184.252 100.112C184.252 100.112 184.161 100.108 184.333 100.089C184.651 99.8853 184.796 99.7009 184.941 99.5165C184.941 99.5165 184.881 99.517 185.046 99.456C185.568 99.0915 185.924 98.788 186.267 98.4425C186.253 98.4004 186.32 98.4591 186.464 98.4258C186.798 98.3109 186.938 98.1762 187.116 97.9648C187.206 97.9412 187.23 97.7562 187.302 97.7375C187.374 97.7188 187.544 97.4844 187.698 97.4468C187.851 97.4092 188.026 97.1464 188.154 97.0919C188.481 96.8554 188.681 96.6733 189.091 96.4243C192.184 94.7724 195.067 93.1873 198.213 91.6191C199.241 91.1723 200.005 90.7085 200.879 90.0943C201.349 89.8621 201.709 89.7804 202.21 89.8385C202.994 89.5589 203.638 89.1397 204.317 88.6901C204.353 88.6598 204.442 88.6884 204.643 88.7574C205.155 88.6065 205.465 88.3867 205.785 88.2028C205.795 88.2386 205.721 88.2321 206.018 88.2959C209.463 88.0168 212.611 87.6738 215.759 87.3308C215.781 87.5926 215.803 87.8544 215.824 88.1162C214.893 88.8557 213.962 89.5952 212.898 90.3758C212.765 90.4168 212.489 90.4521 212.305 90.4334C211.998 90.4073 211.875 90.4 211.721 90.3338C211.689 90.275 211.52 90.2719 211.52 90.2719C211.52 90.2719 211.725 90.4214 211.73 90.5429C211.736 90.6643 211.744 90.9072 211.492 90.9476C207.716 92.2709 204.192 93.5538 200.47 94.8576C199.808 95.1228 199.344 95.367 198.707 95.6105C198.399 95.7903 198.266 95.9707 197.997 96.1701C197.862 96.1893 197.6 96.2661 197.383 96.2716C195.138 97.9362 193.11 99.5952 191.106 101.264C191.129 101.275 191.133 101.224 190.932 101.281C190.528 101.519 190.327 101.7 189.951 101.949C189.158 102.619 188.539 103.22 187.72 103.904C185.164 106.342 182.809 108.698 180.227 111.074C179.444 111.922 178.887 112.749 178.196 113.646C177.898 113.843 177.777 114.002 177.556 114.323C177.3 114.816 177.19 115.18 177.07 115.523C177.061 115.502 177.107 115.496 176.967 115.597C176.715 115.897 176.603 116.096 176.489 116.252C176.487 116.21 176.572 116.218 176.362 116.282C175.6 117.14 175.049 117.935 174.348 118.843C174.076 119.305 173.953 119.653 173.699 120.077C173.405 120.281 173.285 120.441 173.064 120.757C172.8 121.234 172.68 121.587 172.424 122.011C172.122 122.207 171.993 122.362 171.763 122.673C171.503 123.144 171.381 123.49 171.12 123.96C170.862 124.432 170.743 124.78 170.423 125.239C169.708 126.772 169.195 128.193 168.465 129.667C167.755 130.759 167.261 131.799 166.556 132.885C165.408 133.501 164.473 134.071 163.049 134.94C163.676 131.612 164.174 128.966 164.694 126.334C164.716 126.349 164.665 126.342 164.83 126.225C165.117 125.734 165.239 125.359 165.37 125.016C165.381 125.047 165.316 125.057 165.485 124.931C165.781 124.415 165.91 124.025 166.046 123.501C166.055 123.368 166.236 123.171 166.337 123.067C166.557 122.808 166.647 122.637 166.714 122.478C166.718 122.503 166.667 122.507 166.866 122.432C167.771 121.326 168.475 120.296 169.231 119.042C169.839 117.625 170.394 116.43 170.95 115.235C170.95 115.235 171.028 115.201 171.201 115.034C175.028 110.587 178.681 106.306 182.335 102.024Z" fill="#00100B"/>
<path d="M463.105 315.574C460.331 315.291 457.54 314.996 454.477 314.555C463.59 312.154 471.133 307.161 476.877 299.379C478.002 297.854 479.539 296.633 481.175 295.009C482.644 294.06 483.824 293.373 485.005 292.687C485.005 292.687 485.185 292.719 485.474 292.566C488.437 292.281 491.109 292.148 493.781 292.015C494.085 292.108 494.389 292.201 494.994 292.423C495.679 292.676 496.063 292.799 496.447 292.923C498.54 295.539 500.634 298.155 502.59 301.171C502.185 302.576 501.536 303.655 501.714 304.574C502.665 309.483 502.56 314.272 500.769 318.619C500.051 318.202 499.252 317.738 498.454 317.274C498.667 314.668 499.037 312.063 499.046 309.457C499.053 307.319 498.632 305.18 498.41 302.528C497.872 299.087 495.999 297.498 493.232 296.679C487.571 295.004 483.388 296.827 478.835 303.06C478.647 303.081 478.517 303.179 478.253 303.555C477.942 303.966 477.821 304.177 477.701 304.387C476.889 305.228 476.077 306.069 474.904 307.068C474.375 307.431 474.208 307.636 474.041 307.841C474.041 307.841 474.056 307.771 473.871 307.751C471.55 308.135 469.643 308.749 470.164 311.582C470.164 311.582 470.121 311.517 469.922 311.53C469.228 311.986 468.731 312.43 468.235 312.874C468.235 312.874 468.196 312.813 467.985 312.817C466.704 313.553 465.634 314.285 464.563 315.017C464.563 315.017 464.569 314.829 464.345 314.875C463.791 315.133 463.46 315.346 463.129 315.56C463.129 315.56 463.088 315.563 463.105 315.574Z" fill="#00100B"/>
<path d="M312.767 261.417C312.536 261.645 312.306 261.873 311.861 262.342C310.903 263.243 310.16 263.902 309.262 264.434C308.602 264.939 308.097 265.57 307.579 266.298C307.496 266.528 307.387 266.588 307.045 266.659C306.664 266.947 306.477 267.151 306.248 267.49C306.077 267.779 305.911 267.854 305.495 267.875C304.964 268.318 304.648 268.737 304.323 269.138C304.314 269.12 304.348 269.139 304.107 269.105C300.63 267.759 303.634 266.197 303.718 264.704C303.743 264.655 303.942 264.584 304.177 264.549C304.775 264.073 305.139 263.632 305.508 263.22C305.513 263.249 305.454 263.252 305.603 263.149C305.88 262.846 306.009 262.645 306.23 262.259C307.39 260.797 308.458 259.521 309.698 258.167C310.152 257.682 310.435 257.277 310.877 256.783C311.196 256.377 311.356 256.059 311.675 255.659C312.008 255.264 312.181 254.952 312.519 254.502C314.721 250.872 316.758 247.381 318.873 243.84C318.951 243.791 318.921 243.609 319.009 243.486C319.177 243.174 319.216 242.977 319.176 242.779C319.138 242.787 319.163 242.86 319.337 242.703C320.904 237.247 322.297 231.948 323.726 226.584C323.762 226.518 323.639 226.432 323.827 226.232C324.323 224.095 324.63 222.158 325.071 220.04C325.143 218.705 325.082 217.551 324.971 216.123C324.95 214.743 324.979 213.635 325.126 212.329C325.753 209.686 326.263 207.243 326.941 204.88C327.446 205.111 327.784 205.261 328.121 205.412C328.301 205.54 328.48 205.668 328.479 206.18C328.21 208.048 328.156 209.535 328.025 211.016C327.386 218.21 326.832 225.415 326.021 232.591C325.685 235.572 324.786 238.49 324.142 241.437C324.136 241.67 324.13 241.902 323.946 242.479C321.496 249.847 317.197 255.671 312.767 261.417Z" fill="#00100B"/>
<path d="M326.771 204.799C326.261 207.242 325.75 209.686 325.064 212.039C324.341 195.507 319.57 180.426 310.271 166.562C307.179 161.882 304.16 157.418 300.905 152.604C301.85 152.839 302.432 152.984 303.131 153.242C303.514 153.529 303.782 153.703 304.16 154.045C307.599 158.036 310.928 161.857 314.339 165.896C315.921 168.479 317.423 170.844 318.924 173.209C320.401 173.46 321.878 173.711 323.594 173.964C322.802 174.662 321.77 175.357 320.832 175.99C322.78 181.829 324.711 187.62 326.527 193.789C326.308 194.502 326.204 194.837 325.955 194.978C325.197 192.751 324.585 190.717 323.972 188.684C323.574 188.796 323.176 188.909 322.778 189.021C323.428 192.821 323.963 196.646 324.791 200.407C325.084 201.74 326.09 202.917 326.771 204.324C326.771 204.482 326.771 204.799 326.771 204.799Z" fill="#00100B"/>
<path d="M303.693 264.753C303.634 266.197 300.631 267.758 304.076 269.241C304.286 269.411 304.27 269.691 304.27 269.691C303.936 269.85 303.602 270.01 302.915 270.367C300.889 274.579 299.215 278.592 297.202 283.421C304.17 283.421 310.137 283.421 316.104 283.421C309.567 284.238 303.036 284.577 296.4 283.902C296.231 284.787 295.927 286.387 295.316 287.957C294.893 285.925 294.777 283.922 294.71 281.814C294.759 281.71 294.714 281.483 294.921 281.328C295.394 278.634 295.66 276.095 295.926 273.298C295.928 272.187 295.931 271.331 296.057 270.338C296.456 269.951 296.731 269.702 297.152 269.37C297.54 269.069 297.784 268.853 298.208 268.59C298.668 268.321 298.948 268.097 299.39 267.842C299.704 267.665 299.856 267.518 300.181 267.319C300.612 267.032 300.87 266.796 301.303 266.519C301.627 266.297 301.777 266.116 302.05 265.911C302.339 265.804 302.431 265.67 302.663 265.375C303.15 265.094 303.422 264.923 303.693 264.753Z" fill="#00100B"/>
<path d="M324.235 241.223C324.784 238.488 325.683 235.57 326.02 232.589C326.83 225.413 327.384 218.208 328.023 211.014C328.155 209.533 328.208 208.046 328.449 206.348C329.846 218.086 328.66 229.741 324.235 241.223Z" fill="#00100B"/>
<path d="M326.939 204.879C326.772 204.798 326.772 204.482 326.925 204.138C326.752 200.92 326.427 198.046 326.102 195.172C326.206 194.837 326.309 194.501 326.535 194.037C327.124 197.584 327.591 201.261 328.089 205.174C327.782 205.26 327.444 205.109 326.939 204.879Z" fill="#00100B"/>
<path d="M69.0588 287.936C69.8955 287.276 70.8879 286.766 72.5572 285.907C72.181 287.282 72.0092 287.911 71.7484 288.712C70.8444 288.619 70.0294 288.352 69.0588 287.936Z" fill="#00100B"/>
<path d="M232.044 470.64C232.09 470.618 231.983 470.469 231.938 470.493C231.893 470.517 231.998 470.663 232.044 470.64Z" fill="#00100B"/>
<path d="M486.877 370.161C486.605 370.7 486.332 371.239 485.75 371.98C485.349 372.406 485.257 372.632 485.165 372.857C485.165 372.857 485.179 372.77 485 372.846C484.65 373.262 484.48 373.602 484.31 373.943C484.31 373.943 484.293 373.89 484.174 373.978C483.944 374.265 483.832 374.464 483.721 374.662C483.721 374.662 483.711 374.588 483.59 374.674C483.368 374.967 483.267 375.175 483.166 375.383C483.166 375.383 483.113 375.227 483.058 375.285C483.002 375.344 482.824 375.509 482.824 375.509L482.955 375.748C475.437 386.622 466.302 395.861 455.738 403.856C438.34 417.024 419.139 426.68 398.294 434.277C396.2 434.401 394.186 433.524 393.629 436.055C393.629 436.055 393.356 436.202 392.971 436.21C392.083 436.49 391.58 436.764 391.077 437.037C391.077 437.037 391.09 436.92 390.909 436.898C390.223 437.174 389.718 437.471 389.214 437.769C389.214 437.769 389.213 437.65 389.059 437.627C388.555 437.802 388.206 437.998 387.856 438.194C387.856 438.194 387.865 438.141 387.607 438.137C382.195 438.433 377.54 440.188 373.24 442.978C373.24 442.978 373.205 442.907 373.032 442.848C372.503 442.979 372.146 443.169 371.789 443.359C371.789 443.359 371.8 443.288 371.548 443.287C368.017 443.275 364.738 443.263 361.698 443.208C365.636 441.709 369.334 440.252 373.032 438.796C373.343 438.597 373.653 438.398 374.33 438.325C376.713 437.693 378.728 436.934 380.744 436.176C390.838 432.296 400.99 428.558 411.004 424.481C416.606 422.2 421.978 419.357 427.738 416.582C428.213 416.358 428.376 416.27 428.513 416.134C428.513 416.134 428.747 416.121 429.011 415.946C431.592 414.457 433.91 413.143 436.228 411.829C436.228 411.829 436.513 411.789 436.824 411.626C437.474 411.208 437.812 410.954 438.15 410.7C438.15 410.7 438.042 410.549 438.317 410.554C447.748 404.9 456.559 398.798 463.898 390.81C463.898 390.81 463.908 390.796 463.915 390.791C471.928 383.851 478.637 375.799 484.755 366.747C485.186 366.333 485.293 366.133 485.4 365.932C485.4 365.932 485.397 365.995 485.551 365.991C485.832 365.59 485.959 365.193 486.086 364.796C486.241 364.46 486.395 364.123 486.871 363.562C487.616 362.506 488.04 361.676 488.464 360.845C489.506 359.049 490.547 357.254 491.996 355.337C495.312 356.251 492.329 358.41 493.281 359.819C493.028 360.361 492.775 360.902 492.203 361.671C491.731 362.282 491.578 362.666 491.425 363.049C491.425 363.049 491.339 362.951 491.133 362.974C488.952 363.261 489.368 364.45 489.888 365.68C489.888 365.68 489.89 365.88 489.595 365.919C488.933 366.701 488.566 367.443 488.2 368.186C488.2 368.186 488.149 368.12 487.954 368.166C487.465 368.862 487.171 369.511 486.877 370.161Z" fill="#00100B"/>
<path d="M498.319 317.486C499.246 317.739 500.044 318.203 500.762 318.62C502.554 314.273 502.659 309.484 501.708 304.574C501.53 303.656 502.178 302.577 502.602 301.398C502.882 301.776 503.005 302.327 503.084 303.284C503.158 303.931 503.275 304.17 503.393 304.409C503.448 305.301 503.504 306.193 503.562 307.605C503.524 308.809 503.484 309.494 503.444 310.178C502.687 313.835 502.241 317.593 501.093 321.123C499.634 325.611 497.913 330.072 495.755 334.262C491.643 342.247 485.377 348.483 478.323 354.259C462.793 364.979 446.279 372.924 427.706 376.065C426.141 376.329 424.589 376.667 422.581 376.813C420.996 376.864 419.859 377.073 418.722 377.283C418.722 377.283 418.722 377.143 418.639 377.184C418.341 377.277 418.174 377.396 418.053 377.58C417.937 377.605 417.821 377.63 417.319 377.468C414.088 377.395 411.242 377.507 408.331 377.422C407.446 377.342 406.628 377.459 405.537 377.593C403.529 377.809 401.793 378.008 399.97 377.995C398.647 376.93 397.412 376.077 396.392 375.18C396.898 375.097 397.188 375.057 397.742 375.055C398.897 375.1 399.788 375.108 400.748 375.194C400.818 375.272 401.103 375.3 401.103 375.3C401.103 375.3 401.323 375.088 401.563 375.012C402.472 374.929 403.14 374.923 403.936 375.078C404.858 375.026 405.653 374.812 406.663 374.546C407.172 374.515 407.465 374.535 407.929 374.687C408.853 374.641 409.607 374.463 410.484 374.188C410.608 374.09 410.923 374.078 410.923 374.078C410.923 374.078 411.128 374.317 411.43 374.353C412.136 374.409 412.54 374.428 413.189 374.453C415.615 374.048 417.811 373.698 419.974 373.206C421.127 372.944 422.224 372.437 423.346 372.041C423.346 372.041 423.23 372.019 423.493 372.064C424.928 371.853 426.1 371.596 427.273 371.34C427.709 371.315 428.145 371.29 429.03 371.193C432.151 370.4 434.823 369.68 437.495 368.959C437.495 368.959 437.479 369.039 437.765 368.992C449.883 365.557 461.267 361.14 471.625 354.36C471.625 354.36 471.729 354.352 471.929 354.186C474.233 352.49 476.336 350.959 478.438 349.428C489.394 341.572 495.051 330.418 498.319 317.486Z" fill="#00100B"/>
<path d="M396.177 375.223C397.413 376.076 398.648 376.929 399.678 378.026C396.072 378.494 392.673 378.885 389.27 378.915C379.325 379.002 369.378 378.927 359.432 378.971C358.19 378.977 356.949 379.318 355.708 379.504C343.613 378.419 332.451 374.421 321.498 368.435C318.961 366.849 316.779 365.489 314.597 364.129C314.597 364.129 314.576 364.18 314.485 363.972C310.594 360.736 306.794 357.706 302.994 354.677C301.063 352.314 299.133 349.952 297.449 347.245C298.466 346.64 299.236 346.381 300.006 346.121C301.472 347.255 302.939 348.388 304.715 349.732C306.225 351.267 307.322 352.703 308.64 353.897C316.576 361.086 325.615 366.591 335.633 370.242C339.948 371.815 344.707 372.17 349.264 373.078C350.405 373.492 351.545 373.906 353.19 374.4C357.093 374.715 360.489 375.12 363.89 375.151C374.651 375.25 385.414 375.209 396.177 375.223Z" fill="#00100B"/>
<path d="M145.871 343.702C143.366 354.555 146.571 364.585 150.579 374.395C155.192 385.688 161.641 395.936 169.544 405.704C170.044 406.197 170.294 406.412 170.545 406.628C175.809 413.871 182.435 419.734 189.609 425.335C189.835 425.643 189.949 425.791 190.386 426.08C191.442 427.015 192.264 427.738 193.076 428.676C192.856 429.089 192.646 429.286 192.185 429.448C188.492 427.554 185.05 425.695 181.601 423.861C181.592 423.886 181.645 423.878 181.544 423.683C178.053 420.416 174.663 417.344 171.273 414.273C171.273 414.273 171.249 414.306 171.226 414.133C171.007 413.858 170.811 413.755 170.614 413.652C170.614 413.652 170.611 413.677 170.505 413.487C167.795 410.335 165.19 407.372 162.586 404.409C162.586 404.409 162.568 404.382 162.457 404.179C160.235 400.931 158.124 397.886 156.014 394.84C156.014 394.84 155.915 395.008 155.92 394.745C155.578 393.942 155.232 393.403 154.885 392.865C154.885 392.865 154.794 392.904 154.778 392.745C154.673 392.436 154.557 392.309 154.416 392.204C154.416 392.204 154.419 392.013 154.246 391.773C152.795 389.208 151.517 386.882 150.181 384.334C144.582 373.192 140.349 361.9 140.321 349.16C140.447 347.803 140.521 346.715 140.776 345.461C141.658 343.13 142.36 340.965 143.232 338.682C143.564 338.187 143.727 337.81 143.89 337.433C143.805 337.355 143.719 337.276 143.898 337.215C144.376 336.979 144.588 336.726 144.822 336.735C144.219 339.105 143.483 341.189 143.005 343.33C142.634 344.988 142.585 346.717 142.394 348.415C142.685 348.435 142.977 348.456 143.268 348.477C144.136 346.885 145.004 345.294 145.871 343.702Z" fill="#00100B"/>
<path d="M220.758 316.569C220.758 316.569 220.548 316.716 220.152 316.697C216.045 317.749 211.881 317.78 209.225 321.269C209.225 321.269 209.229 321.211 209.007 321.192C207.621 320.554 206.458 319.935 205.473 319.183C207.283 318.157 208.914 317.266 210.78 316.304C213.666 315.125 216.318 314.015 218.918 312.895C218.865 312.884 218.855 312.99 219.074 312.961C219.811 312.693 220.331 312.456 220.824 312.208C220.798 312.198 220.807 312.253 221.049 312.232C223.086 311.584 224.88 310.955 226.633 310.32C226.591 310.313 226.591 310.397 226.848 310.363C235.34 308.506 243.576 306.683 252.126 304.905C252.864 304.983 253.297 305.085 253.714 305.039C258.44 304.517 263.175 304.06 267.882 303.402C271.068 302.957 274.2 302.13 277.381 301.642C280.335 301.188 283.323 300.956 286.295 300.627C286.302 300.87 286.309 301.113 286.316 301.356C283.959 302.202 281.601 303.049 279.244 303.896C279.244 303.896 279.243 303.838 278.99 303.821C276.771 304.273 274.804 304.742 272.838 305.211C269.129 306.004 265.42 306.796 261.256 307.416C260.492 307.174 260.16 306.992 259.877 307.05C248.22 309.444 236.558 311.819 224.926 314.33C223.724 314.59 222.699 315.675 221.592 316.377C221.592 316.377 221.549 316.281 221.433 316.265C221.13 316.357 220.944 316.463 220.758 316.569Z" fill="#00100B"/>
<path d="M279.522 303.865C281.606 303.047 283.963 302.2 286.321 301.353C286.314 301.111 286.307 300.868 286.3 300.625C283.327 300.954 280.339 301.186 277.386 301.64C274.204 302.128 271.073 302.955 267.887 303.4C263.18 304.057 258.444 304.515 253.719 305.037C253.302 305.083 252.869 304.981 252.356 304.753C258.698 303.475 265.128 302.391 271.767 301.275C272.249 301.193 272.523 301.143 273.047 301.092C275.054 300.684 276.81 300.276 278.738 299.896C279.015 299.878 279.122 299.832 279.446 299.786C280.364 299.592 281.064 299.397 281.955 299.229C282.491 299.128 282.836 299 283.441 298.845C287.583 297.334 291.465 295.851 295.555 294.237C296.014 293.049 296.267 291.993 296.52 290.937C296.962 290.203 297.416 289.475 297.843 288.731C298.193 288.121 298.512 287.493 299.003 286.993C299.17 288.394 299.145 289.676 299.197 290.955C299.427 296.677 298.069 299.209 292.752 300.925C288.557 302.28 284.124 302.893 279.522 303.865Z" fill="#00100B"/>
<path d="M374.891 318.764C363.187 313.483 351.484 308.202 339.766 302.655C339.751 302.389 339.884 302.278 339.884 302.278C344.9 304.16 349.985 305.877 354.915 307.963C361.753 310.857 368.474 314.029 375.328 317.395C375.238 318.06 375.064 318.412 374.891 318.764Z" fill="#00100B"/>
<path d="M375.045 318.929C375.067 318.411 375.241 318.059 375.506 317.534C383.996 320.128 392.359 323.014 400.809 325.616C405.115 326.942 409.577 327.76 413.885 329.117C400.531 327.511 387.638 324.16 375.045 318.929Z" fill="#00100B"/>
<path d="M291.061 399.435C292.893 399.986 294.795 400.83 296.762 401.471C304.772 404.08 312.802 406.626 320.824 409.196C321.287 409.344 321.747 409.504 322.501 409.757C317.415 411.261 297.152 404.568 291.061 399.435Z" fill="#00100B"/>
<path d="M355.989 379.547C356.953 379.319 358.193 378.977 359.435 378.972C369.381 378.927 379.328 379.003 389.274 378.915C392.676 378.885 396.075 378.495 399.768 378.238C401.797 378.007 403.533 377.808 405.799 377.621C407.019 377.629 407.71 377.624 408.401 377.62C411.247 377.507 414.092 377.394 417.149 377.432C411.923 378.057 406.485 378.532 400.543 379.04C390.375 379.464 380.714 379.94 371.048 380.204C367.435 380.303 363.809 379.906 360.188 379.736C358.881 379.687 357.574 379.638 355.989 379.547Z" fill="#00100B"/>
<path d="M465.815 349.701C458.303 354.224 450.418 357.688 441.624 358.529C449.439 355.482 457.254 352.436 465.379 349.46C465.688 349.531 465.815 349.701 465.815 349.701Z" fill="#00100B"/>
<path d="M221.836 316.289C222.705 315.674 223.729 314.588 224.931 314.329C236.563 311.818 248.225 309.442 259.882 307.049C260.165 306.991 260.497 307.173 260.992 307.389C254.038 308.91 246.897 310.285 239.303 311.823C238.042 312.22 237.235 312.452 236.348 312.644C236.267 312.603 236.155 312.745 236.155 312.745C231.461 313.897 226.768 315.049 221.836 316.289Z" fill="#00100B"/>
<path d="M372.787 438.744C369.342 440.251 365.644 441.708 361.585 443.289C361.07 443.542 360.948 443.694 360.594 443.919C354.961 444.491 349.592 445.015 344.394 445.406C345.108 445.121 345.651 444.969 346.193 444.817C354.973 442.776 363.753 440.735 372.787 438.744Z" fill="#00100B"/>
<path d="M294.649 449.123C306.027 448.661 317.406 448.199 329.062 447.687C329.702 447.629 330.065 447.62 330.855 447.474C333.069 447.185 334.856 447.031 336.431 447.058C332.978 447.75 329.75 448.583 326.494 448.715C316.17 449.134 305.835 449.294 295.503 449.53C295.222 449.536 294.934 449.265 294.649 449.123Z" fill="#00100B"/>
<path d="M287.26 378.626C286.166 377.457 285.234 376.447 284.303 375.437C284.396 375.329 284.489 375.222 284.581 375.114C290.363 379.524 296.145 383.934 301.927 388.345C301.76 388.586 301.593 388.827 301.426 389.068C296.758 385.64 292.091 382.212 287.26 378.626Z" fill="#00100B"/>
<path d="M299.903 345.926C299.236 346.381 298.465 346.641 297.408 347.008C295.096 343.825 293.071 340.535 291.046 337.245C291.303 337.063 291.561 336.882 291.819 336.7C294.479 339.71 297.14 342.72 299.903 345.926Z" fill="#00100B"/>
<path d="M470.353 311.5C469.635 308.749 471.542 308.136 473.895 307.767C472.925 309.007 471.738 310.212 470.353 311.5Z" fill="#00100B"/>
<path d="M408.607 321.754C408.153 321.525 407.843 321.305 407.332 321.033C410.176 321.242 413.222 321.503 416.329 322.019C414.123 322.046 411.857 321.819 409.314 321.697C409.037 321.802 408.751 321.763 408.607 321.754Z" fill="#00100B"/>
<path d="M380.504 436.179C378.735 436.934 376.719 437.692 374.528 438.32C376.321 437.52 378.289 436.851 380.504 436.179Z" fill="#00100B"/>
<path d="M273.109 305.199C274.807 304.739 276.774 304.27 279.022 303.821C277.328 304.29 275.352 304.739 273.109 305.199Z" fill="#00100B"/>
<path d="M464.761 314.943C465.624 314.284 466.695 313.553 468.008 312.834C467.156 313.521 466.062 314.195 464.761 314.943Z" fill="#00100B"/>
<path d="M455.997 318.201C455.202 318.457 454.531 318.577 453.605 318.678C454.52 318.284 455.691 317.91 457.025 317.667C456.834 317.887 456.478 317.976 455.997 318.201Z" fill="#00100B"/>
<path d="M418.996 377.241C419.863 377.073 421 376.864 422.323 376.798C421.428 377.027 420.348 377.113 418.996 377.241Z" fill="#00100B"/>
<path d="M468.425 312.825C468.723 312.432 469.219 311.988 469.947 311.553C469.66 311.966 469.142 312.37 468.425 312.825Z" fill="#00100B"/>
<path d="M433.549 377.422C433.506 377.47 433.354 377.303 433.354 377.303C433.354 377.303 433.592 377.375 433.549 377.422Z" fill="#00100B"/>
<path d="M463.31 315.514C463.455 315.346 463.786 315.133 464.326 314.967C464.189 315.165 463.843 315.317 463.31 315.514Z" fill="#00100B"/>
<path d="M465.617 349.446C465.909 349.243 466.265 349.125 466.621 349.007C466.465 349.189 466.308 349.372 465.981 349.627C465.809 349.7 465.682 349.53 465.617 349.446Z" fill="#00100B"/>
<path d="M339.674 302.445C339.447 302.36 339.286 302.218 339.125 302.076C339.297 302.051 339.469 302.025 339.757 302.139C339.873 302.278 339.74 302.389 339.674 302.445Z" fill="#00100B"/>
<path d="M474.229 307.765C474.207 307.635 474.374 307.43 474.723 307.138C474.742 307.264 474.58 307.477 474.229 307.765Z" fill="#00100B"/>
<path d="M318.41 355.185C318.406 355.179 318.544 354.98 318.544 354.98C318.544 354.98 318.539 355.137 318.483 355.169C318.427 355.2 318.415 355.191 318.41 355.185Z" fill="#00100B"/>
<path d="M418.226 377.594C418.177 377.393 418.342 377.276 418.705 377.189C418.702 377.307 418.548 377.461 418.226 377.594Z" fill="#00100B"/>
<path d="M344.199 445.557C344.199 445.557 344.21 445.547 344.216 445.544C349.591 445.016 354.96 444.491 360.55 444.15C357.99 445.42 355.263 446.679 352.417 447.55C348.649 448.702 344.787 449.55 340.965 450.528C340.965 450.528 340.968 450.429 340.776 450.37C340.07 450.178 339.539 449.887 339.043 449.939C331.977 450.687 324.913 451.461 317.858 452.307C317.372 452.365 316.961 453.035 316.515 453.421C316.397 453.447 316.279 453.473 315.769 453.307C314.217 453.028 313.059 452.924 311.899 452.856C301.204 452.227 290.492 451.811 279.822 450.892C274.344 450.42 268.985 448.682 263.391 449.066C248.236 445.772 234.007 440.343 221.404 430.47C220.602 429.585 219.919 429.122 219.235 428.659C219.235 428.659 219.295 428.636 219.235 428.497C218.989 428.214 218.803 428.07 218.617 427.925C218.617 427.925 218.706 427.917 218.63 427.799C218.367 427.546 218.18 427.409 217.993 427.273C217.993 427.273 218.074 427.265 217.996 427.146C217.731 426.893 217.545 426.758 217.358 426.623C217.358 426.623 217.444 426.616 217.367 426.501C217.112 426.238 216.936 426.092 216.759 425.945C216.405 425.6 216.05 425.254 215.703 424.525C216.542 424.22 217.424 424.152 218.195 424.412C219.287 424.78 220.298 425.389 221.343 425.895C221.343 425.895 221.376 425.88 221.426 426.095C221.908 426.568 222.341 426.825 222.774 427.082C222.774 427.082 222.709 427.101 222.816 427.223C223.141 427.47 223.359 427.596 223.578 427.722C223.578 427.722 223.803 427.735 223.974 427.925C224.285 428.25 224.445 428.353 224.624 428.427C240.147 438.235 257.083 444.142 275.215 446.745C276.372 446.912 277.535 447.041 279.066 447.474C283.311 448.601 287.17 449.534 291.076 450.193C291.764 450.309 292.645 449.28 293.437 448.78C293.707 448.855 293.978 448.93 294.451 449.064C294.94 449.265 295.228 449.536 295.509 449.53C305.841 449.294 316.176 449.133 326.5 448.714C329.756 448.582 332.984 447.75 336.437 447.057C336.649 446.877 336.645 446.92 336.918 446.972C338.431 446.722 339.67 446.42 340.91 446.117C341.013 446.041 341.117 445.965 341.394 445.807C341.675 445.76 341.78 445.794 342.205 445.977C343.083 445.936 343.641 445.747 344.199 445.557Z" fill="#00100B"/>
<path d="M493.469 359.694C492.333 358.411 495.316 356.252 492.172 355.196C493.641 351.519 495.255 347.815 497.082 344.218C498.35 341.721 499.91 339.372 501.745 337.161C499.846 344.958 497.688 352.604 493.469 359.694Z" fill="#00100B"/>
<path d="M263.581 449.253C268.975 448.683 274.334 450.42 279.813 450.893C290.482 451.812 301.195 452.227 311.889 452.857C313.05 452.925 314.208 453.029 315.585 453.263C303.537 454.149 291.334 453.489 279.184 451.736C274.045 450.995 268.914 450.206 263.581 449.253Z" fill="#00100B"/>
<path d="M221.235 425.709C220.296 425.388 219.286 424.779 218.194 424.411C217.422 424.151 216.54 424.219 215.646 424.342C213.616 421.231 211.629 417.928 209.722 414.58C209.593 414.353 210.066 413.783 210.454 413.443C214.142 417.517 217.635 421.521 221.235 425.709Z" fill="#00100B"/>
<path d="M341.238 450.502C344.781 449.551 348.642 448.703 352.411 447.551C355.257 446.681 357.984 445.421 360.807 444.105C360.941 443.696 361.063 443.544 361.338 443.334C364.739 443.264 368.018 443.275 371.584 443.297C361.753 445.695 351.636 448.085 341.238 450.502Z" fill="#00100B"/>
<path d="M316.782 453.461C316.955 453.037 317.367 452.366 317.852 452.308C324.907 451.463 331.971 450.688 339.038 449.941C339.533 449.888 340.065 450.18 340.82 450.379C335.365 451.252 329.674 452.088 323.973 452.847C321.679 453.152 319.362 453.287 316.782 453.461Z" fill="#00100B"/>
<path d="M373.487 442.901C377.541 440.186 382.196 438.431 387.634 438.142C383.189 439.711 378.461 441.268 373.487 442.901Z" fill="#00100B"/>
<path d="M393.861 436.037C394.189 433.523 396.203 434.4 398.065 434.293C396.923 434.879 395.507 435.449 393.861 436.037Z" fill="#00100B"/>
<path d="M488.259 360.888C488.043 361.676 487.619 362.507 487.018 363.443C487.244 362.676 487.648 361.803 488.259 360.888Z" fill="#00100B"/>
<path d="M490.006 365.527C489.372 364.451 488.956 363.261 491.19 363.013C491.006 363.81 490.563 364.592 490.006 365.527Z" fill="#00100B"/>
<path d="M219.329 428.838C219.917 429.121 220.6 429.584 221.305 430.28C220.693 430.015 220.058 429.516 219.329 428.838Z" fill="#00100B"/>
<path d="M487.057 370.051C487.175 369.511 487.469 368.861 487.996 368.182C487.897 368.749 487.565 369.346 487.057 370.051Z" fill="#00100B"/>
<path d="M488.361 368.073C488.567 367.442 488.934 366.7 489.514 365.976C489.325 366.649 488.923 367.305 488.361 368.073Z" fill="#00100B"/>
<path d="M485.921 364.878C485.961 365.194 485.833 365.591 485.522 365.983C485.477 365.638 485.616 365.299 485.921 364.878Z" fill="#00100B"/>
<path d="M282.204 454.983C282.289 454.796 282.453 454.695 282.618 454.594C282.507 454.752 282.396 454.91 282.204 454.983Z" fill="#00100B"/>
<path d="M276.622 455.738C276.546 455.546 276.589 455.356 276.633 455.167C276.669 455.358 276.705 455.549 276.622 455.738Z" fill="#00100B"/>
<path d="M389.433 437.701C389.724 437.471 390.228 437.173 390.972 436.91C390.69 437.174 390.168 437.404 389.433 437.701Z" fill="#00100B"/>
<path d="M391.292 436.981C391.582 436.763 392.085 436.489 392.818 436.208C392.534 436.441 392.02 436.683 391.292 436.981Z" fill="#00100B"/>
<path d="M491.594 362.931C491.581 362.665 491.734 362.282 492.08 361.804C492.102 362.077 491.931 362.445 491.594 362.931Z" fill="#00100B"/>
<path d="M484.465 373.85C484.478 373.603 484.649 373.263 485.017 372.886C485.017 373.152 484.819 373.455 484.465 373.85Z" fill="#00100B"/>
<path d="M371.998 443.344C372.154 443.169 372.511 442.978 373.08 442.844C372.928 443.043 372.563 443.186 371.998 443.344Z" fill="#00100B"/>
<path d="M388.052 438.166C388.202 437.997 388.552 437.801 389.115 437.637C388.969 437.826 388.61 437.983 388.052 438.166Z" fill="#00100B"/>
<path d="M503.408 304.2C503.277 304.171 503.159 303.932 503.026 303.489C503.148 303.521 503.285 303.756 503.408 304.2Z" fill="#00100B"/>
<path d="M480.68 369.016C480.669 368.992 480.69 369.041 480.68 369.016V369.016Z" fill="#00100B"/>
<path d="M485.31 372.743C485.263 372.632 485.355 372.406 485.606 372.086C485.66 372.203 485.554 372.416 485.31 372.743Z" fill="#00100B"/>
<path d="M483.588 365.47C483.592 365.468 483.793 365.6 483.793 365.6C483.793 365.6 483.639 365.593 483.609 365.537C483.579 365.48 483.584 365.473 483.588 365.47Z" fill="#00100B"/>
<path d="M485.248 366.016C485.296 366.132 485.189 366.332 484.945 366.636C484.903 366.527 484.998 366.314 485.248 366.016Z" fill="#00100B"/>
<path d="M483.582 353.905C483.581 353.906 483.377 353.778 483.377 353.778C483.377 353.778 483.528 353.787 483.556 353.845C483.585 353.902 483.583 353.904 483.582 353.905Z" fill="#00100B"/>
<path d="M481.332 353.573C481.307 353.584 481.357 353.563 481.332 353.573V353.573Z" fill="#00100B"/>
<path d="M483.05 375.669C482.959 375.742 482.829 375.507 482.829 375.507C482.829 375.507 483.005 375.344 483.102 375.355C483.199 375.367 483.142 375.595 483.05 375.669Z" fill="#00100B"/>
<path d="M218.68 428.091C218.797 428.072 218.98 428.214 219.223 428.525C219.104 428.547 218.926 428.401 218.68 428.091Z" fill="#00100B"/>
<path d="M218.063 427.435C218.18 427.409 218.367 427.545 218.627 427.844C218.511 427.869 218.323 427.733 218.063 427.435Z" fill="#00100B"/>
<path d="M217.423 426.786C217.541 426.757 217.728 426.892 217.989 427.186C217.873 427.213 217.682 427.081 217.423 426.786Z" fill="#00100B"/>
<path d="M216.821 426.11C216.931 426.093 217.105 426.237 217.354 426.539C217.248 426.554 217.067 426.414 216.821 426.11Z" fill="#00100B"/>
<path d="M483.882 374.586C483.832 374.463 483.944 374.265 484.202 373.974C484.247 374.091 484.146 374.301 483.882 374.586Z" fill="#00100B"/>
<path d="M483.328 375.296C483.277 375.173 483.378 374.966 483.637 374.676C483.69 374.8 483.585 375.005 483.328 375.296Z" fill="#00100B"/>
<path d="M164.674 126.32C164.176 128.966 163.677 131.612 163.051 134.94C164.475 134.071 165.41 133.501 166.606 132.93C166.866 132.929 166.963 133.019 166.903 133.217C166.539 134.031 166.234 134.646 165.958 135.273C165.986 135.285 165.974 135.225 165.784 135.367C165.066 136.495 164.537 137.481 163.691 139.057C170.939 137.969 177.51 136.983 184.304 136.032C184.826 136.033 185.124 135.999 185.565 135.995C185.707 136.025 185.991 135.962 186.165 136.077C185.22 136.809 184.171 137.704 182.973 137.998C176.711 139.536 170.412 140.921 163.864 142.376C161.199 142.857 158.797 143.327 156.391 143.781C148.571 145.258 140.75 146.728 132.93 148.2C132.93 148.2 132.806 148.11 132.511 148.165C131.454 148.419 130.694 148.618 129.934 148.816C124.391 150.599 118.848 152.381 113.06 153.925C112.735 152.58 112.657 151.473 112.578 150.366C119.471 147.973 126.24 145.09 133.29 143.324C140.273 141.575 147.54 140.957 154.681 139.833C157.386 139.407 159.851 138.657 160.497 135.018C160.84 134.28 160.964 133.892 161.089 133.503C161.089 133.503 161.022 133.521 161.191 133.409C161.587 132.629 161.815 131.962 162.043 131.295C162.043 131.295 162.106 131.234 162.199 131.068C162.415 130.612 162.537 130.324 162.66 130.036C162.66 130.036 162.758 129.958 162.843 129.72C163.511 128.428 164.093 127.374 164.674 126.32Z" fill="#00100B"/>
<path d="M150.164 191.968C150.186 191.735 150.208 191.502 150.257 191.094C150.283 190.918 150.283 190.897 150.429 190.714C150.935 189.352 151.294 188.174 151.654 186.996C151.654 186.996 151.598 186.965 151.741 186.824C152.1 185.661 152.316 184.638 152.531 183.616C154.42 179.916 156.308 176.216 158.404 172.178C159.176 171.271 159.74 170.702 160.305 170.134C162.26 169.735 164.215 169.336 167.136 168.74C160.634 174.882 157.045 181.874 154.585 190.013C154.206 192.277 153.934 194.084 153.437 196.025C153.018 197.561 152.824 198.963 152.607 200.52C152.583 200.674 152.493 200.973 152.365 201.147C151.861 202.997 151.484 204.673 151.108 206.349C150.262 204.097 150.077 201.886 150.048 199.672C150.015 197.105 150.119 194.536 150.164 191.968Z" fill="#00100B"/>
<path d="M108.765 161.771C111.096 165.475 114.925 167.386 118.694 168.706C127.72 171.869 136.964 174.408 146.943 177.45C141.818 176.637 137.437 176.078 133.114 175.227C125.136 173.655 117.37 171.368 110.426 166.983C108.8 165.956 107.582 164.286 106.321 162.676C107.233 162.217 107.999 161.994 108.765 161.771Z" fill="#00100B"/>
<path d="M160.041 170.081C159.741 170.703 159.177 171.271 158.45 171.958C145.401 171.753 132.937 169.532 121.211 163.926C133.625 168.792 146.799 168.797 160.041 170.081Z" fill="#00100B"/>
<path d="M172.646 156.973C172.646 156.973 172.582 156.817 172.518 156.756C171.133 156.335 169.813 155.974 168.889 155.48C175.149 154.875 181.039 154.606 186.872 153.878C192.972 153.117 199.017 151.914 205.086 150.905C205.086 150.905 205.004 151.056 205.366 151.106C206.652 150.999 207.577 150.843 208.502 150.687C209.645 150.813 210.788 150.939 211.753 150.874C211.343 150.891 211.14 151.233 210.877 151.288C199.173 153.713 187.474 156.175 175.433 156.21C174.503 156.213 173.575 156.707 172.646 156.973Z" fill="#00100B"/>
<path d="M147.766 148.228C149.648 147.669 151.806 146.935 154.025 146.57C158.213 145.881 162.437 145.404 167.109 144.725C168.161 144.581 168.749 144.552 169.48 144.668C171.183 146.433 169.814 146.634 168.606 146.929C167.357 147.234 166.113 147.556 164.867 147.871C159.267 147.987 153.668 148.104 147.766 148.228Z" fill="#00100B"/>
<path d="M108.724 161.507C108.004 161.994 107.237 162.217 106.23 162.464C103.989 159.296 105.267 156.591 107.469 154.242C108.819 152.803 110.562 151.732 112.35 150.43C112.651 151.473 112.729 152.58 112.836 154.019C112.806 154.534 112.683 154.645 112.22 154.776C111.794 155.026 111.643 155.182 111.492 155.339C110.554 157.307 109.616 159.274 108.724 161.507Z" fill="#00100B"/>
<path d="M165.124 147.921C166.113 147.557 167.357 147.234 168.606 146.929C169.814 146.634 171.183 146.433 169.643 144.617C169.768 144.379 169.874 144.337 170.248 144.323C173.119 144.15 175.721 143.948 178.323 143.746C177.6 144.354 176.877 144.962 176.275 145.469C177.712 145.798 179.429 146.191 181.328 146.733C176.134 147.245 170.758 147.608 165.124 147.921Z" fill="#00100B"/>
<path d="M208.227 144.148C209.421 143.537 210.851 142.557 212.393 142.326C216.927 141.647 221.505 141.264 226.272 140.906C220.49 142.072 214.502 143.096 208.227 144.148Z" fill="#00100B"/>
<path d="M166.86 122.431C166.884 122.007 167.108 121.508 167.37 120.804C167.409 120.6 167.561 120.527 167.55 120.444C167.94 119.986 168.34 119.612 168.957 119.251C168.469 120.295 167.764 121.326 166.86 122.431Z" fill="#00100B"/>
<path d="M183.084 146.821C184.194 146.515 185.556 146.238 187.102 146.106C185.969 146.452 184.652 146.651 183.084 146.821Z" fill="#00100B"/>
<path d="M104.595 167.111C104.409 167.027 104.308 166.863 104.208 166.699C104.365 166.81 104.523 166.921 104.595 167.111Z" fill="#00100B"/>
<path d="M111.661 155.292C111.645 155.177 111.794 155.022 112.088 154.793C112.097 154.897 111.962 155.075 111.661 155.292Z" fill="#00100B"/>
<path d="M297.994 107.968C302.766 110.32 305.846 113.747 305.618 119.645C304.897 120.11 304.119 120.311 303.17 120.285C302.414 115.327 299.734 112.161 295.235 111.037C287.598 109.128 280.314 106.539 273.714 101.779C273.32 101.487 273.051 101.376 272.794 101.292C272.804 101.319 272.859 101.296 272.753 101.114C271.887 100.568 271.128 100.206 270.361 99.8716C270.352 99.9002 270.411 99.8875 270.288 99.7288C269.795 99.4115 269.425 99.253 269.057 99.1486C269.06 99.2027 269.164 99.1734 269.009 99.0137C267.179 98.1565 265.504 97.459 263.82 96.7864C263.811 96.8114 263.859 96.7887 263.771 96.6129C263.329 96.275 262.974 96.1129 262.617 95.9893C262.615 96.0279 262.69 96.0125 262.536 95.8464C261.785 95.5927 261.188 95.5051 260.597 95.458C260.602 95.4985 260.682 95.4824 260.579 95.2937C260.082 95.0512 259.687 94.9973 259.152 94.9293C259.013 94.9153 258.733 94.8871 258.655 94.6922C257.719 94.0827 256.861 93.6681 255.874 93.0563C255.153 92.7951 254.56 92.7313 253.95 92.6944C253.932 92.7215 253.868 92.7097 253.804 92.4858C249.608 90.2907 245.358 88.9053 240.42 89.6716C238.183 89.4538 236.208 89.2164 234.225 88.7592C234.141 87.7666 234.065 86.9937 234.048 86.8208C236.078 86.0331 237.724 85.3943 239.629 84.731C243.555 85.3949 247.221 86.0835 251.031 86.9128C251.697 87.1743 252.219 87.2952 252.742 87.4161C252.742 87.4161 252.766 87.3564 252.898 87.5097C253.594 87.7949 254.159 87.9267 254.723 88.0585C254.723 88.0585 254.72 87.9756 254.852 88.1468C263.068 90.5998 270.39 94.511 277.643 99.0171C278.034 99.2977 278.296 99.406 278.551 99.4835C278.544 99.4526 278.484 99.4718 278.574 99.6427C279.007 99.9907 279.35 100.168 279.699 100.293C279.706 100.241 279.602 100.251 279.698 100.403C280.01 100.652 280.226 100.748 280.44 100.812C280.437 100.78 280.374 100.796 280.496 100.983C285.992 103.27 291.365 105.37 296.738 107.47C296.738 107.47 296.823 107.6 297.033 107.675C297.443 107.84 297.651 107.872 297.868 107.846C297.868 107.846 297.923 107.981 297.994 107.968Z" fill="#00100B"/>
<path d="M239.366 84.7542C237.72 85.393 236.075 86.0317 234.045 86.8194C234.062 86.9923 234.138 87.7652 233.97 88.7925C233.051 89.0375 232.376 89.0282 231.474 88.8857C225.173 89.2795 219.1 89.8065 213.026 90.3334C213.957 89.5939 214.888 88.8544 215.819 88.1149C215.798 87.8531 215.776 87.5913 215.754 87.3295C212.606 87.6725 209.458 88.0155 206.013 88.2946C206.963 87.7768 208.211 87.3229 209.633 86.7308C210.162 86.5667 210.518 86.5408 211.304 86.402C220.84 83.8834 230.05 83.3654 239.366 84.7542Z" fill="#00100B"/>
<path d="M199.613 307.657C200.025 306.539 200.437 305.422 201.011 303.894C201.526 301.931 201.88 300.379 202.351 298.314C200.506 299.22 199.285 299.819 198.064 300.419C198.064 300.419 198.123 300.437 197.886 300.463C195.062 301.588 192.475 302.688 189.916 303.577C191.326 300.926 188.731 301.18 187.991 300.129C189.228 299.43 190.322 298.876 191.416 298.323C191.416 298.323 191.42 298.356 191.655 298.283C197.081 295.714 202.272 293.218 207.463 290.722C207.463 290.722 207.616 290.719 207.798 290.549C208.475 289.845 208.97 289.311 209.466 288.777C209.466 288.777 209.545 288.749 209.676 288.6C209.932 288.273 210.016 288.078 210.059 287.865C210.059 287.865 209.957 287.85 210.116 287.812C210.37 287.557 210.464 287.341 210.559 287.124C211.23 285.476 211.902 283.828 213.02 282.028C213.942 281.402 214.81 280.943 214.829 280.451C214.952 277.235 214.892 274.013 214.892 270.656C214.543 270.955 214.168 271.276 213.793 271.598C213.191 271.657 212.588 271.717 211.493 271.734C210.181 272.073 209.361 272.454 208.542 272.835C208.022 273.063 207.502 273.292 206.579 273.355C205.033 273.126 203.889 273.063 202.745 273C202.658 272.534 202.726 271.814 202.455 271.648C201.604 271.127 200.625 270.814 199.757 270.112C201.425 269.331 203.03 268.857 204.833 268.41C205.359 268.279 205.69 268.121 206.265 267.919C208.321 267.28 210.131 266.684 211.895 266.089C211.849 266.09 211.873 266.18 212.084 266.122C212.798 265.821 213.302 265.578 213.776 265.326C213.746 265.318 213.743 265.38 213.966 265.342C215.129 264.877 216.068 264.449 216.968 264.009C216.93 263.998 216.915 264.076 217.089 264.046C217.44 263.87 217.619 263.725 217.781 263.622C217.766 263.664 217.852 263.69 218.013 263.627C218.467 263.389 218.761 263.214 219.052 262.97C219.048 262.901 219.094 263.031 219.275 262.952C219.89 262.595 220.323 262.318 220.984 262.026C223.646 260.372 226.081 258.733 228.672 257.029C229.043 256.887 229.255 256.811 229.697 256.718C230.235 256.256 230.544 255.81 230.861 255.412C230.868 255.46 230.772 255.456 231.006 255.413C232.075 255.265 232.91 255.159 233.98 255.024C233.34 256.677 232.878 257.871 232.257 259.209C227.938 261.981 223.833 264.702 219.588 267.183C218.143 268.028 217.447 268.755 217.452 270.561C217.462 274.168 217.451 277.852 216.756 281.367C215.762 286.389 215.173 291.96 209.434 294.274C207.558 295.03 207.082 296.255 206.594 297.946C205.275 302.518 203.747 307.03 202.102 311.675C200.203 313.165 201.036 316.823 197.569 316.361C197.665 315.449 197.757 314.788 197.85 314.126C197.85 314.126 197.74 314.131 197.911 314.006C198.432 312.473 198.783 311.066 199.133 309.659C199.133 309.659 199.042 309.656 199.206 309.54C199.451 308.835 199.532 308.246 199.613 307.657Z" fill="#00100B"/>
<path d="M187.855 300.276C188.739 301.181 191.334 300.927 189.921 303.572C189.891 303.775 189.903 303.786 189.673 303.795C188.981 304.131 188.518 304.458 187.967 304.886C187.622 305.051 187.366 305.115 186.87 305.181C186.251 305.432 185.871 305.679 185.494 305.907C185.499 305.887 185.511 305.928 185.277 305.885C183.877 306.441 182.71 307.039 181.543 307.638C172.15 313.916 162.514 319.89 154.801 328.903C154.306 329.303 154.16 329.511 154.013 329.718C154.013 329.718 154.015 329.598 153.906 329.685C153.68 329.982 153.562 330.192 153.443 330.402C153.443 330.402 153.435 330.283 153.336 330.359C153.178 330.642 153.119 330.849 153.06 331.057C153.06 331.057 153.049 331.136 152.815 331.168C152.415 331.532 152.249 331.865 152.083 332.199C152.083 332.199 152.062 332.125 151.948 332.22C151.737 332.53 151.641 332.747 151.544 332.963C151.544 332.963 151.538 332.878 151.352 332.929C150.879 333.601 150.593 334.223 150.307 334.845C150.307 334.845 150.276 334.781 150.116 334.864C149.804 335.307 149.651 335.668 149.499 336.029C149.499 336.029 149.485 335.975 149.361 336.066C149.12 336.36 149.003 336.563 148.887 336.767C148.887 336.767 148.887 336.688 148.825 336.71C148.763 336.731 148.591 336.925 148.591 336.925L148.716 337.177C148.531 337.502 148.346 337.827 147.869 338.393C147.394 339.29 147.211 339.945 147.028 340.6C147.028 340.6 146.993 340.506 146.84 340.64C146.564 341.235 146.439 341.697 146.315 342.158C146.245 342.592 146.174 343.026 145.989 343.581C145.006 345.294 144.138 346.885 143.271 348.477C142.979 348.456 142.688 348.435 142.396 348.415C142.588 346.717 142.636 344.988 143.007 343.33C143.485 341.189 144.221 339.105 144.825 336.735C144.804 336.473 144.826 336.515 144.959 336.408C145.238 335.957 145.384 335.613 145.529 335.269C145.745 334.776 145.96 334.284 146.206 333.588C146.475 333.121 146.713 332.857 146.999 332.416C148.063 331.087 149.08 329.935 150.187 328.592C150.498 328.365 150.67 328.253 150.847 327.918C152.372 326.219 153.841 324.668 155.423 322.934C155.535 322.752 155.535 322.735 155.726 322.636C157.001 321.459 158.085 320.381 159.169 319.302C159.169 319.302 159.118 319.289 159.28 319.242C159.488 318.986 159.534 318.776 159.581 318.567C161.626 316.86 163.671 315.154 166.125 313.298C168.199 311.925 169.864 310.701 171.529 309.478C171.529 309.478 171.732 309.453 171.949 309.248C175.942 306.861 179.716 304.679 183.721 302.495C184.645 302.086 185.339 301.677 186.167 301.104C186.819 300.719 187.337 300.497 187.855 300.276Z" fill="#00100B"/>
<path d="M202.59 273.13C203.894 273.066 205.038 273.129 206.371 273.34C201.679 274.377 196.799 275.275 191.915 276.15C190.572 276.391 189.217 276.565 187.597 276.729C188.405 276.282 189.454 275.75 190.567 275.496C193.074 274.926 195.611 274.493 198.382 273.779C198.951 273.357 199.273 273.162 199.596 272.967C200.54 273.064 201.485 273.16 202.59 273.13Z" fill="#00100B"/>
<path d="M213.843 271.894C214.175 271.277 214.55 270.956 214.899 270.657C214.899 274.013 214.959 277.236 214.835 280.451C214.816 280.943 213.949 281.403 213.211 281.892C213.261 278.668 213.573 275.429 213.843 271.894Z" fill="#00100B"/>
<path d="M162.578 276.226C163.829 276.013 165.36 275.537 166.867 275.605C169.282 275.714 171.681 276.183 174.283 276.677C170.601 276.638 166.725 276.423 162.578 276.226Z" fill="#00100B"/>
<path d="M176.017 276.981C179.007 276.737 182.291 276.564 185.79 276.541C182.774 276.812 179.543 276.931 176.017 276.981Z" fill="#00100B"/>
<path d="M208.775 272.812C209.362 272.455 210.181 272.074 211.266 271.714C210.69 272.086 209.848 272.437 208.775 272.812Z" fill="#00100B"/>
<path d="M324.242 123.387C318.414 123.808 312.381 124.009 306.059 124.228C307.279 123.765 308.782 122.902 310.3 122.876C314.876 122.798 319.458 123.045 324.242 123.387Z" fill="#00100B"/>
<path d="M279.633 129.344C276.376 130.394 272.925 131.307 269.213 132.234C272.448 131.234 275.943 130.221 279.633 129.344Z" fill="#00100B"/>
<path d="M305.393 123.94C304.091 124.33 302.51 124.681 300.682 125.024C301.993 124.644 303.553 124.272 305.393 123.94Z" fill="#00100B"/>
<path d="M265.842 132.872C264.611 133.342 263.091 133.803 261.29 134.32C262.523 133.871 264.038 133.366 265.842 132.872Z" fill="#00100B"/>
<path d="M268.772 132.221C268.288 132.431 267.563 132.642 266.605 132.85C267.091 132.64 267.811 132.431 268.772 132.221Z" fill="#00100B"/>
<path d="M282.26 128.744C281.948 128.946 281.489 129.025 280.8 129.146C281.085 128.999 281.599 128.81 282.26 128.744Z" fill="#00100B"/>
<path d="M319.075 173.151C319.059 173.04 319.189 172.867 319.485 172.659C319.507 172.779 319.365 172.934 319.075 173.151Z" fill="#00100B"/>
<path d="M179.551 143.502C179.582 143.374 179.695 143.342 179.983 143.337C179.983 143.441 179.808 143.52 179.551 143.502Z" fill="#00100B"/>
<path d="M220.139 256.882C215.041 258.577 209.974 260.374 204.835 261.937C199.35 263.605 193.797 265.052 187.834 266.8C184.528 267.838 181.663 268.673 178.798 269.507C178.798 269.507 178.844 269.374 178.557 269.39C177.422 269.68 176.574 269.954 175.646 270.168C175.355 270.058 175.199 270.14 174.929 270.49C173.813 270.985 172.869 271.345 171.925 271.705C169.661 271.475 167.396 271.246 165.031 270.787C169.595 268.773 174.258 266.989 178.922 265.205C179.304 265.15 179.687 265.096 180.408 264.879C181.232 264.249 181.716 263.782 182.201 263.315C184.874 262.825 187.546 262.335 190.64 261.638C191.872 261.203 192.686 260.989 193.492 260.747C199.174 259.038 204.854 257.323 210.534 255.61C210.534 255.61 210.814 255.591 211.171 255.651C212.05 255.473 212.573 255.235 213.095 254.997C213.095 254.997 213.047 254.987 213.291 254.998C214.25 254.795 214.966 254.58 215.683 254.366C215.683 254.366 215.621 254.332 215.882 254.346C217.735 253.75 219.326 253.14 220.917 252.53C220.917 252.53 220.84 252.519 221.034 252.508C221.478 252.422 221.728 252.347 222.029 252.487C222.5 253.463 222.922 254.224 223.344 254.986C223.344 254.986 223.307 254.931 223.135 254.978C222.672 255.26 222.38 255.495 222.088 255.73C222.088 255.73 222.082 255.678 221.904 255.688C221.436 255.951 221.146 256.204 220.856 256.457C220.856 256.457 220.848 256.394 220.74 256.37C220.468 256.525 220.304 256.704 220.139 256.882Z" fill="#00100B"/>
<path d="M83.933 288.214C87.1017 288.54 90.368 289.065 94.1313 289.617C95.7437 289.782 96.8592 289.919 97.9746 290.057C98.2616 290.124 98.5486 290.192 99.0504 290.318C97.0127 290.342 94.7299 290.524 92.515 290.217C89.6585 289.82 86.8563 289.032 83.933 288.214Z" fill="#00100B"/>
<path d="M81.31 287.509C81.5965 287.441 81.9269 287.52 82.3976 287.698C82.1433 287.749 81.7486 287.702 81.31 287.509Z" fill="#00100B"/>
<path d="M81.0575 289.504C80.8769 289.41 80.8003 289.291 80.7236 289.173C80.8142 289.149 80.9628 289.081 80.985 289.11C81.0665 289.216 81.1061 289.354 81.0575 289.504Z" fill="#00100B"/>
<path d="M164.869 272.671C164.988 272.532 165.157 272.473 165.331 272.447C165.357 272.443 165.406 272.586 165.445 272.661C165.271 272.695 165.096 272.729 164.869 272.671Z" fill="#00100B"/>
<path d="M199.405 272.979C199.279 273.16 198.956 273.355 198.444 273.582C198.573 273.406 198.89 273.199 199.405 272.979Z" fill="#00100B"/>
<path d="M447.344 320.204C437.45 322.304 427.288 323.257 416.844 322.124C424.841 321.423 432.997 320.945 441.153 320.459C443.15 320.34 445.145 320.197 447.344 320.204Z" fill="#00100B"/>
<path d="M316.196 283.631C317.168 283.576 318.177 283.725 319.438 283.932C318.537 283.938 317.385 283.887 316.196 283.631Z" fill="#00100B"/>
<path d="M452.85 318.612C452.496 318.815 451.883 319.012 451.021 319.253C451.378 319.067 451.985 318.836 452.85 318.612Z" fill="#00100B"/>
<path d="M150.698 217.778C152.66 217.087 154.622 216.395 156.688 215.877C156.238 216.4 155.682 216.747 155.757 216.7C158.025 217.885 160.39 219.121 162.523 220.301C157.456 217.16 153.029 218.74 148.997 221.751C143.017 226.217 137.235 230.949 131.208 235.59C130.701 235.87 130.356 236.129 129.881 236.413C129.751 236.439 129.625 236.672 129.465 236.777C128.488 237.503 127.671 238.123 126.646 238.805C126.233 239.055 126.027 239.244 125.752 239.414C125.683 239.394 125.623 239.524 125.45 239.543C125.132 239.73 124.988 239.898 124.838 240.076C124.833 240.086 124.816 240.07 124.645 240.107C124.212 240.368 123.951 240.591 123.69 240.813C117.491 244.055 111.293 247.296 104.87 250.595C104.274 250.019 103.902 249.385 103.424 248.483C103.373 248.12 103.429 248.024 103.561 247.977C103.637 248.025 103.758 247.892 103.987 247.887C105.417 247.29 106.619 246.697 107.79 246.102C107.76 246.1 107.776 246.158 107.914 246.126C108.053 246.094 108.274 245.915 108.505 245.894C113.517 243.353 118.299 240.833 123.258 238.295C123.67 238.044 123.906 237.811 124.256 237.434C124.572 237.159 124.774 237.029 125.198 236.949C126.412 236.361 127.404 235.724 128.518 235.069C128.804 234.987 128.909 234.868 129.168 234.614C135.485 229.771 141.587 225.011 147.92 220.247C149 219.422 149.849 218.6 150.698 217.778Z" fill="#00100B"/>
<path d="M129.08 225.894C129.964 225.207 130.706 224.647 131.58 223.937C132.529 223.062 133.346 222.337 134.302 221.46C134.807 220.975 135.172 220.641 135.862 220.421C136.695 221.363 137.203 222.19 137.594 223.178C137.18 223.59 136.88 223.842 136.364 224.148C133.789 225.889 131.432 227.576 128.905 229.311C128.549 229.499 128.362 229.639 128.007 229.825C127.734 229.92 127.629 229.97 127.525 230.02C127.506 229.443 127.486 228.866 127.452 228.001C127.937 227.149 128.437 226.586 129.08 225.894Z" fill="#00100B"/>
<path d="M125.03 228.86C125.278 228.458 125.573 228.23 126.057 228.001C125.857 228.345 125.467 228.689 125.03 228.86Z" fill="#00100B"/>
<path d="M126.969 230.458C126.611 230.864 126.031 231.288 125.238 231.761C125.599 231.366 126.173 230.922 126.969 230.458Z" fill="#00100B"/>
<path d="M104.467 250.669C104.464 250.789 104.3 250.934 103.968 251.082C103.969 250.954 104.137 250.824 104.467 250.669Z" fill="#00100B"/>
<path d="M168.681 129.613C169.194 128.192 169.706 126.771 170.507 125.308C170.794 125.267 170.966 125.408 170.905 125.6C170.645 126.29 170.447 126.789 170.249 127.288C170.249 127.288 170.185 127.346 170.076 127.545C169.575 128.397 169.182 129.05 168.762 129.681C168.735 129.658 168.681 129.613 168.681 129.613Z" fill="#00100B"/>
<path d="M166.814 132.883C167.259 131.798 167.752 130.759 168.463 129.667C168.68 129.614 168.735 129.659 168.735 129.896C168.457 130.786 168.178 131.439 167.899 132.092C167.899 132.092 167.956 132.097 167.799 132.173C167.414 132.505 167.186 132.762 166.959 133.018C166.959 133.018 166.862 132.929 166.814 132.883Z" fill="#00100B"/>
<path d="M198.213 91.6179C198.256 91.3898 198.562 91.1786 199.001 90.8293C199.54 90.57 199.946 90.4489 200.56 90.2856C200.005 90.7073 199.24 91.171 198.213 91.6179Z" fill="#00100B"/>
<path d="M180.221 111.074C180.448 111.054 180.383 111.346 180.362 111.494C180.341 111.642 180.27 111.649 180.101 111.773C179.435 112.488 178.938 113.08 178.413 113.646C178.385 113.621 178.324 113.576 178.324 113.576C178.881 112.749 179.438 111.922 180.221 111.074Z" fill="#00100B"/>
<path d="M202.209 89.8367C202.67 89.3882 203.271 89.0794 204.076 88.7446C203.637 89.138 202.993 89.5572 202.209 89.8367Z" fill="#00100B"/>
<path d="M176.354 116.281C176.523 116.422 176.454 116.618 176.161 117.068C175.537 117.848 175.111 118.364 174.637 118.842C174.589 118.803 174.49 118.729 174.49 118.729C175.041 117.934 175.593 117.139 176.354 116.281Z" fill="#00100B"/>
<path d="M164.831 126.226C164.79 125.97 164.915 125.596 165.2 125.104C165.239 125.361 165.118 125.735 164.831 126.226Z" fill="#00100B"/>
<path d="M170.702 125.199C170.735 124.781 170.853 124.433 171.219 124.052C171.467 124.018 171.683 124.199 171.63 124.37C171.371 124.831 171.165 125.12 170.959 125.409C170.959 125.409 170.788 125.269 170.702 125.199Z" fill="#00100B"/>
<path d="M171.365 123.925C171.379 123.488 171.5 123.142 171.872 122.778C172.123 122.759 172.347 122.971 172.294 123.138C172.057 123.602 171.873 123.9 171.689 124.197C171.689 124.197 171.473 124.016 171.365 123.925Z" fill="#00100B"/>
<path d="M172.553 121.94C172.674 121.587 172.794 121.234 173.139 120.826C173.363 120.771 173.525 120.907 173.457 121.079C173.164 121.526 172.938 121.802 172.674 122.042C172.635 122.007 172.553 121.94 172.553 121.94Z" fill="#00100B"/>
<path d="M204.639 88.7577C204.764 88.5385 205.09 88.3882 205.594 88.2026C205.461 88.3871 205.151 88.6069 204.639 88.7577Z" fill="#00100B"/>
<path d="M177.57 115.437C177.57 115.437 177.318 115.462 177.198 115.503C177.189 115.18 177.3 114.816 177.598 114.368C177.786 114.285 177.876 114.372 177.833 114.552C177.717 114.967 177.643 115.202 177.57 115.437Z" fill="#00100B"/>
<path d="M173.826 120C173.95 119.652 174.073 119.304 174.345 118.843C174.494 118.729 174.593 118.803 174.594 119.022C174.367 119.514 174.14 119.787 173.892 120.045C173.871 120.028 173.826 120 173.826 120Z" fill="#00100B"/>
<path d="M165.478 124.93C165.438 124.664 165.567 124.271 165.864 123.756C165.903 124.024 165.775 124.414 165.478 124.93Z" fill="#00100B"/>
<path d="M212.305 90.4323C212.353 90.6342 212.216 90.8175 211.912 90.9534C211.743 90.9061 211.735 90.6632 211.737 90.5354C211.739 90.4077 211.752 90.3916 211.752 90.3916C211.875 90.3989 211.998 90.4062 212.305 90.4323Z" fill="#00100B"/>
<path d="M211.735 90.4165C211.727 90.4229 211.521 90.272 211.521 90.272C211.521 90.272 211.691 90.2751 211.723 90.3345C211.755 90.3939 211.743 90.4101 211.735 90.4165Z" fill="#00100B"/>
<path d="M173.286 120.703C173.284 120.442 173.404 120.282 173.697 120.078C173.828 120.002 173.872 120.03 173.87 120.204C173.823 120.599 173.71 120.775 173.529 120.908C173.529 120.908 173.367 120.772 173.286 120.703Z" fill="#00100B"/>
<path d="M166.337 123.059C166.185 122.934 166.248 122.746 166.566 122.524C166.644 122.635 166.554 122.803 166.337 123.059Z" fill="#00100B"/>
<path d="M172.008 122.655C171.988 122.363 172.116 122.207 172.418 122.011C172.553 121.941 172.635 122.008 172.642 122.204C172.548 122.591 172.446 122.782 172.343 122.973C172.343 122.973 172.119 122.761 172.008 122.655Z" fill="#00100B"/>
<path d="M176.962 115.598C177.002 115.708 176.903 115.92 176.645 116.213C176.598 116.097 176.71 115.898 176.962 115.598Z" fill="#00100B"/>
<path d="M177.746 114.238C177.779 114 177.899 113.841 178.197 113.645C178.331 113.574 178.392 113.62 178.382 113.802C178.207 114.113 178.043 114.242 177.878 114.371C177.878 114.371 177.789 114.284 177.746 114.238Z" fill="#00100B"/>
<path d="M309.263 264.435C308.934 265.044 308.449 265.526 307.779 266.105C308.098 265.57 308.603 264.939 309.263 264.435Z" fill="#00100B"/>
<path d="M325.065 220.038C324.897 220.113 324.862 220.009 324.775 219.747C324.78 218.699 324.839 217.809 324.956 216.657C325.077 217.549 325.138 218.703 325.065 220.038Z" fill="#00100B"/>
<path d="M305.498 267.874C305.374 268.234 305.036 268.62 304.516 269.08C304.651 268.736 304.967 268.317 305.498 267.874Z" fill="#00100B"/>
<path d="M304.184 264.548C304.339 264.174 304.729 263.767 305.315 263.274C305.147 263.63 304.783 264.072 304.184 264.548Z" fill="#00100B"/>
<path d="M307.041 266.658C307.045 266.776 306.856 266.979 306.475 267.268C306.472 267.151 306.66 266.947 307.041 266.658Z" fill="#00100B"/>
<path d="M305.607 263.146C305.458 263.249 305.522 262.944 305.54 262.789C305.558 262.634 305.842 262.513 305.993 262.477C306.014 262.642 305.885 262.843 305.607 263.146Z" fill="#00100B"/>
<path d="M325.954 194.979C326.424 198.047 326.749 200.921 326.922 203.981C326.089 202.918 325.083 201.741 324.789 200.407C323.962 196.646 323.427 192.821 322.777 189.021C323.175 188.909 323.573 188.797 323.971 188.685C324.583 190.718 325.196 192.751 325.954 194.979Z" fill="#00100B"/>
<path d="M288.875 278.059C288.599 278.044 288.324 278.03 287.844 277.745C287.934 276.531 288.227 275.585 288.494 274.579C288.468 274.518 288.557 274.617 288.749 274.539C289.631 274.017 290.322 273.572 290.976 273.129C290.938 273.13 290.995 273.179 291.196 273.125C292.085 272.622 292.774 272.173 293.462 271.725C293.462 271.725 293.404 271.687 293.618 271.684C294.533 271.279 295.234 270.877 295.934 270.475C295.931 271.33 295.928 272.186 295.807 273.47C294.672 274.609 293.656 275.318 292.65 276.039C292.659 276.052 292.63 276.044 292.488 276.061C292.152 276.124 291.993 276.224 291.867 276.378C291.867 276.378 291.84 276.395 291.635 276.474C290.981 276.833 290.533 277.114 290.084 277.394C290.084 277.394 290.121 277.419 289.937 277.422C289.46 277.636 289.167 277.848 288.875 278.059Z" fill="#00100B"/>
<path d="M299.78 281.284L299.655 281.488C299.655 281.488 299.665 281.34 299.722 281.311C299.779 281.283 299.78 281.284 299.78 281.284Z" fill="#00100B"/>
<path d="M137.712 223.018C137.205 222.191 136.697 221.363 136.047 220.384C138.222 218.03 140.54 215.829 142.953 213.435C146.511 211.174 147.732 208.33 147.68 204.132C147.633 200.244 149.153 196.338 150.073 192.204C150.119 194.537 150.015 197.106 150.048 199.673C150.077 201.887 150.262 204.098 151.108 206.35C151.484 204.674 151.861 202.998 152.365 201.148C152.493 202.846 152.493 204.718 152.493 206.807C158.751 205.301 164.823 205.761 170.349 209.079C166.825 209.006 163.521 208.694 160.217 208.382C160.17 208.539 160.123 208.697 160.076 208.854C161.013 209.449 161.95 210.044 162.589 210.646C157.983 210.314 153.644 209.808 149.774 213.018C145.605 216.382 141.658 219.7 137.712 223.018ZM148.899 205.962C148.691 206.021 148.482 206.08 148.273 206.139C148.381 206.319 148.489 206.499 148.596 206.68C148.697 206.526 148.798 206.372 148.899 205.962Z" fill="#00100B"/>
<path d="M189.251 343.702C191.748 338.063 195.893 333.948 201.206 330.979C203.498 329.697 205.916 328.639 208.679 327.281C214.234 325.726 219.387 324.37 224.54 323.013C223.846 323.482 223.205 324.071 222.45 324.401C216.462 327.024 210.05 328.95 204.548 332.35C197.426 336.75 192.907 343.67 190.015 352.025C189.324 353.73 189 355.155 188.677 356.58C188.677 356.58 188.658 356.53 188.491 356.656C186.919 362.347 185.513 367.911 183.965 374.04C183.638 372.205 183.313 370.76 183.137 369.297C182.933 367.592 182.859 365.87 182.729 364.155C182.789 363.464 182.849 362.773 183.213 361.759C184.34 357.834 185.165 354.233 185.989 350.632C185.989 350.632 186.015 350.669 186.084 350.623C186.322 350.413 186.32 350.24 186.145 350.059C186.239 349.714 186.332 349.369 186.789 348.857C187.852 347.027 188.552 345.365 189.251 343.702Z" fill="#00100B"/>
<path d="M182.509 364.311C182.863 365.868 182.936 367.589 183.14 369.295C183.316 370.758 183.641 372.203 183.969 374.038C185.517 367.909 186.922 362.345 188.52 356.648C184.721 373.007 185.041 389.791 185.047 406.636C184.356 403.718 183.483 400.829 183.022 397.875C182.531 394.725 182.43 391.514 182.115 387.789C181.858 382.136 181.646 377.024 181.433 371.913C181.717 369.431 182.001 366.95 182.509 364.311Z" fill="#00100B"/>
<path d="M202.109 311.677C201.618 314.603 200.929 317.639 200.079 321.376C202.21 320.472 203.525 319.913 205.071 319.335C206.465 319.935 207.629 320.554 209.043 321.199C205.944 322.801 202.676 324.539 198.884 326.27C194.466 329.646 195.671 328.841 195.671 325.306C195.722 324.815 196.132 324.017 196.249 323.02C196.6 320.58 196.886 318.646 197.173 316.713C197.173 316.713 197.077 316.737 197.209 316.726C197.342 316.716 197.571 316.611 197.571 316.611C201.043 316.824 200.209 313.166 202.109 311.677Z" fill="#00100B"/>
<path d="M173.145 330.714C170.387 332.302 167.839 333.794 165.292 335.287C165.11 335.035 164.928 334.784 164.746 334.532C168.586 331.819 172.426 329.106 176.508 326.223C177.468 329.082 174.541 329.302 173.145 330.714Z" fill="#00100B"/>
<path d="M209.477 321.225C211.885 317.781 216.049 317.75 220.027 316.695C216.772 318.2 213.248 319.689 209.477 321.225Z" fill="#00100B"/>
<path d="M185.827 350.795C185.174 354.23 184.349 357.831 183.331 361.52C183.977 358.058 184.816 354.509 185.827 350.795Z" fill="#00100B"/>
<path d="M189.065 343.805C188.561 345.364 187.861 347.027 186.934 348.734C187.427 347.155 188.148 345.532 189.065 343.805Z" fill="#00100B"/>
<path d="M181.757 307.696C182.699 307.037 183.866 306.438 185.246 305.991C185.461 306.142 185.365 306.339 185.365 306.339C184.238 306.812 183.11 307.285 181.757 307.696Z" fill="#00100B"/>
<path d="M188.855 356.414C189.008 355.155 189.332 353.73 189.86 352.181C189.718 353.455 189.372 354.851 188.855 356.414Z" fill="#00100B"/>
<path d="M147.164 340.462C147.204 339.944 147.387 339.289 147.78 338.569C147.762 339.11 147.534 339.718 147.164 340.462Z" fill="#00100B"/>
<path d="M150.45 334.713C150.589 334.223 150.875 333.601 151.389 332.939C151.277 333.459 150.938 334.02 150.45 334.713Z" fill="#00100B"/>
<path d="M152.225 332.113C152.241 331.865 152.407 331.532 152.773 331.189C152.774 331.462 152.575 331.745 152.225 332.113Z" fill="#00100B"/>
<path d="M149.664 335.931C149.651 335.667 149.803 335.307 150.15 334.873C150.173 335.145 150.002 335.49 149.664 335.931Z" fill="#00100B"/>
<path d="M146.478 341.994C146.435 341.697 146.559 341.236 146.885 340.632C146.94 340.936 146.792 341.382 146.478 341.994Z" fill="#00100B"/>
<path d="M186.075 350.203C186.32 350.239 186.323 350.409 186.065 350.618C185.983 350.559 185.992 350.452 186.075 350.203Z" fill="#00100B"/>
<path d="M154.18 329.635C154.152 329.511 154.298 329.304 154.614 329.008C154.641 329.13 154.498 329.34 154.18 329.635Z" fill="#00100B"/>
<path d="M153.599 330.32C153.555 330.193 153.673 329.983 153.96 329.695C154.005 329.823 153.883 330.03 153.599 330.32Z" fill="#00100B"/>
<path d="M153.161 330.952C153.108 330.849 153.167 330.642 153.384 330.366C153.503 330.505 153.414 330.688 153.161 330.952Z" fill="#00100B"/>
<path d="M148.8 337.069C148.714 337.171 148.591 336.923 148.591 336.923C148.591 336.923 148.761 336.731 148.86 336.719C148.959 336.708 148.886 336.966 148.8 337.069Z" fill="#00100B"/>
<path d="M149.04 336.682C148.996 336.562 149.113 336.359 149.382 336.063C149.423 336.18 149.311 336.39 149.04 336.682Z" fill="#00100B"/>
<path d="M151.702 332.872C151.642 332.747 151.738 332.531 151.987 332.215C152.046 332.338 151.953 332.559 151.702 332.872Z" fill="#00100B"/>
<path d="M220.925 316.577C220.945 316.462 221.131 316.356 221.486 316.257C221.467 316.372 221.28 316.479 220.925 316.577Z" fill="#00100B"/>
<path d="M219.135 319.533C219.11 319.544 219.16 319.523 219.135 319.533V319.533Z" fill="#00100B"/>
<path d="M408.338 377.422C407.713 377.624 407.023 377.629 406.074 377.605C406.635 377.458 407.454 377.341 408.338 377.422Z" fill="#00100B"/>
<path d="M403.937 375.078C404.54 374.792 405.27 374.667 406.224 374.57C405.654 374.811 404.859 375.026 403.937 375.078Z" fill="#00100B"/>
<path d="M407.926 374.688C408.046 374.498 408.336 374.44 408.831 374.298C409.331 374.212 409.626 374.211 410.139 374.248C409.603 374.464 408.849 374.642 407.926 374.688Z" fill="#00100B"/>
<path d="M411.436 374.354C411.669 374.233 412.205 374.149 412.845 374.257C412.546 374.429 412.142 374.409 411.436 374.354Z" fill="#00100B"/>
<path d="M400.751 375.191C400.787 375.082 400.892 375.05 401.157 375.052C401.318 375.087 401.101 375.297 401.101 375.297C401.101 375.297 400.819 375.269 400.751 375.191Z" fill="#00100B"/>
<path d="M293.198 448.667C292.643 449.282 291.761 450.311 291.073 450.195C287.168 449.535 283.309 448.603 279.327 447.562C280.346 447.481 281.473 447.601 282.842 447.692C286.377 447.959 289.669 448.256 293.198 448.667Z" fill="#00100B"/>
<path d="M222.689 426.914C222.339 426.825 221.906 426.567 221.419 426.113C221.778 426.192 222.192 426.468 222.689 426.914Z" fill="#00100B"/>
<path d="M224.556 428.278C224.435 428.351 224.277 428.249 224.05 428.007C224.196 427.85 224.375 427.929 224.556 428.278Z" fill="#00100B"/>
<path d="M223.47 427.555C223.349 427.597 223.131 427.471 222.8 427.19C222.916 427.152 223.144 427.269 223.47 427.555Z" fill="#00100B"/>
<path d="M194.082 428.769C194.069 428.741 194.094 428.796 194.082 428.769V428.769Z" fill="#00100B"/>
<path d="M340.73 446.107C339.668 446.421 338.428 446.723 336.91 446.995C337.594 446.736 338.556 446.509 339.696 446.099C340.1 445.977 340.327 446.036 340.73 446.107Z" fill="#00100B"/>
<path d="M343.934 445.539C343.635 445.747 343.077 445.936 342.365 445.997C342.699 445.752 343.187 445.636 343.934 445.539Z" fill="#00100B"/>
<path d="M145.349 335.353C145.377 335.612 145.232 335.955 144.929 336.409C144.906 336.159 145.041 335.799 145.349 335.353Z" fill="#00100B"/>
<path d="M223.548 254.932C222.932 254.223 222.511 253.461 222.149 252.304C223.111 251.233 224.011 250.558 224.912 249.883C226.261 248.459 227.771 247.153 228.922 245.584C230.762 243.074 231.137 240.362 229.171 237.648C227.365 235.154 225.879 232.326 223.68 230.253C221.932 228.606 219.355 227.798 217.076 226.774C215.74 226.174 214.267 225.88 212.755 225.215C213.08 223.894 213.505 222.806 213.929 221.718C216.694 222.488 219.46 223.259 222.622 224.228C223.279 224.475 223.538 224.524 223.798 224.574C223.798 224.574 223.852 224.529 224.048 224.725C225.8 225.474 227.385 225.96 228.907 226.597C230.464 227.249 230.347 228.169 228.885 229.181C229.132 230.24 229.438 231.348 230.086 232.197C234.184 237.569 234.175 243.05 230.714 248.685C230.714 248.685 230.571 248.729 230.462 248.901C230.228 249.218 230.143 249.383 230.1 249.57C230.1 249.57 230.384 249.703 230.079 249.761C228.43 251.079 227.087 252.338 225.744 253.598C225.077 254.025 224.41 254.452 223.548 254.932Z" fill="#00100B"/>
<path d="M162.89 210.639C161.953 210.044 161.016 209.45 160.079 208.855C160.126 208.697 160.173 208.54 160.22 208.382C163.524 208.695 166.828 209.007 170.389 209.316C172.104 211.072 173.819 210.997 175.594 209.916C176.931 209.102 178.198 208.172 179.628 207.121C179.761 206.949 179.742 206.936 179.98 206.879C183.005 205.906 185.791 204.991 188.578 204.076C190.812 204.204 193.045 204.332 195.421 204.812C197.367 206.475 199.171 207.786 201.415 209.417C200.362 209.9 199.529 210.282 198.696 210.663C195.936 209.992 193.175 209.321 189.874 208.652C183.67 208.586 179.632 211.544 176.231 215.689C176.231 215.689 175.97 215.684 175.633 215.723C174.833 215.71 174.371 215.657 173.908 215.604C173.908 215.604 173.896 215.666 173.852 215.503C173.593 215.265 173.377 215.191 173.161 215.117C173.161 215.117 173.038 214.977 172.844 214.826C172.399 214.558 172.147 214.442 171.895 214.326C171.895 214.326 171.921 214.404 171.853 214.18C170.295 213.375 168.805 212.793 167.185 212.002C166.436 211.633 165.817 211.473 165.091 211.336C164.983 211.358 164.815 211.217 164.758 211.137C164.526 210.924 164.359 210.945 164.02 211.135C163.522 210.98 163.206 210.81 162.89 210.639Z" fill="#00100B"/>
<path d="M229.098 229.112C230.343 228.171 230.461 227.251 228.903 226.599C227.382 225.962 225.797 225.476 224.073 224.748C226.906 225.071 229.905 225.571 233.15 226.09C241.179 231.108 243.559 240.723 239.206 250.026C238.312 251.937 237.028 253.667 235.913 255.729C235.901 255.977 235.85 255.998 235.85 255.998C234.84 256.968 233.829 257.938 232.62 258.987C232.884 257.873 233.346 256.679 233.986 255.026C232.916 255.161 232.081 255.266 231.012 255.415C230.813 255.245 230.894 255.051 231.261 254.654C231.826 254.004 232.152 253.579 232.479 253.153C232.479 253.153 232.368 253.065 232.571 253.035C232.952 252.695 233.132 252.386 233.311 252.077C233.311 252.077 233.335 252.052 233.496 251.93C233.891 251.382 234.125 250.956 234.36 250.53C234.36 250.53 234.291 250.499 234.475 250.43C234.819 250.012 234.979 249.665 235.138 249.317C235.138 249.317 235.066 249.291 235.25 249.173C240.19 241.152 237.524 231.113 229.098 229.112Z" fill="#00100B"/>
<path d="M261.485 181.184C258.227 181.316 255.225 181.382 252.056 181.237C253.506 180.372 255.12 179.718 256.99 179.042C258.648 179.245 260.052 179.47 262.116 179.8C258.767 176.212 255.003 175.056 251.027 174.328C251.027 174.328 251.004 174.443 250.894 174.297C250.193 174.061 249.602 173.971 249.059 173.693C249.528 173.012 249.948 172.52 250.684 171.656C246.389 171.138 242.579 170.679 238.77 170.22C245.271 168.594 251.186 170.184 257.008 173.58C257.587 173.938 257.945 174.219 258.557 174.727C259.162 175.117 259.514 175.28 259.865 175.442C260.883 176.467 261.952 177.447 262.896 178.535C263.329 179.034 263.517 179.745 263.816 180.359C263.124 180.612 262.433 180.865 261.485 181.184Z" fill="#00100B"/>
<path d="M216.966 185.019C215.13 186.635 213.293 188.251 211.296 190.067C211.135 190.265 211.109 190.322 211.083 190.339C209.026 191.835 206.995 193.314 204.963 194.794C204.665 194.495 204.367 194.197 204.069 193.899C207.533 190.064 210.998 186.23 214.684 182.563C215.592 183.494 216.279 184.256 216.966 185.019Z" fill="#00100B"/>
<path d="M198.809 210.85C199.525 210.279 200.358 209.897 201.411 209.415C199.167 207.784 197.363 206.473 195.613 204.99C201.434 205.837 204.337 210.294 207.184 214.725C205.604 214.905 204.226 214.938 202.849 214.97C201.542 213.66 200.234 212.35 198.809 210.85Z" fill="#00100B"/>
<path d="M202.888 215.154C204.226 214.938 205.603 214.906 207.268 214.94C207.737 215.051 207.852 215.162 207.94 215.674C208.25 216.301 208.522 216.595 208.795 216.888C208.795 216.888 208.695 216.891 208.693 217.058C209.066 217.581 209.442 217.938 209.817 218.295C209.817 218.295 209.804 218.3 209.85 218.486C210.174 218.921 210.451 219.169 210.728 219.417C210.728 219.417 210.613 219.434 210.672 219.551C210.918 219.821 211.103 219.974 211.289 220.126C211.289 220.126 211.178 220.134 211.271 220.238C211.577 220.452 211.789 220.563 212.002 220.673C212.002 220.673 211.905 220.68 211.958 220.859C212.632 221.265 213.253 221.491 213.873 221.718C213.873 221.718 213.897 221.718 213.91 221.718C213.497 222.806 213.073 223.895 212.53 225.114C211.365 224.623 210.319 224.001 209.104 223.031C208.759 222.523 208.582 222.362 208.405 222.201C208.19 222.182 208.026 222.08 207.803 221.607C207.539 221.171 207.385 221.022 207.231 220.873C207.231 220.873 207.235 220.872 207.157 220.748C206.964 220.462 206.825 220.324 206.662 220.211C206.662 220.211 206.605 220.196 206.593 219.936C205.698 218.585 204.816 217.494 203.934 216.403C203.598 216.047 203.263 215.692 202.888 215.154Z" fill="#00100B"/>
<path d="M213.71 221.627C213.254 221.493 212.634 221.266 211.969 220.813C212.464 220.902 213.005 221.218 213.71 221.627Z" fill="#00100B"/>
<path d="M209.785 218.103C209.445 217.937 209.07 217.58 208.705 217.008C209.06 217.165 209.405 217.539 209.785 218.103Z" fill="#00100B"/>
<path d="M208.741 216.69C208.524 216.595 208.252 216.301 207.957 215.798C208.184 215.89 208.435 216.191 208.741 216.69Z" fill="#00100B"/>
<path d="M210.659 219.242C210.451 219.168 210.174 218.92 209.855 218.479C210.072 218.547 210.331 218.807 210.659 219.242Z" fill="#00100B"/>
<path d="M211.926 220.51C211.797 220.563 211.585 220.453 211.282 220.183C211.408 220.131 211.626 220.239 211.926 220.51Z" fill="#00100B"/>
<path d="M211.226 219.954C211.1 219.975 210.915 219.822 210.672 219.494C210.799 219.472 210.983 219.626 211.226 219.954Z" fill="#00100B"/>
<path d="M223.65 224.431C223.54 224.526 223.28 224.476 222.854 224.319C222.959 224.236 223.23 224.262 223.65 224.431Z" fill="#00100B"/>
<path d="M113.716 151.796C113.703 151.768 113.729 151.824 113.716 151.796V151.796Z" fill="#00100B"/>
<path d="M153.441 196.025C153.474 197.293 153.281 198.695 152.861 200.231C152.828 198.963 153.022 197.561 153.441 196.025Z" fill="#00100B"/>
<path d="M253.811 92.485C249.65 91.7323 245.426 90.7558 240.946 89.7153C245.365 88.9045 249.614 90.2899 253.811 92.485Z" fill="#00100B"/>
<path d="M255.871 93.0566C255.442 93.137 254.884 93.0201 254.146 92.7855C254.558 92.7316 255.15 92.7954 255.871 93.0566Z" fill="#00100B"/>
<path d="M229.848 255.62C230.072 255.563 230.296 255.507 230.689 255.408C230.548 255.812 230.238 256.257 229.769 256.536C229.689 256.119 229.769 255.87 229.848 255.62Z" fill="#00100B"/>
<path d="M183.717 302.496C184.195 302.096 184.904 301.696 185.82 301.283C185.334 301.678 184.64 302.087 183.717 302.496Z" fill="#00100B"/>
<path d="M223.988 94.4941C228.822 94.5115 233.656 94.5289 238.915 94.6434C242.565 95.4089 245.789 96.0773 249.013 96.7457C249.273 96.8294 249.533 96.9131 250.173 97.1505C252.602 98.0321 254.65 98.7599 256.697 99.4878C257.004 99.677 257.31 99.8663 257.905 100.245C258.547 100.547 258.901 100.658 259.255 100.769C259.255 100.769 259.258 100.718 259.375 100.902C260.779 101.71 262.066 102.334 263.352 102.958C263.352 102.958 263.419 103.01 263.58 103.116C263.957 103.275 264.172 103.328 264.388 103.382C266.64 104.805 268.892 106.228 271.306 108.081C271.418 109.066 271.367 109.622 271.317 110.177C260.665 101.147 248.208 96.694 234.412 95.7566C232.198 95.6062 229.946 96.005 227.318 95.9645C225.946 95.3508 224.967 94.9225 223.988 94.4941Z" fill="#00100B"/>
<path d="M223.722 94.4863C224.96 94.9214 225.939 95.3497 227.044 95.9424C225.348 96.4026 223.525 96.6984 221.504 97.141C215.773 98.6245 210.241 99.9612 204.709 101.298C210.361 97.3254 216.697 95.3035 223.722 94.4863Z" fill="#00100B"/>
<path d="M277.421 112.689C277.051 113.269 276.567 113.652 276.03 114.277C274.507 113.173 273.037 111.827 271.442 110.329C271.367 109.62 271.417 109.065 271.47 108.23C273.417 109.465 275.362 110.979 277.421 112.689Z" fill="#00100B"/>
<path d="M201.441 119.879C202.553 119.908 203.664 119.937 205.201 119.954C205.626 119.942 205.925 119.866 205.925 119.866C206.724 119.954 207.524 120.042 208.324 120.13C208.318 120.222 208.312 120.314 208.306 120.405C202.579 120.405 196.852 120.405 191.131 120.29C192 120.092 192.863 120.01 193.727 119.927C194.02 119.95 194.313 119.973 195.111 119.991C197.558 119.95 199.499 119.915 201.441 119.879Z" fill="#00100B"/>
<path d="M292.227 134.219C298.85 133.369 305.467 132.496 312.395 131.83C313.107 132.496 313.508 132.955 313.909 133.414C307.253 133.863 300.597 134.312 293.651 134.783C293.126 134.738 292.89 134.67 292.443 134.53C292.232 134.458 292.238 134.239 292.238 134.239C292.238 134.239 292.222 134.196 292.227 134.219Z" fill="#00100B"/>
<path d="M327.487 131.913C330.809 132.309 334.132 132.705 337.71 133.119C337.964 133.138 337.98 133.134 338.035 133.231C338.091 133.328 338.213 133.499 338.089 133.647C337.873 134.297 337.782 134.799 337.433 135.314C333.922 134.931 330.668 134.537 327.413 134.142C326.964 134.013 326.515 133.885 325.835 133.798C323.194 133.724 320.783 133.608 318.295 133.29C319.484 132.997 320.759 132.967 322.017 132.8C323.847 132.556 325.664 132.213 327.487 131.913Z" fill="#00100B"/>
<path d="M341.854 136.538C340.453 136.168 339.296 135.805 337.915 135.372C337.782 134.799 337.874 134.297 338.344 133.622C340.737 134.11 342.752 134.771 344.766 135.432C345.282 135.8 345.798 136.167 346.496 136.826C346.666 137.393 346.653 137.667 346.64 137.94C345.126 137.475 343.612 137.009 341.854 136.538Z" fill="#00100B"/>
<path d="M179.241 230.6C179.241 230.6 179.063 230.627 178.958 230.358C177.826 229.759 176.799 229.428 175.772 229.097C173.025 227.383 170.277 225.669 167.335 223.615C166.933 223.159 166.725 223.043 166.517 222.927C166.517 222.927 166.595 222.93 166.596 222.723C166.135 220.331 164.566 220.113 162.742 220.348C162.742 220.348 162.758 220.322 162.753 220.338C160.383 219.12 158.018 217.884 155.75 216.699C155.675 216.746 156.23 216.399 156.933 215.914C161.305 215.178 164.563 217.304 167.781 219.558C168.729 220.222 169.705 220.846 170.989 221.714C172.141 222.454 172.974 222.969 173.806 223.483C174.039 223.696 174.272 223.908 174.794 224.315C175.715 224.827 176.347 225.145 176.979 225.462C176.979 225.462 176.984 225.414 177.078 225.578C177.544 225.876 177.916 226.009 178.288 226.142C178.288 226.142 178.273 226.072 178.38 226.261C181.862 227.829 185.236 229.207 188.544 230.793C186.813 231.452 185.148 231.904 183.483 232.356L183.181 232.417C183.181 232.417 182.893 232.309 182.693 231.966C181.409 231.282 180.325 230.941 179.241 230.6Z" fill="#00100B"/>
<path d="M183.725 232.424C185.154 231.903 186.818 231.452 188.798 230.79C192.153 231.188 195.192 231.795 198.232 232.403C198.232 232.403 198.445 232.518 198.717 232.721C199.829 233.032 200.67 233.141 201.511 233.251C201.511 233.251 201.577 233.278 201.776 233.433C202.63 233.778 203.284 233.968 203.938 234.159C205.681 234.75 207.424 235.342 209.167 235.934C209.151 236.059 209.136 236.184 209.12 236.309C208.224 236.309 207.329 236.309 206.194 236.331C199.23 235.256 192.506 234.166 185.786 233.05C185.164 232.947 184.568 232.683 183.725 232.424Z" fill="#00100B"/>
<path d="M147.912 220.246C148.027 219.735 148.372 219.221 148.803 218.538C149.355 218.18 149.821 217.99 150.489 217.789C149.841 218.599 148.992 219.42 147.912 220.246Z" fill="#00100B"/>
<path d="M204.007 216.608C204.823 217.494 205.705 218.585 206.609 219.907C205.777 219.031 204.925 217.922 204.007 216.608Z" fill="#00100B"/>
<path d="M209.137 238.808C209.165 238.866 208.96 238.74 208.96 238.74C208.96 238.74 209.109 238.751 209.137 238.808Z" fill="#00100B"/>
<path d="M206.699 220.367C206.83 220.325 206.967 220.461 207.157 220.745C207.008 220.836 206.84 220.72 206.699 220.367Z" fill="#00100B"/>
<path d="M207.286 221.036C207.391 221.022 207.543 221.17 207.772 221.456C207.677 221.463 207.504 221.33 207.286 221.036Z" fill="#00100B"/>
<path d="M208.466 222.376C208.579 222.362 208.754 222.521 209.005 222.842C208.897 222.852 208.712 222.7 208.466 222.376Z" fill="#00100B"/>
<path d="M221.049 256.402C221.15 256.203 221.44 255.95 221.934 255.692C221.838 255.907 221.538 256.127 221.049 256.402Z" fill="#00100B"/>
<path d="M222.276 255.676C222.382 255.494 222.674 255.259 223.161 255.001C223.057 255.194 222.759 255.408 222.276 255.676Z" fill="#00100B"/>
<path d="M220.308 256.857C220.312 256.698 220.474 256.521 220.774 256.375C220.763 256.549 220.615 256.695 220.308 256.857Z" fill="#00100B"/>
<path d="M175.646 270.167C175.626 270.27 175.528 270.314 175.268 270.354C175.204 270.139 175.358 270.058 175.646 270.167Z" fill="#00100B"/>
<path d="M128.899 229.313C128.899 229.453 128.731 229.64 128.371 229.801C128.363 229.637 128.548 229.498 128.899 229.313Z" fill="#00100B"/>
<path d="M222.846 300.214C225.693 299.566 228.619 299.034 231.568 298.827C242.754 298.039 253.947 297.356 265.423 296.579C266.12 296.614 266.532 296.704 266.943 296.795C252.438 300.048 237.744 300.948 222.846 300.214Z" fill="#00100B"/>
<path d="M267.103 299.017C267.059 299.065 266.906 298.897 266.906 298.897C266.906 298.897 267.147 298.969 267.103 299.017Z" fill="#00100B"/>
<path d="M148.901 206.088C148.8 206.37 148.699 206.524 148.598 206.677C148.49 206.497 148.382 206.317 148.275 206.137C148.484 206.077 148.692 206.018 148.901 206.088Z" fill="#00100B"/>
<path d="M216.954 185.005C216.28 184.257 215.593 183.494 214.878 182.476C214.852 182.222 214.873 182.256 215.096 182.258C218.405 179.91 221.492 177.559 224.578 175.209C229.14 173.537 233.703 171.865 238.517 170.208C242.579 170.681 246.388 171.14 250.684 171.657C249.947 172.521 249.527 173.013 248.79 173.726C247.578 173.866 246.683 173.785 245.728 173.535C245.075 173.48 244.482 173.596 243.623 173.791C241.78 174.079 240.205 174.287 238.629 174.495C238.629 174.495 238.752 174.367 238.43 174.343C237.13 174.615 236.152 174.909 235.174 175.204C235.174 175.204 235.016 175.124 234.715 175.18C233.501 175.501 232.587 175.765 231.673 176.029L231.383 175.998C231.383 175.998 231.115 176.112 230.817 176.274C230.141 176.667 229.761 176.897 229.382 177.128C227.984 177.781 226.587 178.435 224.77 179.15C224.047 179.47 223.743 179.726 223.439 179.983C223.439 179.983 223.432 179.92 223.23 179.892C222.478 180.421 221.929 180.979 221.379 181.537C220.896 181.976 220.413 182.415 219.549 182.961C218.906 183.343 218.643 183.618 218.381 183.893C218.381 183.893 218.361 183.814 218.235 183.869C217.995 184.117 217.881 184.309 217.768 184.502C217.768 184.502 217.604 184.391 217.523 184.466C217.282 184.699 217.121 184.858 216.961 185.017C216.961 185.017 216.941 184.991 216.954 185.005Z" fill="#00100B"/>
<path d="M224.346 175.245C221.491 177.558 218.404 179.909 215.078 182.248C217.071 180.336 219.271 178.391 221.56 176.56C222.287 175.979 223.256 175.7 224.346 175.245Z" fill="#00100B"/>
<path d="M203.632 194.93C203.612 194.762 203.694 194.651 203.764 194.658C203.835 194.664 203.894 194.789 203.959 194.861C203.882 194.921 203.805 194.98 203.632 194.93Z" fill="#00100B"/>
<path d="M256.736 179.065C255.121 179.719 253.506 180.373 251.759 181.255C246.849 182.917 242.077 184.368 237.291 185.771C236.486 186.006 235.43 186.403 234.822 186.087C233.422 185.36 232.226 184.24 230.947 183.279C231.811 182.313 232.507 181.033 233.58 180.457C235.041 179.672 236.789 179.424 238.886 178.78C245.15 178.764 250.943 178.914 256.736 179.065Z" fill="#00100B"/>
<path d="M221.566 181.491C221.927 180.98 222.477 180.422 223.259 179.899C222.913 180.438 222.334 180.942 221.566 181.491Z" fill="#00100B"/>
<path d="M223.626 179.922C223.735 179.725 224.039 179.468 224.551 179.193C224.446 179.404 224.133 179.633 223.626 179.922Z" fill="#00100B"/>
<path d="M218.565 183.834C218.641 183.618 218.903 183.344 219.366 183.039C219.295 183.265 219.023 183.52 218.565 183.834Z" fill="#00100B"/>
<path d="M217.122 184.961C217.121 184.855 217.279 184.698 217.606 184.509C217.61 184.621 217.446 184.766 217.122 184.961Z" fill="#00100B"/>
<path d="M217.908 184.429C217.872 184.308 217.986 184.116 218.266 183.872C218.307 184 218.182 184.178 217.908 184.429Z" fill="#00100B"/>
<path d="M167.185 211.999C166.725 212.015 166.134 211.821 165.371 211.469C165.818 211.47 166.436 211.63 167.185 211.999Z" fill="#00100B"/>
<path d="M164.75 211.134C164.806 211.213 164.49 211.239 164.345 211.177C164.356 210.944 164.521 210.924 164.75 211.134Z" fill="#00100B"/>
<path d="M327.237 131.804C325.659 132.214 323.842 132.557 322.012 132.801C320.755 132.968 319.479 132.998 318.001 133.249C316.679 133.444 315.566 133.481 314.18 133.467C313.505 132.958 313.104 132.498 312.663 131.859C317.412 131.684 322.202 131.689 327.237 131.804Z" fill="#00100B"/>
<path d="M162.871 220.518C164.565 220.113 166.134 220.331 166.585 222.76C165.382 222.232 164.191 221.46 162.871 220.518Z" fill="#00100B"/>
<path d="M175.963 229.218C176.803 229.43 177.83 229.76 178.903 230.291C178.017 230.106 177.084 229.722 175.963 229.218Z" fill="#00100B"/>
<path d="M179.404 230.781C180.326 230.94 181.41 231.281 182.607 231.839C181.669 231.691 180.618 231.326 179.404 230.781Z" fill="#00100B"/>
<path d="M166.605 223.089C166.725 223.044 166.933 223.16 167.244 223.423C167.13 223.463 166.912 223.357 166.605 223.089Z" fill="#00100B"/>
<path d="M245.728 173.533C245.312 173.736 244.835 173.769 244.124 173.755C244.482 173.593 245.075 173.478 245.728 173.533Z" fill="#00100B"/>
<path d="M215.335 359.657L227.335 355.657L234.335 346.157L241.835 356.157L249.335 357.657L253.335 361.157L246.335 369.157L245.335 381.657L234.335 378.157L222.335 381.657V369.657L215.335 359.657Z" fill="#FF6700"/>
<path d="M237.303 348.284L240.645 354.751C241.062 355.794 242.107 356.42 243.151 356.628L250.251 357.671C252.966 358.088 254.01 361.426 252.131 363.303L246.91 368.101C246.074 368.936 245.657 369.978 245.866 371.021L247.119 377.905C247.536 380.617 244.821 382.703 242.315 381.451L235.842 378.114C234.797 377.697 233.753 377.697 232.709 378.114L226.235 381.451C223.729 382.703 221.014 380.617 221.432 377.905L222.685 371.021C222.894 369.978 222.476 368.727 221.641 368.101L216.629 363.095C214.541 361.217 215.794 357.88 218.508 357.463L225.609 356.42C226.653 356.211 227.697 355.585 228.115 354.751L231.247 348.284C232.709 345.781 236.05 345.781 237.303 348.284Z" stroke="#00100B" stroke-width="2.85833" stroke-linecap="round" stroke-linejoin="round"/>
</svg>
