<svg width="50" height="50" viewBox="0 0 50 50" fill="none" xmlns="http://www.w3.org/2000/svg">
<path d="M27.9686 8.12738L31.31 14.5939C31.7276 15.6369 32.7718 16.2627 33.816 16.4713L40.9163 17.5143C43.6311 17.9315 44.6753 21.269 42.7958 23.1464L37.575 27.9441C36.7396 28.7785 36.322 29.8215 36.5308 30.8645L37.7838 37.7482C38.2015 40.46 35.4866 42.5459 32.9806 41.2944L26.5068 37.9568C25.4626 37.5396 24.4184 37.5396 23.3743 37.9568L16.9004 41.2944C14.3944 42.5459 11.6796 40.46 12.0973 37.7482L13.3503 30.8645C13.5591 29.8215 13.1414 28.5699 12.3061 27.9441L7.29411 22.9378C5.20577 21.0604 6.45877 17.7229 9.17361 17.3057L16.2739 16.2627C17.3181 16.0541 18.3623 15.4283 18.7799 14.5939L21.9124 8.12738C23.3743 5.62421 26.7156 5.62421 27.9686 8.12738Z" stroke="#00100B" stroke-width="2.85833" stroke-linecap="round" stroke-linejoin="round"/>
</svg>
