<svg width="42" height="40" viewBox="0 0 42 40" fill="none" xmlns="http://www.w3.org/2000/svg">
<path d="M23.9686 4.12738L27.31 10.5939C27.7276 11.6369 28.7718 12.2627 29.816 12.4713L36.9163 13.5143C39.6311 13.9315 40.6753 17.269 38.7958 19.1464L33.575 23.9441C32.7396 24.7785 32.322 25.8215 32.5308 26.8645L33.7838 33.7482C34.2015 36.46 31.4866 38.5459 28.9806 37.2944L22.5068 33.9568C21.4626 33.5396 20.4184 33.5396 19.3743 33.9568L12.9004 37.2944C10.3944 38.5459 7.67961 36.46 8.09728 33.7482L9.35028 26.8645C9.55911 25.8215 9.14144 24.5699 8.30611 23.9441L3.29411 18.9378C1.20577 17.0604 2.45877 13.7229 5.17361 13.3057L12.2739 12.2627C13.3181 12.0541 14.3623 11.4283 14.7799 10.5939L17.9124 4.12738C19.3743 1.62421 22.7156 1.62421 23.9686 4.12738Z" stroke="#00100B" stroke-width="2.85833" stroke-linecap="round" stroke-linejoin="round"/>
</svg>
